<?xml version="1.0" standalone="no"?>
<!DOCTYPE svg PUBLIC "-//W3C//DTD SVG 1.1//EN" "http://www.w3.org/Graphics/SVG/1.1/DTD/svg11.dtd" >
<svg xmlns="http://www.w3.org/2000/svg" xmlns:xlink="http://www.w3.org/1999/xlink" version="1.1">
<metadata>
Created by FontForge 20170731 at Wed Sep 13 17:29:26 2017
 By Aleksey,,,
Copyright (c) 2017 by Emily Spadoni Creative Type &#38; Design Inc.. All rights reserved.
</metadata>
<defs>
<font id="Smoothie_Shoppe" horiz-adv-x="430" >
  <font-face 
    font-family="Smoothie Shoppe"
    font-weight="400"
    font-stretch="normal"
    units-per-em="1024"
    panose-1="0 0 0 0 0 0 0 0 0 0"
    ascent="819"
    descent="-205"
    x-height="363"
    cap-height="765"
    bbox="-407 -492 1361 980"
    underline-thickness="1"
    underline-position="-2"
    unicode-range="U+000D-E01E"
  />
<missing-glyph horiz-adv-x="280" 
 />
    <glyph glyph-name=".notdef" horiz-adv-x="280" 
 />
    <glyph glyph-name=".null" horiz-adv-x="0" 
 />
    <glyph glyph-name="nonmarkingreturn" unicode="&#xd;" horiz-adv-x="0" 
 />
    <glyph glyph-name="NULL" horiz-adv-x="0" 
 />
    <glyph glyph-name="NULL" horiz-adv-x="0" 
 />
    <glyph glyph-name="space" unicode=" " horiz-adv-x="280" 
 />
    <glyph glyph-name="exclam" unicode="!" horiz-adv-x="257" 
d="M169 732q3 -8 4 -27q1 -15 1 -35v-12q-1 -51 -5 -121q-5 -71 -10 -140q-5 -70 -10 -127q-4 -57 -4 -77q-7 -4 -15 -5q-9 0 -19 4q-19 8 -26 26q0 6 3 66t5 137v66q0 33 -1 63q-1 57 -7 98t-19 47q8 33 52 48q16 6 27 6q20 0 24 -17zM80 -46q3 15 -5 27q-5 8 -5 22
q0 6 1 14q3 22 28 27q13 3 22 3t15 -2q15 -7 24 -27q6 -13 6 -26q0 -7 -2 -14q-5 -20 -40 -28q-14 -3 -24 -3q-14 0 -20 7z" />
    <glyph glyph-name="quotedbl" unicode="&#x22;" horiz-adv-x="287" 
d="M64 750q-1 2 -1 4q0 10 10 24q12 17 27 17q7 1 14 -4q7 -4 13 -15q14 -24 14 -52q-1 -13 -4 -27q-9 -43 -26 -71q-3 -4 -7 -4q-2 0 -4 1q-6 3 -11 9q8 28 -4 66q-13 38 -21 52zM151 762q-1 2 -1 4q0 10 10 24q12 17 27 17q7 1 14 -4q7 -4 13 -15q14 -24 13 -52
q0 -13 -3 -27q-9 -43 -26 -71q-3 -4 -7 -4q-2 0 -4 1q-6 3 -11 9q8 28 -5 66q-12 38 -20 52z" />
    <glyph glyph-name="numbersign" unicode="#" horiz-adv-x="537" 
d="M28 334h71q34 0 73 1q0 2 1 4q6 36 12 73v3q-43 0 -75 -1q-39 -2 -47 -6q-7 10 -11 22q-1 4 -1 7q0 9 7 18h71h62q2 15 4 29q9 63 15 110q5 47 5 54q9 13 28 18q5 1 9 1q13 1 21 -9q-3 -10 -14 -80q-10 -55 -21 -122q11 1 23 1q41 0 81 1l4 24q9 64 15 111q5 47 5 54
q9 13 27 18q5 1 10 1q12 0 21 -9q-3 -10 -15 -80q-9 -54 -19 -118q48 2 83 3q21 0 35 1q14 0 18 1q7 -8 7 -17q0 -7 -4 -14q-8 -18 -22 -25q-9 2 -64 4q-29 1 -61 2l-13 -76q45 2 79 3q40 1 48 2q6 -8 6 -18q0 -6 -3 -14q-8 -17 -23 -24q-8 2 -63 4q-24 1 -52 1q0 -6 -1 -11
q-11 -70 -20 -118q-4 -26 -7 -43q-4 -18 -5 -23q-12 -10 -22 -10t-18 8q-17 16 -20 32q12 -2 27 62q11 47 21 104q-14 1 -28 1h-77l-3 -23q-11 -66 -20 -114q-8 -49 -11 -59q-12 -10 -22 -10q-9 0 -17 8q-18 16 -21 32q12 -1 27 62q11 46 21 104q-49 0 -85 -2q-39 -1 -48 -5
q-7 9 -10 22q-1 4 -1 7q0 9 7 18zM220 345l-2 -10q6 1 13 1q31 1 63 1l30 1q6 36 12 73v4h-18h-59h-28q-6 -35 -11 -70z" />
    <glyph glyph-name="dollar" unicode="$" horiz-adv-x="332" 
d="M76 293q19 16 42 7q23 -10 25 -29q-16 -4 -27 -13q-10 -8 -15 -18q-13 -24 -1 -51q12 -26 41 -31q36 -6 58 18t20 75q-2 24 -16 41q-15 16 -36 31q-38 26 -80 57t-42 98q1 73 49 106q35 23 74 25q-2 27 -4 47q-2 23 -2 41v3q0 16 16 16q3 1 7 0q24 -4 29 -20
q-3 -18 -9 -43l-11 -44h6q17 -2 32 -10q15 -7 26 -18q36 -32 41 -81v-9q0 -42 -39 -63q-24 -11 -35 11q-11 21 -4 43q34 -7 35 29q0 35 -27 58q-6 5 -15 9q-8 4 -18 5q-38 4 -64 -28q-27 -32 -22 -76q2 -24 16 -41q14 -18 33 -33q36 -28 74 -59t40 -93q1 -58 -42 -89
q-29 -20 -61 -24q2 -26 5 -46q2 -23 2 -41v-3q0 -17 -16 -17q-3 0 -7 1q-24 3 -29 20q3 18 9 43q5 23 9 43l-6 1q-21 2 -36 12q-16 10 -26 24q-19 25 -19 59q0 33 20 57z" />
    <glyph glyph-name="percent" unicode="%" horiz-adv-x="533" 
d="M158 763q14 -3 15 -13q1 -11 -6 -20q-29 2 -48 -34t-26 -83q-8 -58 5 -111q13 -54 51 -55q22 -1 37 30q14 32 20 72q3 17 4 34q-14 7 -25 16q-26 21 -37 49q-12 28 -2 50q5 10 17 18q12 7 30 9q38 4 56 -34q16 -37 15 -84q16 2 38 22q26 23 48 52q15 18 26 36
q10 18 13 29q17 11 47 2q30 -8 29 -34q-14 -30 -50 -109t-80 -175q-23 -50 -46 -102q-24 -52 -46 -101q-41 -90 -72 -158q-32 -69 -41 -86q-11 -17 -25 -17q-10 0 -22 7q-28 19 -24 47q25 14 70 96t92 183q37 80 71 158q33 78 54 131q11 28 17 46q7 17 7 21q-6 -9 -26 -30
q-20 -20 -43 -35q-13 -8 -25 -13q-8 -3 -15 -5q-7 -48 -29 -92q-30 -57 -83 -56q-30 1 -52 11q-23 10 -38 27q-26 27 -35 66q-5 25 -5 50q0 15 2 30q8 61 44 109q35 46 89 46h4zM405 313q14 -2 14 -13q1 -10 -6 -20q-29 2 -48 -34q-19 -35 -25 -83q-8 -58 5 -111
q12 -54 50 -55q28 -1 42 42q15 43 17 90q2 38 -5 66q-6 28 -20 25q-16 9 -12 28q5 20 23 28q38 4 55 -35q15 -35 15 -79v-11q-2 -63 -32 -120q-29 -57 -81 -56h-2q-29 1 -52 11q-22 10 -38 27q-25 26 -34 66q-6 24 -6 49q0 15 2 30q8 61 44 109q35 46 89 47q2 0 5 -1z
M209 641q-5 43 -22 38q-14 -3 -8 -20q6 -18 26 -32q3 -2 5 -4q0 9 -1 18z" />
    <glyph glyph-name="ampersand" unicode="&#x26;" horiz-adv-x="828" 
d="M704 500q35 -2 55 -33q11 -16 12 -32q0 -13 -9 -26q-19 -30 -48 -42q-29 -13 -64 -17q-22 -3 -46 -3q10 -49 10 -91q0 -24 -3 -46q-10 -73 -42 -124q-24 -37 -57 -63q-34 -26 -72 -40q-49 -18 -101 -18q-23 0 -48 4q-78 12 -134 61q-37 32 -60 80t-23 112v3q0 63 18 108
q20 46 50 76q24 25 54 39q19 10 39 16l-6 6q-21 18 -36 42q-14 22 -21 49q-7 26 -3 57q12 87 73 126q58 37 122 37h6q44 -2 78 -21q34 -20 55 -49q31 -43 28 -95q-4 -51 -53 -81q-13 -8 -25 -9q-11 -1 -19 3q-20 10 -25 35q-5 26 10 38q11 -6 20 -7q9 0 15 4q18 12 14 52
q-5 41 -33 71q-12 13 -29 22t-39 9q-43 2 -78 -33q-36 -35 -43 -99q-5 -40 2 -71q7 -30 20 -52q7 -13 14 -23q37 5 67 -3q42 -10 40 -33q-3 -27 -39 -26t-78 25h-1q-11 -5 -22 -12q-16 -11 -31 -28q-23 -26 -39 -69t-16 -108q0 -59 19 -103q19 -43 49 -71q55 -51 132 -44
q77 6 129 75q34 45 49 119q12 64 0 152q-4 1 -8 1q-53 1 -96 -9t-56 -56q-4 1 -10 8t-6 16q5 25 21 41q15 15 37 25q40 18 94 24t100 22q31 10 54 28t33 51zM321 444q30 -13 32 0q1 7 -20 9q-12 1 -26 -2q7 -4 14 -7z" />
    <glyph glyph-name="quotesingle" unicode="'" horiz-adv-x="104" 
d="M17 759q-1 2 -1 4q0 11 10 25q12 17 27 17q7 0 14 -4q7 -5 13 -15q14 -25 13 -53q0 -13 -3 -27q-9 -43 -26 -71q-3 -3 -7 -3q-2 0 -4 1q-6 2 -11 9q8 28 -5 65q-12 38 -20 52z" />
    <glyph glyph-name="parenleft" unicode="(" horiz-adv-x="426" 
d="M317 873q13 0 21 -18q9 -18 10 -33q-78 -32 -124 -122q-47 -91 -62 -205q-9 -62 -8 -127q0 -65 8 -129q17 -121 62 -222q46 -100 119 -146q7 -12 -5 -30q-9 -14 -20 -14q-5 0 -9 2q-49 27 -87 70q-39 43 -67 96q-53 101 -71 228q-9 62 -9 124q0 64 10 127q19 128 77 235
q57 108 155 164z" />
    <glyph glyph-name="parenright" unicode=")" 
d="M124 -172q-5 -2 -9 -2q-11 0 -20 13q-13 18 -5 31q73 45 119 146q45 101 61 222q9 63 9 129q0 65 -8 127q-16 114 -62 204q-46 91 -125 123q1 15 10 33t22 18q51 -30 92 -74q40 -45 69 -101q55 -103 72 -231q9 -62 9 -123q-1 -65 -10 -128q-19 -126 -75 -231
q-57 -105 -149 -156z" />
    <glyph glyph-name="asterisk" unicode="*" horiz-adv-x="428" 
d="M340 607q2 -7 2 -13q0 -15 -12 -26q-17 -17 -37 -17q-21 17 -39 42q-18 24 -32 49q-1 -30 -5 -62q-5 -31 -15 -56q-7 -5 -16 -5q-8 0 -19 5q-22 9 -30 28q11 26 31 50q19 23 43 43q-25 -8 -58 -18t-54 -11q-16 8 -20 29q-1 6 -1 10q0 15 9 26q34 -1 64 -7q30 -5 57 -14
q-23 22 -42 44q-19 23 -33 48q1 20 17 29q8 4 18 4t22 -4q12 -27 20 -56q9 -29 11 -62q13 27 29 54q17 27 39 48q19 5 34 -16q14 -22 14 -41q-25 -22 -52 -34t-53 -22q29 -8 56 -19t52 -26z" />
    <glyph glyph-name="plus" unicode="+" horiz-adv-x="318" 
d="M131 430q14 19 26 22h4q10 0 21 -9q-5 -56 -1 -105h1q29 1 56 2h52q13 -11 14 -21q0 -4 -2 -8q-7 -14 -8 -21q-59 7 -108 2q3 -30 3 -64q0 -24 -1 -51q-10 -25 -25 -25h-4q-17 4 -28 30q7 6 9 22q3 15 2 37q0 21 -2 46q-19 -1 -41 -1q-30 0 -64 3q-14 7 -14 20q0 3 1 6
q4 17 15 20q8 -3 50 -1q23 1 49 2q-5 51 -5 94z" />
    <glyph glyph-name="comma" unicode="," horiz-adv-x="205" 
d="M87 -139q-3 1 -7 5t-3 9q8 6 20 31q12 24 7 42q-20 -10 -40 5q-16 12 -16 32v8q4 29 27 38q17 7 28 8q4 0 7 -1q14 -4 24 -19q10 -12 10 -38q0 -4 -1 -8q-1 -19 -17 -60t-39 -52z" />
    <glyph glyph-name="hyphen" unicode="-" horiz-adv-x="353" 
d="M327 231q20 -16 22 -33v-5q0 -14 -9 -26q-75 8 -150 1q-41 -4 -84 -4q-37 0 -75 3q-26 10 -27 30q0 2 1 5q4 24 32 35q13 -14 63 -14t109 3l62 4q31 1 56 1z" />
    <glyph glyph-name="period" unicode="." horiz-adv-x="226" 
d="M134 9q2 -7 2 -14q0 -13 -6 -26q-9 -19 -24 -26q-6 -3 -15 -3t-22 3q-25 6 -28 28q-1 7 -1 13q0 14 5 22q8 12 5 27q6 7 20 7q10 0 25 -3q34 -8 39 -28z" />
    <glyph glyph-name="slash" unicode="/" horiz-adv-x="570" 
d="M59 23q12 -5 50 54q38 58 86 148q27 48 54 101q28 53 55 107q41 81 77 154q35 74 57 122q12 25 19 42q8 16 9 20q11 6 34 10q5 1 10 1q18 0 39 -12q-6 -7 -31 -54q-26 -47 -63 -118q-20 -38 -42 -81t-45 -88q-28 -56 -57 -112t-55 -108q-50 -96 -86 -167q-36 -70 -43 -83
q-21 -10 -37 -10q-14 0 -25 7q-14 9 -14 29q0 16 8 38z" />
    <glyph glyph-name="zero" unicode="0" horiz-adv-x="574" 
d="M305 702q47 -1 83 -20q35 -20 62 -52q48 -59 67 -146q18 -81 18 -153v-14q-2 -78 -34 -162q-31 -85 -86 -139q-30 -30 -66 -47q-34 -16 -73 -16h-4q-77 2 -131 53q-55 52 -82 129q-15 41 -22 87q-6 36 -5 73v20q4 88 33 177q29 88 86 145q30 30 69 48q36 16 81 17h4z
M453 328q1 6 1 12q0 61 -13 132q-14 77 -45 131q-17 29 -39 46q-22 18 -50 20h-4q-49 0 -88 -52q-41 -55 -66 -130q-14 -41 -22 -84t-9 -82q-1 -11 -1 -22q0 -63 15 -127q18 -75 52 -125q19 -27 42 -43q23 -17 50 -19h5q47 0 83 53q39 57 62 132q13 40 20 81q7 42 7 77z" />
    <glyph glyph-name="one" unicode="1" horiz-adv-x="232" 
d="M82 -15q3 5 5 24q3 19 6 49q5 54 12 137q6 82 12 168q6 88 11 165q5 78 8 119q-8 -12 -33 -41q-26 -28 -53 -41q-10 6 -14 18q-2 6 -2 13t2 15q32 -2 65 34t50 65q7 4 14 4q12 0 23 -10q19 -15 23 -26q-8 -4 -15 -87t-11 -191q-3 -87 -3 -172q0 -86 4 -144q3 -32 6 -52
q4 -20 9 -25q-32 -42 -69 -43q-36 0 -50 21z" />
    <glyph glyph-name="two" unicode="2" horiz-adv-x="520" 
d="M43 514q5 33 18 63q13 29 33 54q39 46 100 70q40 15 86 15q26 0 54 -5q72 -12 108 -50q36 -39 46 -93q3 -22 3 -46q0 -45 -13 -97q-21 -78 -61 -156q-21 -41 -47 -81q-25 -39 -53 -74q-35 -44 -71 -77q25 -16 47 -33q35 -27 62 -26q33 2 47 42q13 40 -17 52q15 24 44 41
q29 16 51 -13q19 -34 3 -67q-16 -34 -49 -55q-18 -11 -38 -18t-39 -7h-4q-52 0 -90 22q-28 17 -54 32l-1 -1q-56 -43 -101 -44q-20 -1 -34 5q-14 5 -23 14q-17 17 -17 41v2q1 26 19 44q10 10 25 16t35 5q29 -1 55 -10q15 -6 30 -13q24 30 50 71q40 63 73 135q41 88 65 176
q24 89 14 149q-6 33 -23 54q-17 22 -48 27q-51 9 -98 -12q-48 -22 -80 -60q-17 -20 -28 -44q-11 -23 -14 -47q-6 -50 11 -87q17 -36 47 -42q16 -3 35 5t39 29q16 -12 11 -43q-6 -31 -17 -44q-26 -14 -52 -15t-49 9q-44 20 -72 71q-27 51 -18 116zM149 39q-20 9 -43 10
q-34 2 -37 -26q-4 -27 33 -28q14 0 32 11q15 9 32 25q-9 4 -17 8z" />
    <glyph glyph-name="three" unicode="3" horiz-adv-x="507" 
d="M243 725h11q73 0 124 -43q55 -47 53 -130q-1 -26 -11 -50q-9 -23 -24 -43q-16 -21 -36 -38l-2 -2q2 0 4 -1q25 -10 46 -28q33 -29 54 -78q16 -41 16 -98q0 -14 -1 -29q-2 -42 -16 -79q-14 -36 -35 -65q-41 -53 -101 -79q-44 -19 -89 -19q-15 0 -31 2q-56 8 -93 32t-58 55
q-18 26 -25 54q-6 24 -6 46v10q3 51 33 88q30 36 79 33q21 -8 18 -30q-4 -22 -17 -27q-26 8 -35 -26t1 -77q4 -19 12 -37t19 -34q13 -18 30 -30t40 -17q70 -13 127 44q58 57 61 166q2 56 -10 94q-11 39 -29 64q-19 25 -39 38q-36 -18 -66 -19q-33 -1 -37 23q-3 21 29 33
q32 11 76 4q2 -1 4 -1q5 6 10 13q14 19 24 47q11 28 12 64q2 60 -32 104t-91 41q-20 -1 -36 -10q-16 -8 -28 -20q-26 -27 -32 -63q-6 -35 10 -44q5 -3 12 -2q8 1 18 7q15 -13 11 -35q-5 -22 -25 -30q-9 -3 -20 -3q-11 1 -25 9q-45 22 -41 78q5 56 51 97q20 17 46 28
q27 12 60 13zM279 405q-38 7 -37 -4q1 -12 31 -3q6 2 13 5q-4 1 -7 2z" />
    <glyph glyph-name="four" unicode="4" horiz-adv-x="537" 
d="M280 -29q-2 7 -2 25v2q0 19 2 47q4 51 12 121q5 37 9 74q-7 2 -15 5q-25 7 -52 15q-49 15 -96 28h-2q-32 -30 -69 -27q-27 3 -35 28q-3 7 -3 14q0 15 13 26q6 5 15 7q9 3 21 2q11 -1 26 -4q4 9 8 19q26 66 53 152q17 57 32 115q15 57 22 101q21 15 43 15q14 0 28 -7
q36 -15 27 -38q-14 -33 -32 -89q-18 -55 -39 -113q-12 -31 -25 -62q-12 -30 -27 -57q-15 -29 -32 -52q6 -1 12 -3q50 -17 99 -35q18 -7 32 -13q2 20 5 39q10 70 17 127q8 57 10 77q6 3 13 3q10 0 21 -6q19 -9 24 -27q-1 -5 -6 -47q-5 -41 -11 -100q-4 -31 -7 -65l-1 -7
q16 6 28 17q19 15 27 37q7 21 -8 35q10 22 43 23t38 -30q2 -8 2 -16q0 -12 -4 -23q-7 -18 -20 -32q-25 -26 -66 -36q-21 -7 -43 -7l-2 -29q-6 -79 -5 -143q1 -63 17 -71q-11 -33 -52 -38h-12q-30 0 -33 23zM68 303q-14 0 -13 -7q1 -6 17 -8q6 -1 14 12q-10 2 -18 3z" />
    <glyph glyph-name="five" unicode="5" horiz-adv-x="506" 
d="M241 8q65 13 93 75q29 62 22 131q-4 46 -23 88t-53 68q-29 21 -68 28q-38 6 -87 -10q-9 1 -15 8q-5 8 -7 11q10 27 16 55t9 55q3 42 0 74q-12 0 -21 1q-11 1 -19 4q-8 4 -12 9q-15 16 -5 39q10 22 34 22q31 0 50 -35q10 3 22 6q57 15 117 25q41 7 77 8h7q31 0 51 -9
q8 -4 13 -11t7 -15q6 -24 -9 -50q-15 -25 -31 -20q-13 15 -42 22t-65 9q-54 2 -110 -1q-13 -1 -23 -2q15 -65 -10 -165q69 20 122 14q54 -7 91 -32q26 -17 45 -42q18 -24 29 -53q16 -42 16 -89q0 -13 -1 -27q-6 -62 -38 -114q-27 -44 -73 -76t-110 -43q-19 -3 -36 -3
q-22 0 -41 6q-34 9 -59 28q-22 18 -37 42q-15 25 -23 52q-9 31 -9 62t9 61q18 60 70 68q10 1 17 -1q8 -2 13 -7q17 -14 17 -38q-1 -24 -21 -25q-15 11 -27 12t-20 -6q-16 -12 -18 -45q-1 -33 12 -69q8 -19 19 -37q12 -18 27 -32q20 -17 47 -25t61 -1zM107 641q-14 1 -18 -7
q-3 -9 13 -10q7 -1 19 0q-6 17 -14 17z" />
    <glyph glyph-name="six" unicode="6" horiz-adv-x="475" 
d="M313 441q-43 -6 -59 13q-17 19 3 51q15 -2 28 2q12 4 22 11q30 23 33 69q4 46 -22 74q-9 9 -21 15q-12 5 -28 6q-43 1 -75 -37q-31 -38 -52 -99q-11 -33 -18 -71q-8 -37 -12 -76q-5 -46 -5 -93q9 16 20 29q26 31 57 46q26 13 54 16q29 3 56 -3q50 -11 89 -51
q40 -40 49 -106q2 -19 2 -41v-19q-2 -33 -11 -66q-17 -61 -62 -106q-41 -41 -114 -41h-17q-85 5 -133 70t-64 156q-9 48 -9 99v4q1 53 9 106q7 42 20 82q12 41 30 76q32 66 82 107q47 39 107 39h6q24 -1 44 -11q21 -10 36 -26q35 -38 42 -96q6 -57 -24 -95q-11 -13 -26 -22
q-16 -9 -37 -12zM113 206q10 -85 39 -144q30 -59 79 -62q51 -4 83 34q31 38 43 89q7 28 9 57q1 28 -2 54q-10 68 -60 104q-49 36 -104 12q-29 -12 -57 -45q-19 -23 -35 -58q2 -21 5 -41z" />
    <glyph glyph-name="seven" unicode="7" horiz-adv-x="486" 
d="M171 -30q5 42 22 126t43 180q13 50 28 100q15 49 32 94q28 73 58 124q-33 5 -72 10q-63 7 -126 10q-62 2 -87 -11q-14 -2 -26 24q-7 15 -7 29q0 9 3 18q2 7 8 12q5 5 14 8q13 4 31 4q15 0 34 -3q41 -7 86 -19q68 -18 131 -40q17 -6 31 -11q27 34 55 30q24 -4 30 -27
q2 -6 2 -11q0 -15 -13 -24q-5 -5 -13 -6q-9 -2 -20 -1q-9 1 -20 2q-8 -17 -18 -43q-34 -88 -59 -226q-14 -75 -22 -159q-7 -85 -4 -174q-19 -23 -56 -32q-9 -3 -19 -3q-25 0 -46 19zM425 612q16 -1 14 8t-16 11q-5 0 -15 -16q11 -3 17 -3z" />
    <glyph glyph-name="eight" unicode="8" horiz-adv-x="457" 
d="M298 597q-1 24 -8 40q-7 15 -18 23q-22 16 -53 6q-30 -11 -52 -38q-12 -15 -19 -34t-7 -41q1 -46 34 -85q21 -25 46 -50l5 4q73 59 113 108q22 26 28 49q7 23 -9 42q8 31 29 42t43 -15v-4q0 -58 -38 -110q-39 -52 -93 -101q-23 -22 -47 -43q23 -21 47 -42t45 -44
q32 -34 51 -73q19 -38 12 -84q-7 -52 -28 -88q-21 -37 -50 -60q-51 -39 -115 -39h-15q-72 5 -120 54q-26 26 -40 65q-11 29 -11 66q0 10 1 21q3 33 22 66q18 34 47 67q30 35 66 69q-9 8 -17 17q-32 33 -54 70t-21 83q0 48 16 80q17 32 42 50q20 15 45 21q23 7 46 7q1 0 3 -1
q46 0 83 -23q36 -22 41 -57q-5 -14 -23 -22q-18 -7 -27 4zM229 311l-34 28q-6 -6 -12 -11q-43 -40 -72 -82q-30 -42 -32 -88q-2 -34 7 -61q10 -27 26 -45q30 -35 75 -40q45 -6 81 25q19 15 33 40q13 25 19 61q5 28 -2 52q-6 24 -20 46q-26 40 -69 75z" />
    <glyph glyph-name="nine" unicode="9" horiz-adv-x="463" 
d="M145 229q43 6 60 -13q16 -20 -4 -51q-15 1 -28 -2q-12 -4 -22 -12q-30 -23 -34 -70q-4 -46 23 -74q9 -9 21 -14q12 -6 28 -6q23 -1 43 11q19 12 36 33q31 39 50 104q20 65 28 139q5 44 5 89q-9 -15 -19 -27q-26 -31 -58 -47q-26 -12 -54 -16q-29 -3 -56 3q-50 11 -90 52
t-49 106q-2 20 -2 41v20q2 33 11 66q17 61 63 107q41 42 115 42q8 0 17 -1q45 -3 80 -24q36 -21 61 -56q47 -63 61 -161q6 -46 6 -91q0 -52 -8 -104q-7 -43 -19 -84q-13 -41 -30 -76q-33 -66 -83 -108q-48 -41 -111 -41h-3q-21 1 -39 8t-33 19q-41 34 -51 92q-11 58 14 100
q10 18 28 30q18 13 43 16zM347 454q-8 90 -36 148q-15 32 -36 51t-48 21q-27 1 -49 -10t-38 -31q-31 -36 -42 -92q-11 -55 -4 -103q10 -69 59 -105q50 -36 105 -13q30 13 58 46q18 22 34 56q-2 16 -3 32z" />
    <glyph glyph-name="colon" unicode=":" horiz-adv-x="273" 
d="M82 -42q3 16 -5 29q-6 9 -6 23q0 6 1 14q4 23 30 29q14 3 23 3q10 0 16 -2q16 -8 25 -28q6 -14 6 -28q0 -7 -2 -14q-5 -21 -41 -29q-15 -4 -26 -4q-15 0 -21 7zM69 265q-1 7 -1 14q0 14 6 27q9 21 25 28q6 3 15 3q10 0 24 -3q26 -6 29 -29q2 -8 1 -15q0 -14 -5 -23
q-9 -12 -6 -28q-5 -7 -21 -7q-10 0 -25 3q-37 9 -42 30z" />
    <glyph glyph-name="semicolon" unicode=";" horiz-adv-x="232" 
d="M101 -141q-3 1 -7 5q-4 5 -3 10q8 6 20 30q12 25 7 42q-20 -9 -40 5q-16 12 -16 32v8q5 29 28 39q17 7 27 7q4 0 7 -1q14 -4 25 -18q9 -13 9 -38q0 -4 -1 -8q-1 -19 -17 -60q-16 -42 -39 -53zM64 272q-1 7 -1 14q0 13 5 25q9 20 24 27q6 3 15 3t22 -3q25 -6 29 -28
q1 -7 1 -13q0 -14 -6 -22q-8 -13 -5 -28q-5 -7 -20 -7q-10 1 -24 4q-35 8 -40 28z" />
    <glyph glyph-name="less" unicode="&#x3c;" horiz-adv-x="341" 
d="M261 566q15 -1 31 -37q17 -36 -1 -57q-74 -54 -221 -161q72 -47 216 -142q15 -15 15 -34q0 -14 -8 -29q-17 -32 -40 -32h-6q-76 80 -229 238q22 22 45 46q24 25 48 49q45 46 86 88q40 43 64 71z" />
    <glyph glyph-name="equal" unicode="=" horiz-adv-x="341" 
d="M304 337q20 -15 22 -27v-4q0 -11 -9 -23q-75 8 -139 1q-34 -4 -74 -4q-34 0 -73 3q-26 11 -26 27v4q4 18 33 30q7 -8 23 -11q17 -3 40 -3q43 -1 100 4q56 4 103 3zM306 239q21 -15 23 -27v-4q0 -11 -10 -23q-74 8 -138 1q-34 -4 -74 -4q-34 0 -73 3q-26 11 -26 26v5
q4 18 32 30q13 -14 57 -14t98 3q28 2 57 3q29 2 54 1z" />
    <glyph glyph-name="greater" unicode="&#x3e;" horiz-adv-x="305" 
d="M294 285q-76 -80 -228 -238q-4 -1 -7 -1q-22 1 -39 32q-9 16 -9 30q0 18 15 34l216 141q-73 54 -221 162q-18 20 -1 57q17 36 32 36q12 -15 30 -34q18 -20 40 -42q40 -42 86 -89q47 -47 86 -88z" />
    <glyph glyph-name="question" unicode="?" horiz-adv-x="520" 
d="M278 739q44 -6 75 -25q31 -20 50 -47q36 -49 36 -111v-2q-1 -63 -27 -104q-41 -63 -83 -93q-41 -30 -65 -60q-12 -16 -17 -37q-5 -20 1 -50q-8 -11 -28 -14q-6 -1 -12 -1q-13 0 -22 6q-7 65 18 108q26 43 63 82q20 22 41 44q21 23 39 49q21 31 22 81t-20 89
q-11 22 -29 37t-43 19q-19 3 -36 0q-17 -4 -32 -12q-44 -26 -63 -78q-20 -52 -2 -75q6 -8 16 -11t25 1q19 -21 17 -50q-2 -30 -39 -25q-35 7 -56 25q-20 17 -29 41q-7 19 -7 39q0 28 13 60q22 54 71 86q25 17 56 25q20 5 41 5q13 0 26 -2zM184 11q-1 5 -1 9q0 14 8 29
q11 18 26 23q4 1 9 1q10 0 26 -5q23 -7 24 -28v-6q0 -18 -7 -28q-9 -11 -7 -25q-5 -5 -15 -5q-11 0 -28 5q-32 11 -35 30z" />
    <glyph glyph-name="at" unicode="@" horiz-adv-x="691" 
d="M450 404q-4 -31 -23 -29q-20 1 -27 13q9 7 5 27q-3 19 -25 20q-18 1 -36 -24q-17 -26 -29 -61q-14 -42 -15 -81q-1 -40 22 -43q16 -3 32 14q15 16 27 37q7 14 12 29q5 14 7 23q15 21 33 7q18 -13 19 -28q-9 -14 -9 -39t8 -48q5 -14 14 -25q9 -10 22 -12q35 -6 59 45
q24 50 24 118q1 45 -12 91q-12 46 -40 80q-24 30 -60 48t-86 18q-43 0 -99 -24q-57 -25 -97 -77q-21 -28 -34 -64t-13 -82q-1 -50 15 -93q16 -42 43 -76q27 -36 64 -62q36 -26 75 -42q71 -28 134 -18t77 64q17 16 33 1q16 -14 10 -31q-22 -29 -55 -47q-34 -18 -73 -25
q-26 -5 -53 -5q-50 0 -103 16q-83 25 -142 87q-40 42 -63 100q-23 54 -23 124v8q1 46 16 85t39 71q45 58 114 89q66 30 132 30h4q91 -1 146 -31q56 -29 83 -74q19 -32 25 -68q5 -25 5 -49q0 -12 -1 -23q-3 -30 -11 -58q-8 -29 -20 -53q-23 -47 -57 -74q-33 -28 -68 -21
q-32 6 -49 26q-16 20 -24 40q-4 11 -6 20t-2 14q-4 -10 -18 -28q-14 -19 -34 -33q-11 -7 -23 -11q-12 -3 -24 -1q-39 6 -52 48t-3 91q8 32 24 62q17 30 43 49q16 12 36 18t42 4q35 -3 51 -21q16 -19 14 -36z" />
    <glyph glyph-name="A" unicode="A" horiz-adv-x="904" 
d="M676 709q-2 -41 -1 -128t6 -186q1 -20 2 -39q37 9 49 16q22 -3 23 -27q0 -3 -1 -6q-3 -30 -18 -30q-22 -5 -49 -7l2 -12q5 -52 11 -100q12 -89 31 -150q19 -60 47 -63q24 -2 45 40q22 41 37 89q10 32 17 59l10 40q8 1 19 2q10 0 18 -2q-2 -9 -6 -26t-9 -39
q-11 -39 -29 -86q-19 -47 -45 -77q-13 -15 -29 -23q-13 -7 -27 -7h-7q-36 4 -64 29q-27 24 -48 62q-32 63 -49 152q-10 53 -18 108q-33 0 -67 3q-31 2 -59 7q-5 1 -10 1q-10 -40 -20 -81q-16 -65 -35 -125q-36 -112 -85 -190q-49 -77 -118 -80h-4q-49 0 -84 46
q-38 48 -51 112q-6 29 -6 58q0 13 2 27q4 43 24 77q16 28 45 46q28 18 71 21q29 -6 32 -45q4 -38 -16 -49q-32 12 -54 7q-21 -6 -35 -22q-15 -21 -20 -53q-4 -32 1 -66q8 -52 33 -93q25 -42 61 -41q19 1 35 18q17 16 31 45q27 53 49 140q23 87 45 184l30 130q15 65 33 125
q32 110 75 186q29 51 68 68q-2 3 -3 5q4 18 34 20h5q27 0 50 -18q10 -8 17 -21q8 -13 9 -31zM552 687q-20 -51 -40 -132q-10 -44 -21 -94t-23 -102l-3 -15l8 -1q32 -5 67 -5q25 0 49 2q-2 17 -3 34q-4 49 -6 97q-2 47 -4 90q-3 80 -5 135q-1 14 -2 25q-9 -13 -17 -34z" />
    <glyph glyph-name="B" unicode="B" horiz-adv-x="740" 
d="M357 639v-4q0 -8 -1 -24q-2 -21 -5 -53q-5 -60 -15 -145l-2 -16q31 4 71 28q43 25 71 64q15 21 24 45q8 23 6 48q-6 69 -65 104q-60 36 -128 14q-37 -11 -72 -41q-35 -31 -61 -84q-31 -14 -43 13q-12 26 13 61q44 42 95 66t102 31q23 3 44 3q69 0 126 -31q76 -41 85 -126
q3 -33 -7 -60t-29 -49q-33 -41 -80 -65q-47 -23 -70 -32q28 -5 88 -27q61 -22 102 -78q22 -30 34 -72q6 -24 6 -54q0 -20 -3 -43q-7 -54 -32 -97t-62 -75q-70 -61 -169 -76q-31 -5 -60 -5q-64 0 -120 23q-44 18 -79 50t-53 79q-22 56 -22 103q0 35 13 66q28 71 75 91
q22 5 36 3q14 -3 21 -12q14 -16 12 -44t-6 -50q-27 15 -50 0q-23 -14 -31 -46q-4 -17 -3 -38q2 -21 10 -44q15 -38 36 -67q22 -29 48 -49q50 -36 109 -39q58 -2 110 31q42 28 74 81q32 52 44 132q8 52 -3 89q-10 38 -31 64q-38 48 -96 64q-53 15 -84 16l-12 -120
q-11 -107 -17 -190t2 -90q-14 -18 -43 -18h-7q-34 2 -39 35q3 13 12 94q8 82 16 182q6 80 10 157q4 78 3 129q0 27 -3 44q-2 17 -7 19q10 43 49 53q10 3 20 3q25 0 43 -21z" />
    <glyph glyph-name="C" unicode="C" horiz-adv-x="680" 
d="M431 447q-50 -10 -71 12q-20 22 1 60q29 -2 51 12q23 14 38 36q23 33 26 75t-19 67q-9 10 -23 16q-13 6 -32 6q-60 -1 -104 -48t-71 -120q-15 -39 -25 -84t-15 -93q-7 -57 -6 -116t10 -113q16 -101 58 -173q42 -71 112 -77q53 -5 96 13q43 17 76 47q22 20 39 43
q18 24 32 48q26 45 41 87q14 42 19 64q12 0 36 -1q-5 -23 -21 -70q-15 -46 -44 -96q-16 -27 -35 -53q-20 -26 -45 -48q-37 -34 -87 -54q-39 -16 -88 -16q-12 0 -24 1q-67 5 -118 33t-88 72q-57 71 -78 173q-13 63 -13 128q0 39 5 78q6 54 22 107q15 53 39 99q44 87 115 142
q70 55 163 55h3q24 0 45 -8q20 -8 35 -22q42 -36 52 -97q11 -61 -13 -112q-13 -26 -36 -46t-58 -27z" />
    <glyph glyph-name="D" unicode="D" horiz-adv-x="862" 
d="M750 327q-3 -96 -34 -174q-31 -77 -80 -133q-40 -45 -88 -77q-49 -31 -101 -47t-102 -16q-43 0 -84 11q-91 25 -140 110q-19 32 -25 63q-5 23 -5 45v14q5 53 32 91q27 37 57 49q22 6 36 4q14 -3 21 -11q14 -16 12 -44t-6 -51q-29 19 -57 3t-38 -51q-6 -19 -4 -42t14 -47
q20 -40 48 -65q28 -26 62 -36q61 -20 132 6q71 27 128 92q48 54 81 131q32 78 37 175q4 101 -34 186q-37 86 -98 135q-33 26 -70 40t-76 11q-47 -3 -94 -34q-46 -30 -87 -93q-32 -14 -43 12q-12 27 13 62q35 33 76 54q42 22 86 32q37 8 75 8q46 0 93 -12q85 -22 149 -85
q53 -51 85 -130q29 -73 29 -170v-16zM373 634q2 -4 2 -22q1 -6 1 -12q0 -15 -1 -36q-2 -55 -7 -137q-5 -83 -11 -166q-7 -105 -12 -188q-5 -82 -1 -89q-12 -16 -34 -15q-5 0 -11 1q-31 5 -35 37q2 8 5 28q2 19 5 47q4 52 7 125t4 145q1 91 -2 160q-3 70 -13 75q10 43 44 59
q12 6 23 6q20 0 36 -18z" />
    <glyph glyph-name="E" unicode="E" horiz-adv-x="679" 
d="M451 537q-17 -8 -31 -8t-24 5q-24 10 -28 38q-4 27 14 42q12 -9 22 -11t18 0q23 8 23 45q0 38 -27 65q-13 13 -30 21q-18 7 -42 7q-49 0 -82 -41t-37 -101q-3 -39 5 -69q7 -30 20 -52q6 -13 13 -23q45 6 78 -5q37 -13 31 -38q-6 -30 -42 -28q-33 2 -71 23q-11 -7 -23 -16
q-16 -12 -30 -30q-22 -28 -37 -72t-15 -109q-1 -98 54 -162t131 -79q42 -8 85 0q44 7 84 33q50 32 91 93q40 60 63 154q7 2 16 3q9 0 19 -2q-21 -107 -69 -178q-49 -70 -111 -108q-51 -32 -108 -43q-34 -6 -67 -6q-22 0 -43 2q-101 14 -175 84q-75 70 -77 183v7q0 87 27 144
q27 60 67 95q26 22 55 35q8 4 17 7l-3 3q-20 19 -36 44q-15 23 -23 50t-7 57q5 77 67 126t136 50h4q27 0 50 -7q24 -8 43 -22q20 -14 34 -33t21 -41q13 -39 2 -77q-12 -38 -52 -55zM304 421q29 -14 31 -3q1 6 -19 6q-7 0 -15 -2q1 -1 3 -1z" />
    <glyph glyph-name="F" unicode="F" horiz-adv-x="504" 
d="M345 397q8 -1 14 -4q5 -3 8 -8q5 -8 5 -18q0 -9 -4 -20q-8 -23 -20 -28q-61 -13 -120 -13h-4q0 -77 2 -155q1 -88 1 -149q0 -34 -1 -56q0 -23 -2 -31q-17 -11 -42 -11q-4 0 -9 1q-31 2 -52 18q-9 7 -15 17q-6 9 -7 21q11 6 20 86q8 79 14 180q2 43 4 88v3q-12 3 -24 8
q-10 4 -10 19v2q0 17 13 24q9 -5 22 -7q1 18 2 35q2 76 2 131q1 55 -1 63q18 16 46 21q8 2 15 2q18 0 31 -9q-7 -4 -9 -88q-1 -69 -1 -155q36 3 71 11q41 10 51 22zM702 696q-24 22 -77 20q-54 -3 -122 -17q-36 -8 -75 -18q-40 -9 -79 -19q-61 -14 -118 -25
q-56 -11 -102 -11h-3q-44 0 -75 14q-30 14 -40 48q-2 7 -2 14q0 15 10 33q14 25 52 22q14 -1 10 -12t-15 -15q-12 6 -25 -4q-12 -10 2 -28q7 -8 27 -10q19 -1 47 2q53 7 128 28q76 20 154 43q80 23 151 41q71 19 111 20h2q12 1 21 -3q10 -5 18 -12q22 -22 22 -58v-4
q-2 -38 -22 -49z" />
    <glyph glyph-name="G" unicode="G" horiz-adv-x="744" 
d="M434 451q-48 -8 -66 13q-19 21 2 57q27 -3 49 9q21 12 36 32q22 30 27 68q4 38 -16 62q-8 9 -21 15q-12 6 -30 7q-55 1 -96 -35q-41 -37 -68 -94q-15 -31 -25 -67q-11 -35 -18 -73q-9 -46 -11 -93q-3 -46 -1 -90q5 -80 29 -137q23 -58 64 -63q43 -6 83 51q41 57 66 131
q13 41 21 80q8 40 9 73q15 27 53 17q37 -10 43 -40q-4 -1 -5 -23q-2 -22 -2 -59q-2 -69 -4 -176q-2 -48 -5 -97q31 15 59 32q42 25 74 61q33 36 47 91q9 5 16 4q8 -1 20 -4q-14 -60 -49 -102q-34 -42 -78 -72q-44 -29 -92 -50q-3 -38 -7 -77q-10 -88 -29 -166
q-20 -77 -53 -125q-18 -25 -41 -40q-23 -14 -51 -14h-1q-37 0 -67 30q-31 30 -47 76q-9 25 -12 52q-4 27 -1 55q3 34 17 67q13 32 39 59q18 19 43 34q24 15 52 27q32 14 66 28v26q2 74 1 128v58q-7 -14 -27 -55q-20 -42 -54 -74q-18 -17 -40 -28q-22 -10 -48 -7
q-43 4 -77 21t-59 44q-47 50 -65 126q-11 49 -11 101q0 28 3 56q10 83 47 161q37 79 101 130q39 32 88 50q46 16 99 16h9q33 -1 57 -15q24 -15 39 -38q29 -42 27 -99q-3 -58 -37 -96q-13 -15 -31 -25t-41 -14zM411 -77q-28 -13 -50 -25q-23 -13 -38 -28q-28 -29 -39 -61
q-11 -33 -11 -66q2 -61 33 -107q32 -47 63 -47q34 -1 52 76q17 76 25 176q3 42 5 86v14q-21 -9 -40 -18z" />
    <glyph glyph-name="H" unicode="H" horiz-adv-x="884" 
d="M778 741q-12 -3 -22 -24t-18 -56q-16 -64 -25 -161q-6 -53 -9 -106q51 10 66 25q24 -3 23 -27v-4q-2 -28 -19 -37q-24 -12 -72 -18v-30q-1 -43 0 -84t5 -78q5 -67 18 -111t34 -45q24 -2 45 38t37 86q10 30 17 57q7 26 10 38q8 2 19 3q10 0 18 -2q-2 -9 -6 -26t-10 -39
q-11 -40 -29 -86q-18 -47 -44 -77q-14 -15 -29 -23q-13 -7 -28 -7h-6q-65 7 -96 77q-32 70 -40 170q-4 44 -4 91q0 10 1 21v22h-22q-26 0 -52 1q-36 2 -67 6q-15 1 -27 3q-6 -78 -18 -155q-8 -50 -19 -97q-10 -47 -24 -88q-26 -76 -64 -123q-37 -47 -89 -47h-1q-51 0 -86 51
q-36 50 -46 116q-5 25 -4 49q0 19 2 38q5 44 26 77q18 28 47 45q29 18 72 19q29 -7 31 -46q2 -38 -18 -48q-32 13 -54 8t-35 -22q-17 -20 -22 -53t-2 -68q6 -53 30 -97t60 -44q14 0 27 14q12 15 23 40q20 48 33 127q14 79 22 168q9 110 11 219q1 109 -4 180q-3 38 -8 62
q-5 23 -12 25q16 47 57 59q11 3 21 3q25 0 38 -19q5 -12 8 -44q3 -31 5 -76q1 -30 1 -65q0 -60 -3 -133l-2 -34q11 -1 26 -1q37 0 82 2q30 1 59 4q1 19 3 39q4 47 10 93t13 86q13 77 28 129q15 53 25 64q11 12 28 12q10 0 23 -5q34 -12 32 -61z" />
    <glyph glyph-name="I" unicode="I" horiz-adv-x="385" 
d="M94 -14q5 1 10 15q4 13 9 36q8 44 14 113q7 70 12 148q3 52 6 105t5 102q4 91 5 157q2 65 0 74q1 23 37 28q9 1 17 1q23 0 38 -10q-4 -4 -7 -48q-3 -46 -4 -117q-1 -38 -1 -81q-1 -43 -1 -88v-396q0 -73 -3 -88q-11 -21 -47 -23q-4 -1 -8 -1q-31 0 -55 19q-12 9 -19 22
t-8 32z" />
    <glyph glyph-name="J" unicode="J" horiz-adv-x="660" 
d="M456 670q0 -12 7 -71t13 -142q4 -45 6 -95q1 -40 1 -80v-20q-1 -96 -15 -187q-13 -90 -49 -150q-22 -38 -55 -59q-31 -21 -75 -22h-1q-51 1 -91 29q-40 29 -65 72q-38 65 -40 143v6q1 74 43 117q18 19 45 29q26 10 62 8q9 -2 16 -7q6 -5 11 -12q12 -20 6 -47t-21 -35
q-32 21 -53 20t-33 -16q-20 -28 -13 -88t34 -111q18 -35 43 -58q25 -24 55 -24q18 0 32 12q15 12 25 34q21 42 30 111q10 69 13 149q3 97 -1 195q-5 98 -12 165q-4 36 -8 60t-7 30q3 17 42 36q25 12 40 12q9 0 15 -4zM745 713q-26 23 -82 20q-55 -4 -125 -20q-37 -9 -77 -20
q-40 -10 -80 -21q-62 -17 -121 -30t-106 -14h-7q-41 0 -70 12q-31 13 -40 47q-2 7 -2 13q0 16 10 33q14 26 51 23q14 -1 11 -12q-4 -12 -15 -15q-12 6 -25 -4q-12 -10 2 -28q13 -16 68 -7q54 10 128 31q40 12 84 25q43 14 86 27q82 25 154 45q68 18 106 18h5q14 0 25 -5
q10 -5 19 -13q23 -23 23 -59v-1q0 -37 -22 -45z" />
    <glyph glyph-name="K" unicode="K" horiz-adv-x="597" 
d="M25 15q19 7 31 95q13 87 19 200q-29 8 -34 35q-1 6 -1 12q0 27 24 45q6 4 15 8q1 41 1 82q1 91 -3 154q-2 35 -6 58q-3 23 -8 31q19 28 42 28h1q24 -1 39 -8q4 -10 7 -76q4 -65 5 -156q1 -49 2 -103v-13q14 -6 27 -14q3 -3 6 -5q36 46 71 116q37 75 73 148q37 75 75 134
t78 71q4 1 8 1q14 0 32 -10q24 -15 37 -37q5 -10 7 -21q2 -10 -1 -21q-19 2 -42 -20q-22 -21 -49 -56q-49 -66 -110 -158q-61 -93 -130 -156q-10 -9 -19 -17q12 -11 24 -25q39 -49 74 -117t66 -142q37 -88 70 -172t64 -136q17 -28 34 -44q16 -17 33 -17q25 0 46 31
q21 30 16 58q-1 10 -7 18q-5 8 -14 13q5 19 18 35t33 9q16 -18 19 -42q1 -6 1 -12q0 -19 -6 -38q-12 -37 -42 -67q-30 -29 -67 -30h-3q-52 0 -93 29q-42 30 -76 79q-35 51 -63 118t-52 136q-15 45 -30 89q-14 44 -29 83q-25 70 -54 117q-7 -4 -15 -8l-10 -5v-9q1 -31 1 -62
v-23q-1 -41 -1 -79q0 -70 -2 -119q-1 -50 -3 -62q-10 -14 -23 -20t-25 -6q-31 0 -56 24t-25 49zM69 363q0 -13 7 -21l2 40q-10 -6 -9 -19zM159 369v-16q4 3 8 7q-4 5 -8 9z" />
    <glyph glyph-name="L" unicode="L" horiz-adv-x="676" 
d="M495 507q-29 -2 -53 12t-17 50q28 -3 50 10q23 13 39 35q23 32 29 74q5 42 -15 67q-9 11 -22 17q-13 7 -32 7q-44 1 -67 -53q-23 -53 -36 -136q-8 -44 -14 -94t-12 -102q-10 -80 -24 -158q-14 -79 -39 -142q-5 -13 -11 -26q52 -34 105 -74l58 -46q30 -22 57 -40
q51 -34 95 -46q43 -12 73 18q12 -11 17 -24q6 -13 7 -26v-3q0 -30 -22 -55t-57 -25h-3q-42 0 -84 27t-83 67q-49 48 -97 104q-44 50 -86 87q-13 -21 -28 -37q-36 -40 -91 -47q-35 -5 -59 1q-25 6 -41 19q-25 22 -25 54v11q5 39 41 65q19 13 47 20q27 6 63 1q19 -3 38 -11
q12 46 19 103q6 45 10 95l10 100q9 78 23 152q15 74 43 130q26 54 69 86q41 31 102 31h6q36 -1 61 -14q26 -13 42 -34q35 -43 31 -105t-39 -103q-15 -18 -34 -29q-20 -12 -44 -13zM142 93q-17 2 -31 -2t-25 -12q-19 -15 -23 -38q-5 -22 9 -35q8 -6 21 -8q12 -2 31 2
q42 10 61 69l3 9q-23 12 -46 15z" />
    <glyph glyph-name="M" unicode="M" horiz-adv-x="1247" 
d="M621 691q-2 -41 0 -115q2 -75 9 -158q4 -43 9 -85q5 -43 11 -81q12 -70 30 -115q17 -46 39 -41q7 1 16 16t21 41q21 48 46 125t48 161q23 85 40 166t20 134q13 10 46 11q33 0 60 -14q11 -6 20 -15t13 -22q-2 -8 -4 -32q-2 -23 -4 -57q-4 -63 -7 -152q-3 -88 -2 -176
q2 -110 13 -195t38 -91q16 -4 30 0q14 5 27 16t24 28q12 17 21 36q18 36 29 74t17 59q13 3 20 3q6 1 15 -4q-2 -11 -7 -29q-5 -17 -11 -38q-13 -38 -33 -81q-20 -42 -49 -71q-20 -18 -43 -27q-14 -6 -31 -6q-10 0 -20 2q-48 10 -79 64q-30 55 -47 130q-10 39 -16 81t-9 83
q-7 77 -7 143q1 66 3 97q-1 -6 -5 -23t-10 -41q-11 -46 -28 -109q-18 -63 -39 -126q-27 -79 -58 -140q-31 -60 -62 -65q-23 -3 -42 6q-20 9 -37 28q-31 35 -53 97q-22 63 -37 137q-19 90 -30 181q-2 13 -3 24q-2 -15 -4 -32q-11 -86 -29 -182q-12 -63 -27 -126
q-15 -64 -34 -122q-36 -108 -87 -183q-50 -74 -120 -77h-3q-32 0 -59 21q-28 23 -47 59q-29 53 -34 123q-1 9 -1 18q0 57 26 101q17 29 46 47q28 18 70 21q30 -6 33 -45q4 -38 -16 -49q-32 12 -54 7t-35 -22q-15 -20 -20 -53q-4 -32 1 -66q8 -52 33 -93q25 -42 61 -41
q19 1 37 15q17 15 34 40q31 46 58 123t50 166q15 59 28 121q13 61 25 119q21 109 35 196q7 43 11 72q-2 16 -4 28q-5 21 -9 26q4 20 46 22h6q39 0 67 -22q9 -8 16 -20q7 -11 8 -26z" />
    <glyph glyph-name="N" unicode="N" horiz-adv-x="932" 
d="M745 -42q-55 12 -71 78q-17 67 -13 158q1 48 7 101q5 53 11 104q5 43 10 83t8 76q5 65 1 109q-5 44 -30 48q-34 6 -65 -27q-32 -33 -60 -86q-14 -29 -28 -61q-13 -33 -25 -66q-22 -64 -36 -123q-15 -60 -19 -94q-6 -40 -19 -122q-14 -81 -44 -152q-21 -48 -51 -80
q-30 -33 -73 -36h-11q-25 0 -45 8q-25 9 -44 27q-20 19 -32 45q-13 26 -18 54q-5 25 -5 49q0 29 7 58q13 53 48 80q18 13 42 17q23 4 53 -6q8 -3 12 -8q5 -5 7 -12q6 -20 -5 -43q-12 -24 -21 -20q-19 20 -34 26q-15 7 -27 2q-23 -9 -32 -50q-10 -40 -3 -85q4 -24 13 -47
q9 -22 23 -39q14 -16 32 -25q19 -8 43 -6q15 1 28 14q14 14 24 37q20 44 32 115t18 152q3 53 4 108q2 55 1 106q-2 96 -10 168q-9 72 -21 89q20 32 62 41q43 10 61 -13q1 -22 2 -49q2 -26 2 -53q1 -50 1 -93q-1 -43 -2 -57l9 30q6 19 14 44q17 47 44 102q27 54 64 88
q20 18 42 27q17 8 37 8q5 0 10 -1q50 -5 77 -40t38 -89q12 -56 10 -127q-3 -71 -12 -144q-5 -48 -13 -94q-7 -46 -13 -87q-12 -77 -17 -129q-4 -51 13 -56q15 -4 30 0q14 5 28 17t26 29q13 18 24 38q20 38 34 77q13 38 18 57q11 0 18 1t17 -4q-2 -10 -6 -26q-5 -17 -12 -37
q-13 -37 -36 -81q-23 -43 -54 -71q-21 -20 -46 -29q-24 -9 -52 -3z" />
    <glyph glyph-name="O" unicode="O" horiz-adv-x="802" 
d="M551 61q40 -9 73 -3t59 21q48 27 73 68q25 42 29 59q12 0 36 -1q-4 -21 -33 -71q-29 -51 -88 -84q-32 -18 -73 -26q-42 -8 -93 2q-11 2 -22 5l-2 -2q-36 -39 -82 -61q-43 -21 -93 -21h-7q-46 1 -85 18t-69 46q-57 54 -85 140q-28 84 -28 174v5q1 95 32 184q32 90 96 147
q40 35 93 54q42 15 92 15q17 16 37 27q34 19 79 19h3q34 -1 61 -18q26 -17 46 -47q36 -55 48 -144q13 -89 2 -186q-11 -99 -46 -194q-26 -71 -65 -123zM333 693q-28 -10 -52 -31q-44 -39 -71 -107q-28 -68 -39 -147q-8 -52 -8 -105t7 -102q14 -91 55 -156q40 -65 108 -68
q46 -3 84 40q20 22 36 52q-14 14 -27 30q-45 54 -75 134q-31 80 -43 165q-12 88 -2 170q9 77 43 129q-8 -1 -16 -4zM482 130q15 37 27 80q12 42 21 88q20 102 22 204q3 102 -13 168q-9 35 -23 56q-15 21 -35 21q-27 2 -48 -14q-20 -16 -34 -45q-27 -53 -32 -139
q-6 -86 7 -175q6 -40 16 -78q9 -38 22 -72q24 -64 59 -109q2 -3 3 -5z" />
    <glyph glyph-name="P" unicode="P" horiz-adv-x="724" 
d="M213 -6q12 6 25 88q12 81 23 184l8 90q4 45 7 87q6 78 9 135q3 58 2 68q9 29 38 29h6q35 -3 47 -25q-4 -2 -8 -21q-3 -19 -6 -49q-7 -57 -12 -143q-6 -78 -10 -157q28 3 73 12q59 12 98 58q22 25 32 61q11 37 3 88q-12 80 -44 132q-32 53 -74 81q-52 33 -110 31
q-59 -3 -108 -39q-27 -20 -49 -49q-21 -29 -36 -67q-8 -23 -9 -44q-2 -21 2 -38q8 -32 31 -46q23 -15 50 0q4 -22 6 -50t-12 -44q-7 -9 -21 -11q-14 -3 -36 2q-46 20 -75 91q-12 31 -12 66q-1 47 21 103q19 47 53 79q35 33 79 50q56 23 120 23q29 0 61 -5q98 -15 169 -76
q36 -32 61 -75t32 -97q4 -23 4 -45q0 -77 -43 -126q-54 -63 -128 -88q-40 -13 -80 -16q-13 -1 -25 -1q-19 0 -36 2q-6 -103 -10 -188q-6 -93 -11 -112q-14 -9 -31 -9q-14 0 -32 7q-36 16 -42 54z" />
    <glyph glyph-name="Q" unicode="Q" horiz-adv-x="699" 
d="M303 242q-57 -39 -119 -20t-100 75q-21 31 -33 71q-9 32 -9 67q0 9 1 17q4 78 47 148q42 71 112 112q38 22 82 33q32 8 67 8q14 0 27 -1q89 -8 140 -46q51 -37 72 -94q24 -69 10 -155q-13 -87 -53 -172q-20 -45 -46 -88q-27 -42 -57 -79q-38 -47 -80 -83q52 -43 104 -97
q64 -67 125 -136q61 -70 113 -113q28 -23 53 -35t46 -9q21 4 39 14q17 11 29 26q30 35 31 83q1 47 -35 74q14 15 41 29q28 13 60 -12q14 -32 14 -63q0 -23 -8 -45q-19 -53 -61 -89q-23 -19 -50 -32t-55 -17q-21 -4 -41 -3q-43 0 -83 15q-57 23 -108 64q-77 64 -140 151
q-64 88 -119 150q-4 4 -7 8q-58 -37 -113 -37q-35 0 -57 9q-23 9 -34 23q-27 34 2 76q28 42 96 41q56 -2 115 -43q37 42 71 100q43 75 73 159q30 86 39 170q9 83 -14 141q-15 37 -43 60q-29 23 -74 28q-72 7 -126 -34q-54 -42 -85 -101q-16 -32 -26 -66q-9 -34 -11 -65
q-3 -63 20 -117q23 -53 63 -66q21 -7 46 1t52 35q16 -13 10 -36q-6 -22 -13 -34zM246 5q18 9 35 23q-10 9 -20 17q-28 21 -55 22q-39 1 -63 -22q-24 -22 -9 -39q6 -8 21 -12q15 -5 40 -4q25 0 51 15z" />
    <glyph glyph-name="R" unicode="R" horiz-adv-x="690" 
d="M135 4q12 6 26 86q11 66 22 148q-3 0 -6 1q-47 4 -52 39v10q0 29 26 46q11 7 25 10q9 2 18 3l2 16q4 45 8 87q6 78 10 135q3 58 1 68q13 27 40 27h9q34 -5 41 -27q-3 -2 -6 -21q-3 -18 -7 -49q-6 -56 -13 -142q-4 -57 -8 -115q10 -7 21 -15q12 -11 23 -23q23 6 48 15
q20 8 40 19t37 26q27 24 42 58q15 35 10 84q-7 74 -35 125q-28 50 -66 78q-47 33 -102 33t-102 -32q-26 -17 -47 -44q-21 -26 -36 -61q-26 -60 -1 -100q25 -41 64 -22q3 -21 4 -47t-13 -40q-7 -8 -20 -10t-34 4q-42 20 -66 88q-9 25 -9 54q0 47 25 102q35 81 116 111
q55 21 113 21q27 0 54 -4q47 -8 90 -28q44 -21 78 -53q32 -30 54 -71q21 -42 26 -93q1 -10 1 -20q0 -35 -12 -63q-15 -37 -43 -65q-22 -23 -51 -40q-28 -17 -58 -28q-43 -17 -83 -25q11 -14 22 -30q33 -52 60 -117q28 -66 51 -133q15 -43 30 -85q14 -43 28 -80
q25 -70 51 -116q25 -46 55 -48q25 -1 48 26q24 27 21 53q-1 9 -6 17t-14 14q6 19 18 33q12 13 32 5q16 -18 17 -42v-7q1 -21 -7 -41q-13 -36 -45 -63q-30 -25 -66 -25h-3q-55 1 -95 32q-40 30 -70 79q-32 52 -55 117q-23 66 -42 134q-13 44 -24 87q-12 43 -24 82
q-19 57 -41 99q-7 -2 -15 -4q-8 -103 -14 -188q-8 -93 -13 -111q-13 -8 -29 -8t-34 8q-36 18 -40 56zM187 274l5 46q-37 -1 -38 -26q-1 -26 32 -32z" />
    <glyph glyph-name="S" unicode="S" horiz-adv-x="697" 
d="M561 437q-37 -29 -79 -8q-41 20 -44 58q25 6 42 18t28 28q10 17 14 36t1 39q-6 36 -32 67q-26 30 -70 38q-74 14 -130 -30t-56 -141q0 -30 14 -55q13 -24 36 -45q41 -41 102 -76q62 -35 114 -80q43 -37 71 -86q25 -43 25 -102q0 -7 -1 -15q-2 -52 -19 -91
q-18 -39 -45 -66q-51 -51 -127 -65q-40 -7 -79 -7q-36 0 -70 6q-54 9 -96 44q-43 34 -68 80q-32 57 -32 120q0 13 1 25q7 77 80 118q43 9 58 -32t0 -82q-45 17 -56 -30q-12 -47 9 -103q7 -18 18 -36q10 -17 24 -31q15 -15 32 -25q18 -10 39 -14q54 -11 104 10q50 20 83 65
q17 24 28 54q10 30 12 66q2 47 -25 82q-28 36 -69 67q-27 21 -57 41q-30 21 -59 43q-53 41 -93 94q-39 53 -36 131q2 72 43 120t100 69q31 11 66 13q10 1 20 1q24 0 48 -4q74 -13 116 -64q42 -50 48 -113q3 -33 -5 -67t-28 -65z" />
    <glyph glyph-name="T" unicode="T" horiz-adv-x="739" 
d="M873 749q-12 8 -35 10q-22 2 -53 -1q-56 -4 -134 -20q-78 -17 -162 -34q-103 -22 -203 -38q-67 -11 -120 -11q-25 0 -47 2q-37 4 -62 17t-34 38q-2 7 -2 16q0 14 7 30q13 26 50 24q14 0 11 -11q-3 -12 -14 -16q-12 8 -24 -4q-11 -11 1 -28q10 -16 78 -7q67 10 161 31
q50 12 105 25q55 14 109 28q103 26 192 47q89 20 131 22h4q11 0 20 -3q11 -4 18 -11q23 -21 23 -57v-1q-1 -36 -20 -48zM363 18q16 0 27 78q11 77 17 181q5 81 8 164q2 82 3 138q0 30 -1 50q0 19 -1 24q10 12 30 23q13 8 30 8q9 0 18 -2q-4 -12 -3 -100q0 -88 1 -200
q2 -88 3 -177q1 -88 1 -150v-56q-1 -22 -2 -30q-18 -20 -49 -22h-5q-27 0 -48 15q-12 9 -20 23q-9 14 -9 33z" />
    <glyph glyph-name="U" unicode="U" horiz-adv-x="927" 
d="M87 347q16 -5 23 -19q6 -13 3 -18q-24 -9 -35 -36t1 -49q5 -10 14 -17q10 -7 24 -10q53 -11 105 32q3 3 7 6v3q-7 47 -10 96q-5 111 13 219t59 174q22 35 50 53q24 16 52 16q6 0 13 -1q41 -5 56 -46q16 -41 12 -102q-3 -33 -11 -69q-8 -37 -21 -74q-28 -86 -78 -166
q-20 -32 -41 -59l2 -31q7 -102 25 -168q10 -36 23 -57t30 -22q38 -2 72 30q33 33 61 84q15 27 28 57q13 31 24 62q22 61 35 117t17 91q6 66 13 132q6 66 11 132q11 18 36 20q24 2 47 -8q16 -6 27 -17q12 -12 16 -27q-15 -16 -25 -107q-11 -91 -14 -201q-3 -88 0 -172
q3 -85 12 -139q5 -29 12 -46t16 -17q29 -2 51 35q23 38 39 83q11 30 18 57q8 27 12 42q11 0 34 -1q-4 -23 -21 -79t-45 -103q-18 -32 -41 -53q-21 -20 -46 -20h-4q-23 2 -42 13q-19 12 -35 31q-31 36 -48 89q-18 54 -26 99q-4 24 -6 42q-1 18 -1 28q-2 -10 -8 -26
q-5 -17 -13 -40q-15 -41 -40 -90t-60 -85q-23 -24 -49 -38q-27 -14 -57 -12q-55 4 -94 55q-39 52 -61 130q-7 24 -13 51q-25 -15 -51 -22q-35 -11 -72 -3q-26 6 -43 19t-28 29q-14 24 -14 49q0 15 5 31q13 42 55 43zM361 422q20 42 35 84q23 64 34 123q12 58 6 96
q-3 20 -11 32q-8 13 -22 15q-23 4 -40 -39q-16 -42 -27 -111q-5 -38 -9 -80q-3 -43 -5 -88q-2 -53 -2 -106q22 35 41 74z" />
    <glyph glyph-name="V" unicode="V" horiz-adv-x="741" 
d="M204 725q-36 1 -61 -41q-25 -41 -33 -93q-5 -34 -1 -66q5 -32 20 -53q13 -16 35 -22q22 -5 54 7q20 -11 16 -49q-3 -39 -33 -45q-42 3 -70 21q-29 18 -46 46q-25 44 -25 101q0 9 1 18q5 69 34 122q19 36 48 58q28 22 62 21q56 -2 94 -62q39 -61 66 -148q15 -47 26 -98
q12 -51 22 -102q8 -41 15 -80q7 -40 14 -75q12 -64 24 -106q12 -41 27 -43q4 0 9 12q4 13 9 36q8 44 18 116q11 72 22 155q14 101 32 203q17 103 37 172q11 38 23 63q12 24 26 30q7 4 14 4h1q8 0 15 -4q20 -9 33 -37q8 -18 8 -32q0 -6 -2 -12q-17 -2 -31 -24t-26 -58
q-23 -68 -42 -170t-39 -205q-16 -85 -35 -158q-18 -74 -42 -118q-12 -24 -26 -37t-30 -13h-1q-55 1 -86 66q-32 65 -50 159q-9 50 -17 105q-7 55 -13 110q-5 44 -11 87q-5 42 -11 79q-11 70 -28 114q-17 45 -46 46z" />
    <glyph glyph-name="W" unicode="W" horiz-adv-x="993" 
d="M174 716q-36 2 -63 -36t-36 -85q-6 -31 -3 -61q3 -29 18 -48q13 -15 34 -20q22 -5 54 6q20 -12 15 -50q-5 -39 -35 -43q-42 4 -70 22t-43 45q-22 38 -22 86q0 13 1 26q8 64 39 113q20 32 49 52t63 18q46 -4 76 -46q30 -43 50 -108q10 -35 18 -75t14 -81q13 -95 20 -187
q7 -93 17 -152q5 -32 12 -51q6 -19 16 -19q14 -2 32 56q19 58 38 136q15 61 28 123t22 105q4 23 8 38q3 15 3 20q17 30 56 18q38 -12 44 -39q4 -24 12 -91q9 -67 21 -143q5 -33 10 -64q6 -32 12 -61q11 -53 23 -89q12 -35 24 -35q9 0 17 21t16 57q15 68 30 175
q16 107 36 216q16 89 35 169q20 79 45 128q13 27 29 43q15 15 32 17h1q23 0 39 -21q7 -9 7 -24q0 -20 -12 -51q-39 11 -67 -50q-27 -62 -48 -157q-11 -51 -22 -108q-10 -57 -21 -113q-8 -46 -17 -91q-9 -44 -18 -83q-18 -73 -39 -119q-21 -47 -50 -46q-23 0 -41 12
q-19 11 -35 32q-21 28 -37 69q-15 40 -26 85q-7 29 -12 58t-9 55q-7 49 -10 84t-5 40q-2 -8 -13 -65q-10 -58 -28 -128q-7 -31 -17 -61q-9 -31 -19 -58q-20 -51 -45 -86t-55 -36q-25 0 -43 13q-18 12 -32 36q-24 42 -35 114t-15 153q-3 54 -5 109q-1 54 -4 105
q-4 93 -17 158q-12 65 -47 68z" />
    <glyph glyph-name="X" unicode="X" horiz-adv-x="974" 
d="M424 742q12 -4 27 -21q14 -16 30 -42q30 -47 64 -120q28 -60 58 -126q43 87 86 167q53 96 101 155q26 31 50 49q24 17 46 17q29 0 37 -26q2 -8 2 -14q0 -15 -12 -23q-31 10 -71 -42t-87 -139q-25 -47 -52 -101q-27 -55 -55 -112l-8 -16q11 -23 22 -47q24 -53 46 -101
q43 -90 80 -152q36 -61 62 -63q24 -2 45 38q22 40 37 86q10 30 17 57q7 26 10 38q8 2 19 3q10 0 18 -2q-2 -9 -6 -26t-10 -39q-10 -40 -29 -86q-18 -47 -44 -77q-14 -15 -29 -23q-13 -7 -28 -7h-6q-36 4 -70 27q-34 24 -66 61q-44 51 -84 123q-21 37 -41 75l-5 -11
q-36 -72 -73 -138q-68 -122 -137 -205q-66 -79 -128 -79h-6q-47 3 -78 51q-30 48 -37 108q-1 15 -1 30q0 25 4 50q8 40 30 70q17 25 46 39q28 15 68 13q27 -8 27 -44q-1 -36 -20 -45q-29 14 -49 11q-21 -3 -35 -17q-17 -17 -24 -47t-5 -62q2 -49 22 -90q20 -42 54 -44
q22 -1 48 24q26 26 55 70q54 83 117 214q44 90 88 182q-41 88 -75 171q-37 86 -68 139q-16 28 -31 43q-15 16 -28 15q-6 7 -6 15q0 17 21 34q20 17 43 17q12 0 24 -5z" />
    <glyph glyph-name="Y" unicode="Y" horiz-adv-x="842" 
d="M80 346q15 -5 20 -19t2 -19q-22 -7 -31 -32q-10 -25 0 -46q5 -9 13 -16q9 -7 22 -9q49 -11 98 29q-10 50 -12 103q-3 53 1 106t14 101q19 90 59 148q36 53 88 53q6 0 12 -1q20 -2 33 -15q13 -12 21 -32q13 -37 7 -95q-6 -57 -28 -121q-25 -77 -70 -150q-17 -27 -34 -49
q1 -17 3 -34q9 -85 27 -144t47 -62q51 -4 96 60q45 63 75 141q21 52 34 102q13 49 16 80q6 60 7 99q0 39 7 73q6 13 14 19q9 5 19 6q22 0 45 -23q22 -22 28 -48q-11 -10 -18 -42q-7 -33 -10 -82q-7 -92 -7 -224q-1 -74 -3 -148q2 2 4 3q26 12 49 27q36 22 62 52t36 74h35
q-7 -34 -21 -60t-34 -47q-37 -37 -87 -61l-45 -22l-4 -80q-3 -57 -8 -111q-6 -54 -14 -102q-16 -88 -45 -143q-30 -56 -80 -56q-77 0 -113 63q-36 64 -30 146q4 44 20 89q16 44 45 83q34 45 82 72q29 17 58 31v5v73q0 65 -1 110v54q-2 -9 -7 -23q-6 -15 -14 -33
q-15 -35 -41 -77q-25 -41 -58 -71q-21 -20 -46 -32q-25 -11 -52 -10q-29 2 -52 17q-24 14 -43 39q-36 45 -55 118l-6 22q-22 -12 -44 -18q-32 -9 -65 -2q-19 4 -33 14q-14 9 -23 21q-20 25 -20 54q0 13 4 26q11 45 51 46zM541 -51q-38 -26 -63 -65t-37 -79q-12 -41 -13 -78
q-2 -70 24 -120q27 -50 66 -52q12 -1 22 16q9 17 16 46q13 55 19 143q7 88 9 178q0 20 1 39q-23 -13 -44 -28zM324 404q18 37 32 76q15 38 24 74q17 67 15 115q-2 49 -31 53q-12 2 -21 -8q-10 -11 -18 -31q-14 -38 -23 -102q-8 -65 -10 -139q-1 -49 0 -98q17 29 32 60z" />
    <glyph glyph-name="Z" unicode="Z" horiz-adv-x="679" 
d="M96 762q3 -12 17 -21q13 -8 34 -15q38 -11 95 -15t117 -4q60 1 115 6q54 5 84 10q33 -1 43 -24t-11 -45q-41 -42 -110 -137q-70 -95 -149 -206q-42 -60 -86 -120q-43 -61 -84 -116q55 10 123 -16q67 -26 127 -53q31 -14 58 -25q27 -10 46 -11q17 -1 26 9t6 36
q32 6 50 -12q14 -13 14 -29q0 -6 -2 -12q-3 -10 -11 -20q-9 -9 -23 -17q-49 -17 -96 -17h-2q-47 1 -92 10q-28 6 -55 15q-27 8 -52 16q-45 15 -80 23q-36 9 -57 -5q-37 4 -51 34q-14 31 15 69q110 147 204 297q93 150 208 263q-76 -12 -170 -15q-93 -4 -169 6q-42 5 -74 14
q-32 10 -50 25q-5 6 -8 14t-3 17q-1 4 -1 8q0 29 19 54q12 16 22 16q7 1 13 -7z" />
    <glyph glyph-name="bracketleft" unicode="[" horiz-adv-x="316" 
d="M91 837q89 0 133 -1q2 -7 2 -15t-4 -17q-35 4 -53 6q-15 -140 -20 -305t-1 -325q2 -87 7 -168q4 -81 11 -153q43 2 64 3q4 -7 4 -17v-3q-1 -11 -1 -17q-98 -1 -148 -1q-12 145 -15 316q-2 64 -2 127q0 108 4 216q2 92 7 182q5 89 12 172z" />
    <glyph glyph-name="backslash" unicode="\" horiz-adv-x="549" 
d="M452 -36q-4 6 -17 31t-32 62q-36 70 -88 172l-104 204q-23 45 -45 88q-23 43 -42 81q-37 71 -63 119q-26 47 -31 54q20 11 39 11h9q23 -4 35 -10q1 -4 8 -21q7 -16 19 -42q23 -48 58 -121q36 -74 77 -155q50 -99 101 -194t88 -153q20 -31 35 -48q14 -17 21 -15
q8 -22 8 -37q-1 -21 -14 -30q-12 -6 -25 -6q-17 0 -37 10z" />
    <glyph glyph-name="bracketright" unicode="]" horiz-adv-x="318" 
d="M88 836q88 1 132 2q13 -154 19 -328q4 -122 4 -241v-102q-2 -91 -6 -178t-11 -165q-98 1 -147 1q-1 6 -1 18v2q0 10 4 17l63 -3q13 133 18 296t0 325q-2 88 -8 171q-5 84 -13 159q-35 -4 -53 -6q-4 9 -4 17t3 15z" />
    <glyph glyph-name="asciicircum" unicode="^" horiz-adv-x="486" 
d="M247 763q32 -43 69 -103q36 -59 68 -104q18 -23 32 -39q15 -15 26 -18v-1q0 -14 -5 -24t-14 -17q-21 -16 -53 -13q-32 2 -51 21q-3 10 -9 27q-5 17 -12 38q-12 38 -27 84t-27 84q-39 -80 -117 -239q-12 -20 -29 -20q-5 0 -10 2q-23 9 -39 25q27 22 61 73q35 51 68 107
q19 31 36 61q18 30 33 56z" />
    <glyph glyph-name="underscore" unicode="_" horiz-adv-x="431" 
d="M433 23q8 -10 12 -26q2 -9 2 -17q0 -7 -1 -14q-25 4 -62 4q-37 1 -80 0q-80 -1 -165 -4q-37 -1 -67 -1q-42 0 -73 2q-20 8 -20 19q0 5 4 11q13 18 23 29q12 -6 86 -6q75 1 158 2q56 1 105 2q50 1 78 -1z" />
    <glyph glyph-name="grave" unicode="`" horiz-adv-x="147" 
d="M29 723q-8 8 -9 28v3q0 19 12 28q5 4 13 4h2q7 0 17 -4q38 -17 56 -57t22 -73q-1 -7 -7 -8q-3 -1 -6 -1q-4 0 -9 1q-10 27 -43 50q-32 23 -48 29z" />
    <glyph glyph-name="a" unicode="a" horiz-adv-x="444" 
d="M288 275q-3 -22 -11 -34t-19 -16q-21 -8 -44 3q-22 11 -29 24q12 6 23 29q12 23 5 41q-2 8 -9 13q-7 6 -20 8q-31 4 -59 -30q-28 -35 -46 -83q-22 -59 -22 -118q-1 -59 34 -72q21 -7 43 15q21 23 36 58q9 19 14 39q6 20 8 39q19 24 52 1t34 -41q-10 -17 -12 -48
q-2 -32 5 -60q5 -18 15 -31q10 -14 26 -16q19 -3 35 13q16 17 29 43q19 39 32 86q12 46 17 65q10 5 19 4q10 -1 18 -3q-2 -9 -6 -25q-4 -17 -10 -38q-12 -39 -31 -85q-20 -45 -48 -74q-14 -15 -31 -23q-14 -7 -30 -7h-7q-22 2 -39 11q-18 9 -31 22q-24 24 -36 53
q-11 28 -13 41q-5 -23 -36 -55q-31 -33 -68 -39q-16 -3 -32 1q-15 5 -29 18q-44 43 -44 111v7q2 73 36 135q22 41 56 71t74 36q23 4 43 4q50 0 76 -24q36 -34 32 -69z" />
    <glyph glyph-name="b" unicode="b" horiz-adv-x="414" 
d="M9 598q-2 21 34 35q19 8 36 7q15 0 28 -5q10 -4 17 -12q8 -8 11 -19t-10 -92q-13 -80 -26 -180q-5 -42 -10 -85q-4 -43 -5 -82q-4 -72 6 -122q9 -49 39 -51q22 -1 42 35q19 34 33 77q-24 30 -38 66q-10 25 -14 49q-4 25 1 46q5 20 19 35q13 14 38 20q26 7 44 1
q18 -7 28 -22q25 -36 11 -109q-9 -48 -28 -92q17 -16 34 -17q16 -1 29 6t23 19q19 21 29 52q10 30 14 49q12 0 37 -1q-5 -20 -20 -59q-14 -40 -42 -69q-15 -15 -35 -24q-19 -10 -44 -8q-22 2 -43 16q-2 -3 -3 -6q-24 -41 -56 -69q-32 -27 -67 -28h-2q-53 0 -83 24t-44 64
q-15 42 -15 98v2q0 55 7 114q4 38 10 77q6 38 12 74q11 67 15 118q4 50 -12 68zM222 216q2 49 -21 44q-16 -4 -8 -37q7 -29 24 -60q4 27 5 53z" />
    <glyph glyph-name="c" unicode="c" horiz-adv-x="387" 
d="M242 304q4 -16 2 -30t-9 -26q-20 -35 -58 -43q-39 -9 -32 20q26 13 31 46q6 34 -10 52q-6 6 -14 9q-7 3 -17 2q-35 -3 -49 -45t-10 -96q5 -66 35 -126t82 -64q28 -2 50 8q23 11 41 29q34 33 54 83q20 49 28 86q7 2 17 1q10 0 19 -1q-8 -39 -32 -101q-23 -61 -68 -104
q-24 -23 -55 -37q-27 -11 -58 -11q-6 0 -12 1q-41 2 -73 17q-32 14 -56 36q-44 41 -60 97q-10 36 -10 68q0 18 3 35q5 30 18 54q13 25 30 44q18 21 40 35q22 15 44 22q21 6 40 6q20 0 39 -7q37 -14 50 -60z" />
    <glyph glyph-name="d" unicode="d" horiz-adv-x="448" 
d="M210 359q3 40 4 77q4 69 4 123t-8 77q26 27 57 27q11 0 22 -3q43 -13 43 -53q1 -8 -1 -24q-1 -17 -4 -40q-5 -42 -13 -100q-9 -58 -17 -115q-8 -58 -14 -106t-7 -68q0 -13 1 -31q0 -17 2 -34q4 -33 12 -61q8 -27 22 -30q19 -3 35 14q16 16 29 43q19 39 32 85q12 47 17 66
q10 4 20 4q9 0 17 -3q-3 -16 -14 -57t-30 -84q-10 -23 -22 -44q-13 -22 -28 -37t-32 -24q-15 -7 -31 -7h-5q-19 2 -35 10q-15 9 -26 22q-21 23 -32 51q-10 28 -12 40q-5 -9 -30 -41q-24 -32 -65 -42q-45 -11 -69 -1t-39 32q-26 38 -29 76v20q0 25 4 46q3 15 7 26q4 12 5 18
q20 62 60 92q41 29 57 33q64 17 100 0q5 -3 11 -6q1 15 2 29zM180 317q-15 1 -29 -6q-14 -6 -26 -19t-22 -30q-10 -18 -17 -38q-14 -36 -18 -73q-5 -37 0 -57q5 -21 19 -43q14 -23 39 -9q24 14 49 64q24 51 31 174l1 29q-12 7 -27 8z" />
    <glyph glyph-name="e" unicode="e" horiz-adv-x="353" 
d="M222 304q5 -23 -2 -45q-7 -21 -21 -41q-32 -44 -89 -69q-19 -9 -36 -14q3 -8 6 -18q12 -42 33 -74q12 -17 26 -28t30 -13q27 -1 48 9q22 11 40 30q33 34 52 84q19 51 27 87q7 1 17 1q10 -1 19 -2q-8 -38 -30 -99q-23 -60 -66 -104q-23 -23 -53 -36q-26 -12 -58 -12h-10
q-74 5 -114 47q-41 42 -56 96q-8 28 -9 57v8q0 24 5 45q16 80 56 110t65 37q16 5 33 5q21 0 43 -8q37 -15 44 -53zM83 176q30 18 51 53q21 36 24 54q5 29 -3 50q-8 22 -40 -2q-12 -9 -21 -23q-8 -15 -13 -31q-10 -30 -12 -59q-3 -28 -2 -36q0 -6 1 -13q8 2 15 7z" />
    <glyph glyph-name="f" unicode="f" horiz-adv-x="293" 
d="M-30 570q5 13 13 22q8 8 18 12q11 5 23 5q19 0 40 -12q33 -19 36 -55q6 -92 -4 -220q-10 -129 -22 -259v-1q40 2 70 11q64 20 91 60t36 70q9 2 18 1q9 0 19 -1q-22 -84 -94 -136q-66 -47 -144 -40v-5q38 -22 72 -81q43 -73 61 -157q12 -57 10 -110q-3 -53 -25 -90
q-14 -23 -37 -37t-56 -16h-9q-70 0 -97 73q-29 78 -31 198q-1 65 3 138q3 42 5 83q-10 3 -20 5q-17 6 -17 19q0 4 1 8q6 20 20 20l19 -4l1 16q11 142 17 273q6 132 -17 210zM54 -179q-8 -114 2 -182q5 -37 17 -57t32 -18q25 2 36 67t-1 146q-7 44 -22 86q-15 43 -39 78
q-7 10 -15 19q-6 -72 -10 -139z" />
    <glyph glyph-name="g" unicode="g" horiz-adv-x="439" 
d="M291 269q-1 -12 -6 -21q-4 -8 -11 -15q-22 -18 -53 -15t-37 26q11 13 21 36t4 40q-2 7 -9 13q-6 5 -17 7q-26 5 -52 -27q-27 -33 -47 -79q-24 -56 -33 -113q-8 -56 12 -70q22 -15 49 1q28 16 50 46q11 16 19 35q9 19 12 38q3 14 18 20q15 5 31 3q20 -2 35 -12
q15 -11 7 -27q-9 -16 -14 -101l-2 -30q3 2 7 5q50 34 88 76q20 22 34 48q15 25 22 56q10 4 19 3q9 -2 17 -4q-11 -52 -40 -91t-67 -71q-39 -32 -83 -60q-5 -57 -11 -120q-5 -44 -12 -88q-6 -43 -15 -84q-17 -73 -44 -123q-27 -51 -69 -52h-2q-56 0 -89 50q-35 50 -35 120
q-1 37 10 75q11 39 34 74q25 37 62 67q38 30 80 58q3 2 6 5q3 36 5 66q2 49 2 58q-8 -20 -21 -37q-13 -18 -29 -32q-30 -26 -68 -31q-37 -6 -69 23q-36 34 -36 93v14q5 70 37 132q22 40 53 71q31 30 66 37q28 5 50 5h16q27 -3 47 -12q36 -17 47 -45q12 -29 11 -41zM147 -93
q-25 -20 -47 -42t-38 -48q-14 -23 -18 -58t0 -72q6 -55 26 -99t46 -44q12 0 24 67t22 155q4 38 8 77q3 39 6 75q0 6 1 12q-15 -11 -30 -23z" />
    <glyph glyph-name="h" unicode="h" horiz-adv-x="422" 
d="M86 609q2 -18 0 -63q-2 -46 -6 -102q-3 -29 -5 -59t-5 -58q-4 -52 -8 -91q-3 -38 -3 -48q3 10 25 55q22 46 57 74q12 10 25 15q13 6 26 6q23 -1 38 -15q14 -15 22 -38q9 -25 13 -56q3 -32 4 -65q2 -61 3 -111q1 -51 21 -55q24 -4 46 33q22 38 37 81q10 30 17 56
q7 25 10 37q7 4 18 4q11 -1 17 -6q-2 -11 -7 -28q-4 -17 -10 -37q-11 -37 -29 -78t-44 -69q-18 -18 -39 -28t-47 -6q-28 4 -45 21q-16 16 -25 40q-8 21 -10 46q-3 26 -3 53q0 61 3 114t-24 55q-16 2 -37 -28q-20 -30 -37 -66q-11 -24 -18 -46t-8 -35q-3 -43 -3 -74t-1 -68
q-10 -23 -52 -29q-7 -1 -12 -1q-30 0 -31 26q5 27 11 108q5 82 8 176q3 75 3 147q1 72 -2 120q-2 27 -4 43q-3 17 -7 22q2 19 31 39q22 15 44 16q6 0 13 -2q9 -2 17 -8t13 -17z" />
    <glyph glyph-name="i" unicode="i" horiz-adv-x="228" 
d="M91 345q-3 -33 -9 -72t-11 -78q-10 -72 -8 -130t39 -65q23 -4 44 32q21 37 37 80q10 29 17 55q7 25 10 37q7 2 18 2q11 1 18 -2q-3 -16 -14 -56q-10 -41 -28 -83q-9 -23 -21 -43q-12 -21 -26 -36q-13 -14 -29 -21q-12 -6 -25 -6h-9q-48 6 -74 28t-37 53q-9 26 -10 56v13
q0 24 2 47q6 56 16 106q10 49 -2 67q10 21 52 30q11 3 20 3q24 0 30 -17zM4 502q4 18 -6 33q-7 10 -7 27l2 16q4 27 34 34q16 3 27 3t18 -3q19 -8 30 -32q7 -16 7 -32q0 -8 -2 -16q-6 -25 -49 -35q-17 -4 -29 -4q-18 0 -25 9z" />
    <glyph glyph-name="j" unicode="j" horiz-adv-x="266" 
d="M-17 314q3 10 10 15q6 6 14 8q6 2 12 2q18 0 39 -14q27 -19 28 -43q-6 -3 -10 -19q-3 -16 -5 -42q-3 -47 -3 -120q0 -48 -1 -100q45 33 89 68q69 54 91 140q10 4 19 3q9 0 17 -3q-8 -34 -22 -62q-15 -28 -35 -52q-37 -45 -86 -79q-38 -26 -74 -51q-1 -9 -1 -18
q-1 -53 -5 -106q-4 -54 -12 -102q-14 -90 -46 -151q-30 -59 -88 -59h-3q-31 1 -52 16t-32 41q-14 30 -14 69q0 23 4 48q12 71 57 135q26 37 62 67l40 32v18q2 53 3 103q1 92 2 163q0 72 2 93zM-37 -113q-37 -31 -62 -70q-15 -23 -23 -57t-10 -69q-2 -53 10 -95t37 -42
q9 0 16 12t13 34q11 40 18 107q6 66 10 144q2 23 3 46zM-5 488q4 18 -6 33q-6 10 -6 27q0 8 1 16q4 27 35 34q15 3 27 3q10 0 17 -3q19 -8 30 -32q7 -16 7 -32q0 -8 -2 -16q-6 -25 -48 -35q-18 -4 -30 -4q-18 0 -25 9z" />
    <glyph glyph-name="k" unicode="k" horiz-adv-x="421" 
d="M85 600q2 -18 0 -61q-3 -43 -7 -95q-4 -51 -8 -103q-5 -51 -8 -87q-2 -20 -3 -33q-2 -13 -2 -18q2 6 14 31q12 26 31 55q10 15 22 29t26 24q12 9 27 14q14 4 29 1q18 -3 29 -13q12 -9 18 -23q6 -13 7 -30q0 -17 -4 -35q-9 -33 -33 -63q-24 -29 -58 -40q24 -13 39 -48
q15 -34 35 -64q10 -16 23 -28q12 -11 29 -15q25 -4 47 33q21 38 37 81q10 30 17 56q7 25 9 37q8 4 19 4q11 -1 17 -6q-5 -21 -15 -59q-11 -39 -29 -78q-9 -21 -21 -41q-11 -19 -26 -34q-17 -18 -38 -28t-47 -6q-17 3 -33 14q-15 12 -29 28q-32 38 -56 84t-47 49q-2 3 -1 9
q1 7 5 12q16 5 33 24q16 19 28 43q15 28 19 55q5 26 -9 30q-15 4 -39 -27q-24 -30 -43 -68q-14 -25 -22 -48q-9 -24 -10 -36q-3 -43 -4 -78t-3 -72q-9 -24 -49 -28q-5 -1 -10 -1q-30 0 -32 27q4 22 8 77t7 125q2 37 3 77q1 39 1 77q1 90 -2 159q-4 70 -13 81q2 18 32 39
q24 17 47 17q6 0 12 -1q9 -2 17 -8t14 -17z" />
    <glyph glyph-name="l" unicode="l" horiz-adv-x="239" 
d="M113 566q-2 -41 -11 -110q-8 -69 -15 -145q-3 -39 -6 -79q-3 -39 -4 -74q-1 -66 6 -111t29 -49q23 -4 45 33q21 37 36 81q11 29 18 55q7 25 10 37q8 2 18 3q11 0 18 -3q-2 -8 -5 -25q-4 -16 -10 -37q-11 -38 -29 -83q-18 -44 -45 -72q-13 -15 -29 -22q-12 -6 -26 -6h-7
q-46 6 -73 34q-28 28 -41 71q-14 45 -16 101q-1 20 -1 40q0 38 2 76q3 39 7 77t8 73q7 65 9 113t-12 63q9 23 40 26q5 1 11 1q25 0 46 -16q10 -8 18 -21q7 -13 9 -31z" />
    <glyph glyph-name="m" unicode="m" horiz-adv-x="656" 
d="M63 230q6 13 20 43t37 54q12 13 27 22t33 11q20 3 34 -5q15 -8 25 -22q20 -25 27 -60q8 -34 9 -50q4 14 23 54t51 69q13 12 29 20q14 7 31 7h2q22 0 37 -16t24 -41q10 -27 15 -61q6 -35 8 -71q6 -66 10 -121t23 -59q25 -4 47 33q21 38 37 81q10 30 17 55q7 26 9 38
q8 1 19 2t17 -4q-6 -21 -16 -60q-11 -38 -28 -77q-10 -21 -21 -41q-12 -19 -26 -34q-17 -19 -38 -28q-21 -10 -47 -6q-28 4 -46 22q-17 17 -27 43q-11 27 -15 61q-4 33 -5 67q-2 63 -4 114q-1 50 -25 52q-17 1 -36 -27t-34 -64q-10 -23 -17 -46q-6 -23 -7 -39q-3 -35 -3 -60
t-1 -45q-6 -17 -38 -13t-37 27q3 28 3 59q0 32 -3 63q-5 57 -18 99q-12 41 -31 39q-16 -2 -35 -27t-33 -55q-9 -21 -15 -41t-7 -34q-2 -52 2 -106q4 -55 2 -72q-15 -13 -46 -22q-8 -2 -15 -2q-20 0 -30 17q-1 18 1 77q1 60 -1 121q-2 50 -8 90q-6 39 -19 45v6q0 27 33 48
q38 23 49 -3q15 -36 22 -75q8 -39 9 -52z" />
    <glyph glyph-name="n" unicode="n" 
d="M29 357q3 -8 6 -21t6 -28q4 -28 6 -55t2 -36q5 15 24 54q19 40 50 69q14 12 29 20q15 7 31 7h2q23 0 38 -16q14 -16 24 -41q10 -27 15 -61q5 -35 8 -71q5 -66 9 -121t24 -59q24 -4 46 33q22 38 37 81q10 30 17 56q7 25 10 37q7 4 18 4q11 -1 17 -6q-2 -11 -6 -28
q-5 -17 -11 -37q-11 -37 -29 -78t-44 -69q-18 -18 -39 -28t-47 -6q-29 4 -47 22q-18 17 -29 43q-10 27 -14 60q-4 34 -5 68q-1 63 -2 113q0 51 -25 53q-16 1 -37 -27q-20 -29 -35 -64q-10 -24 -16 -47q-7 -23 -6 -39q1 -35 -1 -80q-2 -44 -4 -83q-9 -24 -41 -25h-3
q-30 0 -39 18q7 37 8 105q1 67 -4 130q-3 42 -8 75q-6 33 -13 47q3 25 33 35q29 11 45 -4z" />
    <glyph glyph-name="o" unicode="o" 
d="M152 376q19 -4 20 -17q0 -14 -9 -27q-16 1 -29 -7q-14 -8 -24 -23q-19 -28 -27 -73t-6 -91q3 -57 23 -102t56 -44q27 1 47 60q9 28 16 57l-7 10q-31 46 -47 102q-15 56 -1 95q6 17 19 28q12 12 32 16q59 15 83 -34q24 -48 19 -117q-2 -30 -9 -60q-7 -31 -18 -59
q12 -8 23 -9q16 -1 29 6q14 7 24 19q19 21 30 52t15 49q12 0 37 -1q-4 -20 -19 -60q-15 -39 -44 -68q-16 -15 -36 -24q-20 -10 -45 -8q-15 1 -30 10q-17 -32 -40 -56q-34 -37 -79 -38h-2q-47 0 -81 18q-35 17 -57 47q-16 21 -25 48q-9 26 -12 54q-2 14 -2 28q0 39 12 78
q15 53 48 90q22 24 51 38q27 13 60 13h5zM230 266q-5 38 -24 34q-13 -4 -8 -32q4 -28 19 -64l12 -28q6 51 1 90z" />
    <glyph glyph-name="p" unicode="p" horiz-adv-x="426" 
d="M441 201q-8 -33 -30 -59t-51 -46q-46 -31 -95 -50q-1 -1 -2 -3q-14 -26 -34 -45q-19 -18 -43 -28t-53 -9q-37 2 -28 33q8 31 50 46q10 4 28 9q14 55 19 116q3 54 -2 95q-6 42 -24 42q-10 0 -23 -8q-12 -8 -25 -25q-23 -30 -42 -85q-18 -55 -16 -131q1 -40 1 -92
q-1 -53 -3 -109l-2 -72q-2 -36 -3 -70q-3 -62 -7 -109q-3 -48 -6 -63q-13 -27 -50 -30h-7q-31 0 -50 23q-9 11 -12 27q-2 7 -2 15q0 11 3 24q8 0 16 16q7 15 13 43q11 50 18 132q7 81 8 169q2 110 -6 208q-9 99 -29 135q-1 17 5 28q6 12 16 19q19 13 43 14h3q22 0 32 -6
q6 -24 10 -66t5 -68q3 6 17 41q15 34 41 59q11 11 25 18q13 7 28 6q27 0 48 -11t36 -30q29 -37 34 -94q6 -58 -9 -112l-4 -10q28 13 53 30q26 18 45 38q19 21 25 45q8 0 17 1q10 0 19 -1zM167 15q-21 -7 -31 -18q-9 -11 7 -13q17 -1 30 33q-4 -1 -6 -2z" />
    <glyph glyph-name="q" unicode="q" horiz-adv-x="344" 
d="M267 252q-5 -29 -35 -42q-29 -13 -54 9q5 19 14 51t2 52q-3 6 -7 11q-5 4 -13 5q-23 2 -49 -33q-25 -35 -46 -83q-25 -59 -35 -116q-11 -57 7 -66q29 -13 69 24q40 38 51 97q9 29 52 16q43 -14 40 -33q-14 -12 -21 -88q-7 -77 -6 -169q0 -40 2 -80q2 -39 5 -74
q7 -66 18 -108t28 -35v-3q0 -12 -4 -23t-11 -19q-21 -25 -57 -25h-1q-37 1 -52 29q-8 44 -10 101q-3 57 -3 116q0 39 1 77t3 72q3 64 5 109q3 44 3 53q-3 -8 -20 -34t-47 -41q-16 -9 -35 -12q-19 -2 -40 5q-57 21 -63 88q-1 11 -1 22q0 56 24 112q19 46 50 83t69 53
q32 14 59 14q17 0 32 -5q40 -14 60 -42q11 -16 15 -33q5 -18 1 -35z" />
    <glyph glyph-name="r" unicode="r" horiz-adv-x="352" 
d="M46 342q35 0 77 8q43 8 67 0q10 -4 15 -12t3 -23q-6 -36 -8 -74t0 -75q2 -67 13 -115t26 -50q20 -2 38 34q19 37 33 79q9 29 15 53q7 25 10 37q8 2 18 2q11 1 18 -2q-3 -16 -13 -57q-11 -40 -28 -84q-10 -23 -21 -44q-12 -21 -26 -37q-13 -15 -28 -23q-13 -8 -28 -8
q-2 0 -4 1q-45 3 -82 28q-38 25 -43 59q-4 27 -4 56t2 58q4 52 11 92q6 41 -1 47l-36 6q-23 5 -31 5q-3 -10 -10 -45q-7 -36 -13 -60q-7 -1 -17 0q-9 0 -19 1q5 24 14 62q8 37 9 48q-22 11 -35 30t-13 36v2q0 30 11 48q12 20 24 22q4 1 8 1q7 0 13 -2q8 -4 15 -12
q15 -17 18 -47q3 -31 2 -45z" />
    <glyph glyph-name="s" unicode="s" horiz-adv-x="349" 
d="M43 322q18 -9 39 -24q20 -14 41 -32q38 -32 69 -74q31 -43 37 -87q0 -6 1 -12q35 21 62 49q32 31 39 64q11 3 19 4q9 0 18 -3q-4 -25 -20 -49q-15 -24 -37 -45q-36 -34 -79 -59q-1 -17 -3 -32q-6 -35 -20 -58q-26 -44 -70 -53q-18 -4 -34 -4q-23 0 -41 8q-33 13 -33 41
t24 53q13 14 33 25q12 7 27 12q1 6 2 11q3 20 -1 43t-11 46q-14 42 -35 77q-22 36 -38 47q-3 -10 -6 -31q-2 -21 -9 -45q-8 -2 -18 -1q-9 0 -18 1q6 26 13 55t8 40q-43 33 -48 70q-2 9 -2 17q0 23 12 35q7 10 17 15q8 4 17 4h3q36 -3 42 -35q5 -32 0 -73zM73 -23
q-12 -27 2 -33q17 -7 27 32q4 15 7 30q-28 -10 -36 -29z" />
    <glyph glyph-name="t" unicode="t" horiz-adv-x="297" 
d="M-88 453h-2q-9 0 -9 18v2q0 19 8 23q17 8 73 22l6 1q1 24 1 45q1 48 -13 64q8 22 40 26h10q26 0 47 -16q10 -8 18 -21q7 -12 9 -30q-3 -17 -5 -38q35 9 62 20q29 12 37 22q32 -3 32 -28v-5q-3 -28 -28 -41q-17 -8 -71 -17q-19 -3 -37 -6q-1 -9 -1 -19q-6 -71 -6 -149
q-1 -40 0 -81q1 -40 4 -77q5 -67 17 -114t34 -52q16 -3 30 3q14 5 27 16q24 22 41 60q17 37 28 70q5 18 9 33q4 14 6 22q8 2 18 2q11 0 18 -2q-3 -15 -13 -52q-10 -36 -29 -75q-10 -22 -22 -42q-13 -19 -28 -35q-19 -19 -42 -30q-18 -8 -38 -8q-7 0 -14 1q-50 6 -80 35
q-31 29 -47 73q-18 46 -23 104q-4 47 -4 95v24q1 39 3 78q3 39 5 75q1 14 2 27q-16 -4 -32 -7q-29 -8 -41 -16z" />
    <glyph glyph-name="u" unicode="u" horiz-adv-x="462" 
d="M317 -37q-22 3 -37 13q-15 11 -26 25q-20 26 -27 57q-8 31 -11 46q-5 -10 -19 -42q-14 -33 -41 -60q-14 -14 -31 -24q-18 -10 -39 -10q-29 -1 -49 13q-19 13 -31 36q-13 24 -19 56t-9 65q-4 63 -2 120q2 56 -8 71q4 13 12 20q7 7 17 11q8 3 18 3q14 0 30 -7
q26 -11 36 -31q-1 -31 -5 -67q-4 -37 -7 -72q-7 -67 -4 -118q2 -51 30 -52q50 -2 79 78q29 79 39 201q4 11 11 18q7 8 16 11q25 10 55 -6q30 -15 31 -35q-9 -13 -16 -51t-9 -83q-4 -54 2 -101q5 -47 23 -52q21 -5 43 28t40 75q14 34 24 65q10 32 12 44q8 -1 17 -1h17
q-2 -13 -12 -53q-11 -40 -30 -84q-10 -23 -23 -44t-28 -36t-32 -22q-13 -6 -27 -6q-5 0 -10 1z" />
    <glyph glyph-name="v" unicode="v" horiz-adv-x="427" 
d="M48 351q8 -28 14 -75t12 -97q10 -75 27 -135t51 -50q18 4 32 16t24 28q15 26 24 60q-36 40 -56 90q-14 35 -19 69t4 59q6 16 18 27q13 12 32 17q54 12 73 -31q20 -44 13 -109q-5 -51 -24 -105l-1 -1q22 -25 41 -26q16 -1 29 6t23 18q18 22 29 52q10 31 15 49h36
q-4 -20 -19 -59q-14 -40 -42 -69q-15 -16 -35 -25q-19 -9 -44 -7q-24 1 -49 21q-14 -28 -32 -51q-15 -21 -34 -35q-18 -14 -38 -19q-14 -4 -27 -4q-15 0 -27 5q-24 8 -42 28q-37 38 -56 105q-20 68 -32 127q-7 32 -13 58q-5 26 -11 40q13 24 45 40q10 5 20 5q21 0 39 -22z
M243 171q2 53 -9 92q-12 39 -32 34q-12 -3 -7 -30t20 -61q12 -26 27 -50z" />
    <glyph glyph-name="w" unicode="w" horiz-adv-x="607" 
d="M64 349q8 -28 9 -73q2 -45 3 -93q1 -73 9 -132q9 -59 45 -59q28 1 48 46q16 36 20 73q-10 47 -12 96q-1 24 -1 44q0 26 2 44q12 24 52 29t46 -26q-4 -24 -6 -64t-1 -82q2 -64 15 -114q12 -51 40 -44q36 8 57 50q12 27 20 56q-33 40 -53 88q-15 35 -20 69q-4 34 5 59
q6 16 18 27q12 12 32 17q12 2 22 3q36 0 51 -35q19 -44 13 -109q-3 -28 -10 -57q-6 -25 -14 -49q22 -23 40 -24q16 -2 28 5q13 7 23 18q19 22 29 52q11 31 16 49q12 0 36 1q-5 -21 -19 -60q-15 -40 -43 -69q-15 -16 -34 -25q-20 -9 -45 -7q-24 2 -48 21q-16 -33 -36 -59
q-31 -38 -68 -46q-11 -3 -22 -3q-13 0 -25 5q-21 7 -36 24q-17 18 -28 44q-3 6 -6 13q-9 -23 -23 -43q-30 -40 -60 -44q-8 -1 -16 -1q-27 0 -47 12q-26 16 -43 45q-15 23 -24 52q-10 30 -17 61q-12 58 -19 113q-6 55 -17 79q13 24 50 39q12 5 23 5q23 0 41 -21zM416 251
q-10 52 -33 46q-16 -4 -5 -42t33 -79q4 -8 8 -15q4 48 -3 90z" />
    <glyph glyph-name="x" unicode="x" horiz-adv-x="429" 
d="M295 368q14 24 31 24q3 0 6 -1q20 -6 27 -20q-16 -82 -73 -151q-27 -33 -52 -64q17 -51 32 -95q17 -55 35 -58q24 -4 45 32t36 79q10 29 17 54t10 37q8 2 18 3q11 0 18 -3q-2 -8 -5 -25q-4 -16 -10 -37q-11 -39 -29 -83q-18 -45 -45 -72q-13 -14 -29 -22q-12 -5 -25 -5
h-8q-31 4 -56 22t-45 44q-16 21 -30 45q-19 -25 -35 -48q-20 -32 -27 -62q-10 -7 -19 -7q-3 0 -7 2q-11 4 -15 25q13 26 44 66q21 27 44 56q-12 26 -22 53q-23 64 -36 115q-12 51 -19 52q-11 1 -21 -20t-17 -48l-8 -28q-3 -14 -6 -25q-9 -3 -18 -2q-8 1 -19 2q4 14 10 36
q5 21 13 44q12 34 28 62q17 27 40 27h1q26 0 48 -16t40 -41q19 -27 34 -62q13 -28 23 -56q10 13 20 27q32 45 48 81q9 20 11 36q3 16 -3 27z" />
    <glyph glyph-name="y" unicode="y" horiz-adv-x="466" 
d="M67 345q3 -16 2 -60q-2 -43 -3 -93q0 -60 6 -110t31 -50t49 49t39 110q9 34 14 66q5 33 6 59q6 11 25 20q19 10 38 2q11 -4 20 -15t16 -31q-4 -1 -8 -15q-3 -15 -5 -39q-6 -46 -10 -120q-4 -51 -9 -107l34 24q49 35 86 76q38 42 50 98q11 4 20 4q9 -1 17 -3
q-8 -34 -23 -62t-35 -52q-38 -45 -90 -79q-31 -21 -62 -41q0 -8 -1 -16q-9 -101 -24 -201q-16 -100 -43 -164q-15 -35 -33 -55q-19 -20 -42 -21h-3q-55 0 -86 50q-31 51 -29 120q1 37 13 76q11 38 35 73q25 37 62 67q32 26 68 51q5 62 8 109q2 45 3 58q-4 -13 -16 -45
q-15 -35 -40 -61q-10 -11 -23 -18q-12 -7 -25 -7q-30 -1 -50 13q-21 14 -35 38q-15 24 -23 57q-9 32 -14 66q-9 64 -11 120q-3 56 -14 66q13 20 49 20h1q37 0 65 -27zM154 -112q-37 -31 -62 -71q-15 -23 -20 -57t-3 -68q4 -53 21 -94q18 -42 43 -42q13 0 24 69q12 69 21 161
q4 39 7 80q2 26 3 50q-17 -13 -34 -28z" />
    <glyph glyph-name="z" unicode="z" horiz-adv-x="369" 
d="M45 354q9 -3 23 -4q15 -2 32 -2q31 1 65 8t53 23q17 6 35 -10q17 -16 20 -45q-7 -25 -28 -62t-48 -78q-40 -59 -81 -112q-42 -52 -55 -64q16 2 34 4q19 1 38 4q34 5 61 18q26 13 25 45q12 3 23 1t20 -7q27 -16 32 -50v-8q0 -27 -29 -38q-20 -7 -44 -10q-23 -3 -48 -3
q-46 0 -89 3q-42 2 -66 -6q-25 8 -31 30q-7 22 3 36q11 15 32 47t46 70q36 57 69 111q34 54 40 68q-35 -15 -81 -13q-46 1 -57 2q-2 -9 -10 -48q-7 -40 -12 -63q-8 -2 -17 -1q-10 0 -20 1q6 25 14 67t9 53q-22 11 -35 25t-13 31v3q0 29 11 46q12 18 24 20q6 2 11 1
q5 0 10 -1q9 -3 15 -10q14 -15 17 -41q3 -27 2 -41z" />
    <glyph glyph-name="braceleft" unicode="{" horiz-adv-x="288" 
d="M170 835q15 -1 21 -21t-3 -28q-23 6 -36 2q-12 -4 -16 -16q-8 -24 7 -68t31 -87q9 -24 15 -44q6 -21 6 -35q3 -70 -24 -127q-26 -57 -53 -80l16 -16q9 -11 21 -26q20 -27 38 -65q17 -36 17 -76v-6q-1 -19 -7 -44q-7 -25 -16 -52q-18 -49 -34 -96t-7 -69q4 -11 18 -13
q13 -2 39 8q8 -15 2 -36q-4 -19 -14 -20q-2 0 -3 1q-40 5 -62 23q-22 17 -30 41q-7 20 -7 44q0 23 4 48q8 45 24 89q16 43 20 69q11 65 -14 119q-26 55 -57 77q27 21 46 78q20 57 22 113q1 25 -11 71t-20 93q-5 26 -6 50q-2 24 3 43q5 25 22 40q16 15 48 16z" />
    <glyph glyph-name="bar" unicode="|" horiz-adv-x="191" 
d="M58 -39q-1 11 -1 59q-1 48 0 117v357q-1 96 -2 160q0 34 -1 56q-1 23 -3 28q8 6 20 6q9 0 20 -3q27 -9 34 -19q-1 -7 -4 -52q-2 -46 -5 -113q-1 -36 -2 -77q-2 -41 -2 -83q-2 -95 -2 -189q1 -93 6 -152q3 -32 7 -51t11 -19q-3 -26 -34 -31q-10 -2 -18 -2q-17 0 -24 8z
" />
    <glyph glyph-name="braceright" unicode="}" horiz-adv-x="296" 
d="M142 522q2 -56 22 -113q19 -56 46 -78q-31 -22 -57 -77q-26 -54 -14 -119q2 -14 8 -33q7 -20 14 -43q13 -42 23 -89q9 -47 -4 -85q-8 -24 -30 -41q-22 -18 -62 -23q-1 -1 -3 -1q-10 1 -15 20q-5 21 3 36q25 -10 39 -8q13 2 18 13q9 22 -7 69t-34 97q-9 26 -16 51t-7 44v6
q0 40 17 76q18 38 38 65q11 15 21 26t16 17q-27 22 -53 79q-27 57 -24 127q0 14 6 35q6 20 15 44q15 43 30 87q16 45 8 68q-4 12 -17 16q-12 4 -35 -2q-9 8 -3 28t21 21q32 -1 48 -16q17 -15 22 -40q8 -36 -1 -86q-10 -49 -21 -93q-5 -24 -9 -44t-3 -34z" />
    <glyph glyph-name="asciitilde" unicode="~" horiz-adv-x="564" 
d="M432 381q11 -3 27 -32q15 -25 15 -56v-7q-1 -19 -10 -38q-9 -18 -30 -33q-17 -12 -38 -12t-44 7q-43 14 -89 39t-82 29q-24 2 -41 -10q-18 -12 -26 -49q-6 2 -14 24t-10 49q-1 6 -1 13q0 8 1 16q2 15 7 28q6 12 15 22q10 9 24 14q13 5 27 5q7 0 14 -1q21 -4 42 -12
q41 -16 80 -39q40 -23 72 -24q21 0 37 15q16 14 24 52z" />
    <glyph glyph-name="uni009d" horiz-adv-x="862" 
d="M750 327q-3 -96 -34 -174q-31 -77 -80 -133q-40 -45 -88 -77q-49 -31 -101 -47t-102 -16q-43 0 -84 11q-91 25 -140 110q-19 32 -25 63q-5 23 -5 45v14q5 53 32 91q27 37 57 49q22 6 36 4q14 -3 21 -11q14 -16 12 -44t-6 -51q-29 19 -57 3t-38 -51q-6 -19 -4 -42t14 -47
q20 -40 48 -65q28 -26 62 -36q61 -20 132 6q71 27 128 92q48 54 81 131q32 78 37 175q4 101 -34 186q-37 86 -98 135q-33 26 -70 40t-76 11q-47 -3 -94 -34q-46 -30 -87 -93q-32 -14 -43 12q-12 27 13 62q35 33 76 54q42 22 86 32q37 8 75 8q46 0 93 -12q85 -22 149 -85
q53 -51 85 -130q29 -73 29 -170v-16zM427 371q20 -15 22 -32v-5q0 -14 -10 -26q-49 5 -79 4q-1 -26 -3 -51q-7 -105 -12 -188q-5 -82 -1 -89q-12 -16 -34 -15q-5 0 -11 1q-31 5 -35 37q2 8 5 28q2 19 5 47q4 52 7 125q2 50 3 101h-5q-14 0 -31 1q-17 0 -38 2q-26 11 -26 30
v5q4 24 33 35q17 -19 68 -16q1 83 -2 147q-3 70 -13 75q10 43 44 59q12 6 23 6q20 0 36 -18q2 -4 2 -22q1 -6 1 -12q0 -15 -1 -36q-2 -55 -7 -137l-4 -56q30 1 63 0z" />
    <glyph glyph-name="exclamdown" unicode="&#xa1;" horiz-adv-x="318" 
d="M95 11q16 7 22 68q5 60 5 137v66q-1 33 -2 63q-2 57 -4 97q-2 41 -2 46q6 17 26 25q10 4 19 4q8 0 15 -4q0 -20 4 -77q5 -57 10 -128q3 -37 5 -75q3 -39 5 -75q4 -67 5 -119v-9q0 -44 -5 -57q-4 -17 -24 -17q-11 0 -27 6q-44 15 -52 49zM193 727q2 -7 2 -14q0 -13 -6 -26
q-9 -19 -24 -26q-6 -3 -15 -3t-22 3q-25 6 -28 28q-1 7 -1 13q0 14 5 22q8 12 5 28q6 6 20 6q10 0 24 -3q35 -8 40 -28z" />
    <glyph glyph-name="cent" unicode="&#xa2;" horiz-adv-x="695" 
 />
    <glyph glyph-name="sterling" unicode="&#xa3;" horiz-adv-x="574" 
d="M388 385q20 -15 22 -32v-5q0 -15 -9 -27q-66 8 -132 3q-2 -27 -5 -53q-7 -64 -23 -115q-3 -8 -5 -15q2 0 4 -1q43 -22 85 -48t80 -40q32 -12 59 -11t48 23q20 -19 20 -41q0 -13 -6 -27q-17 -37 -58 -38h-1q-63 1 -115 46q-52 44 -103 87q-13 11 -27 21q-10 -21 -24 -37
q-26 -32 -69 -38q-28 -3 -47 2q-20 4 -32 14q-20 17 -20 43v8q4 32 32 52q15 11 37 16t50 0q13 -2 26 -6q7 37 10 84q2 32 3 68h-21q-37 0 -75 3q-27 11 -27 30q0 3 1 6q4 23 32 34q12 -14 63 -13h28l2 30q3 63 11 123q7 60 26 106q18 44 50 70q29 24 77 24h5q28 0 48 -10
t33 -26q25 -31 24 -75t-23 -76q-12 -18 -29 -29q-18 -12 -40 -13q-23 -2 -42 8q-18 9 -13 37q22 -2 40 8q17 10 30 27q18 26 23 59q4 33 -12 54q-7 8 -17 14q-10 5 -25 5q-35 0 -50 -43q-16 -44 -22 -111q-4 -36 -6 -77t-4 -83l-1 -19q29 2 58 3q30 1 56 1zM137 152
q-39 5 -56 -24t1 -44q5 -5 15 -7t25 2q33 7 46 55q1 4 2 9q-16 6 -33 9z" />
    <glyph glyph-name="section" unicode="&#xa7;" horiz-adv-x="386" 
d="M80 173q22 17 46 6q24 -12 26 -34q-18 -4 -29 -13q-10 -9 -16 -20q-12 -27 5 -56q16 -30 53 -37q44 -8 76 14q32 21 32 78q0 18 -8 32q-8 15 -22 28q-24 23 -60 44t-67 48q-26 22 -42 50q-15 26 -15 61v8q3 58 35 88q31 29 73 40l11 2q-35 21 -64 47q-25 22 -41 50
q-15 26 -15 61v5q2 65 54 95q39 22 80 22q15 0 30 -3q67 -12 89 -70q22 -57 -12 -109q-21 -17 -46 -5q-24 11 -25 33q17 5 28 14t17 20q12 27 -4 57q-15 30 -52 36q-44 8 -77 -14t-33 -79q0 -17 8 -32q8 -14 21 -27q24 -24 61 -45q36 -20 67 -47q25 -22 42 -51
q15 -26 14 -61v-8q-1 -31 -12 -54q-10 -22 -27 -38q-31 -29 -75 -37q-2 -1 -4 -1l30 -20q18 -13 34 -27q24 -22 40 -49t16 -62v-5q-2 -65 -55 -95q-38 -21 -80 -21q-14 0 -30 2q-66 13 -89 70q-22 58 12 109zM180 305q29 9 51 32q12 12 20 29q7 17 8 38q1 19 -6 33
q-7 15 -19 29q-8 8 -18 17q-10 -2 -21 -6q-28 -10 -50 -34q-23 -25 -25 -64q-1 -33 22 -57q10 -11 22 -21q8 1 16 4z" />
    <glyph glyph-name="dieresis" unicode="&#xa8;" horiz-adv-x="237" 
d="M157 757q3 3 9 3q11 0 29 -11q25 -14 25 -31v-2q-1 -18 -13 -32t-26 -16h-3q-11 0 -28 10q-17 9 -17 24v6q3 20 13 28t11 21zM28 682q-10 7 -10 27q0 6 1 14q5 30 18 34q11 -7 23 -5t30 -8q13 -8 13 -24v-8q-4 -22 -12 -30q-11 -10 -30 -10h-2q-17 0 -31 10z" />
    <glyph glyph-name="copyright" unicode="&#xa9;" horiz-adv-x="473" 
d="M255 724q95 0 151 -62q57 -66 60 -158v-6q0 -29 -7 -57q-9 -30 -25 -58q-30 -50 -81 -83q-50 -32 -107 -33h-3q-56 0 -107 27q-52 29 -84 76q-18 26 -28 56q-11 31 -11 64v5q0 92 64 158q66 68 169 71h9zM411 501q-1 49 -18 95q-18 46 -52 74q-19 15 -43 24q-21 7 -46 7
q-4 0 -8 -1q-84 -3 -128 -67q-44 -63 -44 -139v-2q0 -27 8 -54q7 -26 19 -50q23 -44 62 -72q37 -28 80 -28h4q45 2 83 33t60 77q12 24 18 51q6 24 5 47v5zM133 538q7 19 18 33q11 15 25 26q34 28 74 28q6 0 13 -1q46 -5 50 -55q1 -11 -2 -20q-3 -8 -9 -15q-17 -20 -43 -22
q-25 -1 -17 17q24 7 28 39t-23 34q-28 2 -42 -36q-15 -38 -13 -82q1 -36 15 -67q13 -31 41 -38q22 -5 46 14q23 20 21 40q10 5 18 7q9 3 17 -4q-6 -40 -42 -68q-26 -20 -55 -20q-11 0 -22 3q-48 12 -73 44q-25 33 -31 70q-3 12 -3 25q0 7 1 13q2 19 8 35z" />
    <glyph glyph-name="uni00ad" unicode="&#xad;" horiz-adv-x="501" 
d="M115 201q13 -14 63 -13q50 0 109 3q31 2 62 3q31 2 56 1q20 -15 22 -32q1 -3 1 -5q0 -14 -10 -27q-75 9 -150 1q-41 -4 -84 -4q-37 0 -75 3q-26 11 -26 30q-1 3 0 6q4 23 32 34z" />
    <glyph glyph-name="registered" unicode="&#xae;" horiz-adv-x="503" 
d="M430 572v-6q0 -26 -7 -52q-8 -28 -23 -53q-27 -46 -73 -76q-5 -3 -9 -6q9 -19 17 -36q18 -38 35 -39q12 -1 22 15t-4 25q2 7 7 14q5 8 13 5q7 -8 7 -19t-9 -26q-15 -27 -37 -27h-1q-20 0 -36 12t-29 31q-10 14 -19 30q-27 -9 -56 -9h-3q-26 0 -52 7q-27 8 -52 22
q-45 26 -75 72t-31 103v4q0 84 59 145q61 62 154 65h9q87 0 138 -57q53 -60 55 -144zM156 441q4 2 9 32q5 25 8 55q-1 1 -2 1q-19 2 -19 16v6q4 17 25 17q4 32 6 63q3 43 2 49q5 10 15 10h3q13 -2 15 -10q-2 -2 -5 -33t-6 -72q-1 -7 -1 -15q4 -2 8 -5q4 -4 9 -8q1 0 3 1
q23 5 40 21q10 8 15 21q6 13 4 30q-3 28 -13 46q-10 19 -24 29q-26 18 -57 8t-47 -46q-9 -22 0 -37t24 -8q1 -11 0 -26q-2 -14 -23 -8q-16 8 -25 32q-3 10 -3 20q0 17 9 38q20 45 76 47q4 1 8 1q50 0 84 -31q12 -12 20 -27t10 -33v-8q0 -13 -4 -23q-6 -14 -17 -24
q-24 -23 -60 -31q-6 -1 -10 -2q5 -6 10 -13q15 -20 27 -44q13 -25 25 -51l10 -24q2 1 4 3q33 29 52 73q19 41 19 83v5q-2 69 -39 128q-35 55 -107 55h-7q-77 -3 -117 -62q-40 -58 -40 -127v-3q0 -24 6 -49q7 -24 18 -45q22 -41 57 -67q34 -25 74 -25h3q22 1 42 10q1 0 3 1
q-8 18 -14 38q-18 52 -36 89q-6 12 -12 22q-4 -1 -7 -2q-2 -28 -3 -54q-3 -47 -6 -56q-5 -3 -11 -3t-13 3q-14 5 -15 19zM175 541l2 17q-14 0 -14 -9q-1 -10 11 -12q1 2 1 4z" />
    <glyph glyph-name="macron" unicode="&#xaf;" horiz-adv-x="340" 
d="M86 720q19 -21 70 -13q51 9 124 7q20 -15 22 -26v-3q0 -10 -9 -22q-15 2 -54 1t-81 -2h-43q-20 0 -35 1q-27 11 -27 25q0 2 1 4q4 17 32 28z" />
    <glyph glyph-name="degree" unicode="&#xb0;" horiz-adv-x="201" 
d="M102 794q10 -2 10 -9q1 -7 -4 -14q-9 1 -17 -2q-7 -3 -13 -9q-17 -18 -20 -50q-2 -33 14 -51q5 -7 12 -11q8 -4 17 -4q7 0 12 3q6 2 10 7q16 20 12 55t-22 31q-10 6 -7 20q3 13 15 18q12 2 21 -2t16 -11q16 -18 16 -51v-12q-4 -41 -30 -64q-8 -8 -20 -12q-10 -4 -22 -4
h-2q-26 1 -44 9t-29 20q-19 21 -19 50v8q3 34 25 58q12 13 30 20q16 7 36 7h3z" />
    <glyph glyph-name="acute" unicode="&#xb4;" horiz-adv-x="145" 
d="M30 658q-4 -1 -8 -1q-3 0 -6 1q-7 1 -7 8q3 33 21 73t57 57q10 4 17 4h2q8 0 13 -4q12 -9 12 -28v-3q-1 -20 -10 -28q-15 -6 -48 -29q-32 -23 -43 -50z" />
    <glyph glyph-name="periodcentered" unicode="&#xb7;" horiz-adv-x="226" 
d="M152 392q2 -7 2 -14q0 -13 -6 -25q-8 -20 -24 -27q-5 -2 -14 -2q-10 0 -23 2q-25 6 -28 28q-1 7 -1 13q0 14 6 23q8 12 5 27q5 7 20 7q10 0 24 -4q35 -8 39 -28z" />
    <glyph glyph-name="cedilla" unicode="&#xb8;" horiz-adv-x="375" 
d="M111 -48q27 4 28 -13t-12 -33q-9 3 -16 2t-11 -5q-18 -15 -4 -58q13 -43 49 -63q12 -7 25 -9q13 -3 28 0q18 4 31 15q13 12 21 28q15 29 13 66t-17 60q-17 24 -36 44t-36 39q15 3 30 4h9q11 0 25 -2q13 -11 27 -26q14 -14 28 -33q19 -27 19 -72v-1q0 -46 -26 -83
q-14 -20 -37 -35q-22 -14 -54 -19q-11 -1 -21 -1q-15 0 -28 3q-23 5 -41 17q-37 22 -53 60q-9 21 -9 41q0 14 5 27q6 17 22 29q15 13 41 18z" />
    <glyph glyph-name="questiondown" unicode="&#xbf;" horiz-adv-x="502" 
d="M344 257q-37 5 -38 -18q-2 -23 17 -44q34 10 44 -15q10 -24 1 -58q-4 -15 -12 -30q-7 -15 -17 -28q-9 -11 -19 -21q-11 -9 -23 -16q-15 -9 -33 -12q-17 -4 -37 0q-25 5 -43 20q-17 16 -28 37q-20 40 -18 90q3 51 23 81q19 27 39 49q21 23 40 44q37 40 62 82q25 43 17 108
q-9 6 -20 6q-5 1 -10 0q-17 -4 -24 -15q5 -29 1 -50q-5 -21 -17 -37q-23 -32 -65 -62q-42 -29 -86 -90q-26 -36 -26 -97v-2q0 -62 35 -112q19 -27 50 -46q30 -20 73 -26q15 -2 29 -2q19 0 38 4q30 7 56 23q48 30 70 80q13 30 13 56q0 19 -7 37q-9 23 -29 40q-21 17 -56 24z
M324 716q1 -4 1 -8q0 -15 -8 -29q-10 -18 -25 -23q-4 -2 -10 -2q-10 0 -25 5q-24 8 -25 29v5q0 19 7 28q9 11 8 26q4 5 14 5q11 0 28 -6q32 -10 35 -30z" />
    <glyph glyph-name="Agrave" unicode="&#xc0;" horiz-adv-x="904" 
d="M676 709q-2 -41 -1 -128t6 -186q1 -20 2 -39q37 9 49 16q22 -3 23 -27q0 -3 -1 -6q-3 -30 -18 -30q-22 -5 -49 -7l2 -12q5 -52 11 -100q12 -89 31 -150q19 -60 47 -63q24 -2 45 40q22 41 37 89q10 32 17 59l10 40q8 1 19 2q10 0 18 -2q-2 -9 -6 -26t-9 -39
q-11 -39 -29 -86q-19 -47 -45 -77q-13 -15 -29 -23q-13 -7 -27 -7h-7q-36 4 -64 29q-27 24 -48 62q-32 63 -49 152q-10 53 -18 108q-33 0 -67 3q-31 2 -59 7q-5 1 -10 1q-10 -40 -20 -81q-16 -66 -35 -126q-36 -112 -85 -190t-118 -80h-4q-49 0 -85 46q-37 48 -50 112
q-6 29 -6 58q0 14 1 28q4 43 24 76q17 29 46 47q28 18 71 21q29 -6 32 -45q4 -38 -16 -49q-32 12 -53 7q-22 -5 -36 -22q-15 -20 -20 -52q-4 -32 1 -66q7 -51 33 -93q25 -42 61 -40q19 1 35 17q17 16 31 45q27 53 49 140q23 86 45 184q15 64 30 129q15 66 33 125
q32 110 75 186q29 51 68 68q-2 3 -3 5q4 18 34 20h5q27 0 50 -18q10 -8 17 -21q8 -13 9 -31zM549 679q-21 -51 -40 -137t-41 -184l-3 -14l8 -1q32 -5 67 -5q25 0 49 2q-2 17 -3 34q-4 49 -6 97q-2 47 -4 90q-3 80 -5 135q-1 13 -2 23q-10 -15 -20 -40zM545 879q-9 8 -9 28v3
q0 19 11 28q6 4 14 4h1q8 0 18 -4q38 -17 56 -57t21 -73q0 -7 -6 -8q-3 -1 -6 -1q-4 0 -9 1q-10 27 -43 50t-48 29z" />
    <glyph glyph-name="Aacute" unicode="&#xc1;" horiz-adv-x="904" 
d="M676 709q-2 -41 -1 -128t6 -186q1 -20 2 -39q37 9 49 16q22 -3 23 -27q0 -3 -1 -6q-3 -30 -18 -30q-22 -5 -49 -7l2 -12q5 -52 11 -100q12 -89 31 -150q19 -60 47 -63q24 -2 45 40q22 41 37 89q10 32 17 59l10 40q8 1 19 2q10 0 18 -2q-2 -9 -6 -26t-9 -39
q-11 -39 -29 -86q-19 -47 -45 -77q-13 -15 -29 -23q-13 -7 -27 -7h-7q-36 4 -64 29q-27 24 -48 62q-32 63 -49 152q-10 53 -18 108q-33 0 -67 3q-31 2 -59 7q-5 1 -10 1q-10 -40 -20 -81q-16 -65 -35 -125q-36 -112 -85 -190q-49 -77 -118 -80h-4q-49 0 -84 46
q-38 48 -51 112q-6 29 -6 58q0 13 2 27q4 43 24 77q16 28 45 46q28 18 71 21q29 -6 32 -45q4 -38 -16 -49q-32 12 -54 7q-21 -6 -35 -22q-15 -21 -20 -53q-4 -32 1 -66q8 -52 33 -93q25 -42 61 -41q19 1 35 18q17 16 31 45q27 53 49 140q23 87 45 184l30 130q15 65 33 125
q32 110 75 186q29 51 68 68q-2 3 -3 5q4 18 34 20h5q27 0 50 -18q10 -8 17 -21q8 -13 9 -31zM552 687q-20 -51 -40 -132q-10 -44 -21 -94t-23 -102l-3 -15l8 -1q32 -5 67 -5q25 0 49 2q-2 17 -3 34q-4 49 -6 97q-2 47 -4 90q-3 80 -5 135q-1 14 -2 25q-9 -13 -17 -34z
M571 815q-5 -1 -9 -1h-6q-6 1 -7 9q4 32 22 72q18 41 56 57q10 5 17 5h2q8 -1 13 -5q12 -9 12 -28v-2q-1 -21 -9 -28q-16 -7 -48 -30q-33 -22 -43 -49z" />
    <glyph glyph-name="Acircumflex" unicode="&#xc2;" horiz-adv-x="904" 
d="M676 709q-2 -41 -1 -128t6 -186q1 -20 2 -39q37 9 49 16q22 -3 23 -27q0 -3 -1 -6q-3 -30 -18 -30q-22 -5 -49 -7l2 -12q5 -52 11 -100q12 -89 31 -150q19 -60 47 -63q24 -2 45 40q22 41 37 89q10 32 17 59l10 40q8 1 19 2q10 0 18 -2q-2 -9 -6 -26t-9 -39
q-11 -39 -29 -86q-19 -47 -45 -77q-13 -15 -29 -23q-13 -7 -27 -7h-7q-36 4 -64 29q-27 24 -48 62q-32 63 -49 152q-10 53 -18 108q-33 0 -67 3q-31 2 -59 7q-5 1 -10 1q-10 -40 -20 -81q-16 -65 -35 -125q-36 -112 -85 -190q-49 -77 -118 -80h-4q-49 0 -84 46
q-38 48 -51 112q-6 29 -6 58q0 13 2 27q4 43 24 77q16 28 45 46q28 18 71 21q29 -6 32 -45q4 -38 -16 -49q-32 12 -54 7q-21 -6 -35 -22q-15 -21 -20 -53q-4 -32 1 -66q8 -52 33 -93q25 -42 61 -41q19 1 35 18q17 16 31 45q27 53 49 140q23 87 45 184l30 130q15 65 33 125
q32 110 75 186q29 51 68 68q-2 3 -3 5q4 18 34 20h5q27 0 50 -18q10 -8 17 -21q8 -13 9 -31zM552 687q-20 -51 -40 -132q-10 -44 -21 -94t-23 -102l-3 -15l8 -1q32 -5 67 -5q25 0 49 2q-2 17 -3 34q-4 49 -6 97q-2 47 -4 90q-3 80 -5 135q-1 14 -2 25q-9 -13 -17 -34z
M605 919l87 -72q2 -3 2 -7q0 -11 -13 -20q-17 -13 -40 -9q-12 25 -35 74q-14 -19 -22 -39t-20 -40h-6q-14 0 -29 8q-18 10 -18 26q29 19 50 38t44 41z" />
    <glyph glyph-name="Atilde" unicode="&#xc3;" horiz-adv-x="904" 
d="M676 709q-2 -41 -1 -128t6 -186q1 -20 2 -39q37 9 49 16q22 -3 23 -27q0 -3 -1 -6q-3 -30 -18 -30q-22 -5 -49 -7l2 -12q5 -52 11 -100q12 -89 31 -150q19 -60 47 -63q24 -2 45 40q22 41 37 89q10 32 17 59l10 40q8 1 19 2q10 0 18 -2q-2 -9 -6 -26t-9 -39
q-11 -39 -29 -86q-19 -47 -45 -77q-13 -15 -29 -23q-13 -7 -27 -7h-7q-36 4 -64 29q-27 24 -48 62q-32 63 -49 152q-10 53 -18 108q-33 0 -67 3q-31 2 -59 7q-5 1 -10 1q-10 -40 -20 -81q-16 -65 -35 -125q-36 -112 -85 -190q-49 -77 -118 -80h-4q-49 0 -84 46
q-38 48 -51 112q-6 29 -6 58q0 13 2 27q4 43 24 77q16 28 45 46q28 18 71 21q29 -6 32 -45q4 -38 -16 -49q-32 12 -54 7q-21 -6 -35 -22q-15 -21 -20 -53q-4 -32 1 -66q8 -52 33 -93q25 -42 61 -41q19 1 35 18q17 16 31 45q27 53 49 140q23 87 45 184l30 130q15 65 33 125
q32 110 75 186q29 51 68 68q-2 3 -3 5q4 18 34 20h5q27 0 50 -18q10 -8 17 -21q8 -13 9 -31zM552 687q-20 -51 -40 -132q-10 -44 -21 -94t-23 -102l-3 -15l8 -1q32 -5 67 -5q25 0 49 2q-2 17 -3 34q-4 49 -6 97q-2 47 -4 90q-3 80 -5 135q-1 14 -2 25q-9 -13 -17 -34z
M670 929q19 -4 29 -26q5 -12 5 -24q0 -10 -4 -21q-4 -9 -11 -17q-8 -8 -21 -14q-8 -3 -16 -3q-12 0 -23 7q-21 11 -39 24q-10 7 -19 12t-17 6q-9 2 -17 -6q-7 -7 -11 -28q-12 5 -19 25q-3 10 -3 20t4 21t13 20t24 14q5 2 10 2t9 -1q10 -3 19 -8q17 -11 32 -25q16 -15 28 -16
q9 0 15 8q7 8 12 30z" />
    <glyph glyph-name="Adieresis" unicode="&#xc4;" horiz-adv-x="904" 
d="M676 709q-2 -41 -1 -128t6 -186q1 -20 2 -39q37 9 49 16q22 -3 23 -27q0 -3 -1 -6q-3 -30 -18 -30q-22 -5 -49 -7l2 -12q5 -52 11 -100q12 -89 31 -150q19 -60 47 -63q24 -2 45 40q22 41 37 89q10 32 17 59l10 40q8 1 19 2q10 0 18 -2q-2 -9 -6 -26t-9 -39
q-11 -39 -29 -86q-19 -47 -45 -77q-13 -15 -29 -23q-13 -7 -27 -7h-7q-36 4 -64 29q-27 24 -48 62q-32 63 -49 152q-10 53 -18 108q-33 0 -67 3q-31 2 -59 7q-5 1 -10 1q-10 -40 -20 -81q-16 -65 -35 -125q-36 -112 -85 -190q-49 -77 -118 -80h-4q-49 0 -84 46
q-38 48 -51 112q-6 29 -6 58q0 13 2 27q4 43 24 77q16 28 45 46q28 18 71 21q29 -6 32 -45q4 -38 -16 -49q-32 12 -54 7q-21 -6 -35 -22q-15 -21 -20 -53q-4 -32 1 -66q8 -52 33 -93q25 -42 61 -41q19 1 35 18q17 16 31 45q27 53 49 140q23 87 45 184l30 130q15 65 33 125
q32 110 75 186q29 51 68 68q-2 3 -3 5q4 18 34 20h5q27 0 50 -18q10 -8 17 -21q8 -13 9 -31zM552 687q-20 -51 -40 -132q-10 -44 -21 -94t-23 -102l-3 -15l8 -1q32 -5 67 -5q25 0 49 2q-2 17 -3 34q-4 49 -6 97q-2 47 -4 90q-3 80 -5 135q-1 14 -2 25q-9 -13 -17 -34z
M519 816q-11 8 -11 27q0 7 1 14q6 31 18 34q11 -7 23 -5q13 3 30 -8q14 -8 14 -24q0 -3 -1 -8q-4 -22 -12 -29q-10 -10 -29 -11h-2q-18 0 -31 10zM647 892q4 2 9 2q11 0 29 -10q26 -15 26 -32v-1q-1 -18 -13 -32q-13 -14 -27 -16h-3q-10 0 -27 9q-17 10 -17 25v5q3 21 13 29
q9 8 10 21z" />
    <glyph glyph-name="Aring" unicode="&#xc5;" horiz-adv-x="904" 
d="M676 709q-2 -41 -1 -128t6 -186q1 -20 2 -39q37 9 49 16q22 -3 23 -27q0 -3 -1 -6q-3 -30 -18 -30q-22 -5 -49 -7l2 -12q5 -52 11 -100q12 -89 31 -150q19 -60 47 -63q24 -2 45 40q22 41 37 89q10 32 17 59l10 40q8 1 19 2q10 0 18 -2q-2 -9 -6 -26t-9 -39
q-11 -39 -29 -86q-19 -47 -45 -77q-13 -15 -29 -23q-13 -7 -27 -7h-7q-36 4 -64 29q-27 24 -48 62q-32 63 -49 152q-10 53 -18 108q-33 0 -67 3q-31 2 -59 7q-5 1 -10 1q-10 -40 -20 -81q-16 -65 -35 -125q-36 -112 -85 -190q-49 -77 -118 -80h-4q-49 0 -84 46
q-38 48 -51 112q-6 29 -6 58q0 13 2 27q4 43 24 77q16 28 45 46q28 18 71 21q29 -6 32 -45q4 -38 -16 -49q-32 12 -54 7q-21 -6 -35 -22q-15 -21 -20 -53q-4 -32 1 -66q8 -52 33 -93q25 -42 61 -41q19 1 35 18q17 16 31 45q27 53 49 140q23 87 45 184l30 130q15 65 33 125
q32 110 75 186q29 51 68 68q-2 3 -3 5q4 18 34 20h5q27 0 50 -18q10 -8 17 -21q8 -13 9 -31zM552 687q-20 -51 -40 -132q-10 -44 -21 -94t-23 -102l-3 -15l8 -1q32 -5 67 -5q25 0 49 2q-2 17 -3 34q-4 49 -6 97q-2 47 -4 90q-3 80 -5 135q-1 14 -2 25q-9 -13 -17 -34z
M603 910q9 -1 10 -7v-5q1 9 9 13h5q25 0 33 -31q2 -10 2 -19q0 -22 -13 -39q-7 -8 -16 -13q-10 -5 -23 -5h-7q-21 0 -35 5q-16 6 -23 16q-9 11 -9 25t10 30q20 31 57 30zM610 892q-24 3 -26 -31t26 -33q13 0 18 29t-9 25q-7 5 -6 15q-1 -3 -3 -5z" />
    <glyph glyph-name="AE" unicode="&#xc6;" horiz-adv-x="1229" 
d="M628 709q-2 -38 -2 -124t3 -187q1 -22 1 -43q15 3 25 6q20 33 46 56q25 23 53 36q9 4 17 7l-4 5q-20 19 -35 42q-14 23 -22 49t-7 55q4 75 65 122q60 47 132 49h3q26 0 48 -8q24 -7 43 -20q19 -14 33 -33q13 -19 20 -39q13 -38 2 -75q-12 -36 -51 -53q-16 -7 -29 -8
q-14 0 -24 5q-23 10 -27 36q-4 27 13 41q12 -8 22 -10t17 0q22 8 22 44q1 36 -26 63q-12 12 -29 19q-17 8 -40 8q-48 0 -80 -40q-31 -40 -36 -98q-2 -37 5 -67q7 -29 19 -51q7 -13 15 -23q43 6 74 -4q35 -12 30 -36q-6 -29 -41 -27q-32 1 -66 21q-13 -8 -27 -19
q-16 -12 -29 -31q-22 -28 -36 -71t-13 -106q1 -101 57 -165q55 -64 130 -78q41 -7 84 1q43 9 82 36q49 32 88 94t60 157q7 2 16 3t18 -1q-19 -108 -66 -180q-47 -71 -108 -111q-80 -52 -169 -52q-14 0 -27 1q-105 9 -176 74q-20 19 -36 40q0 -2 1 -4q15 -73 38 -95
q-11 -10 -23 -14q-11 -3 -22 -3h-3q-37 46 -60 145q-22 99 -35 214q-2 18 -5 36h-3q-38 0 -75 3q-30 2 -59 7q-5 1 -10 1q-10 -40 -20 -81q-16 -65 -35 -125q-36 -112 -85 -190q-49 -77 -118 -80h-4q-49 0 -84 46q-38 48 -51 112q-5 29 -5 58q0 13 1 27q4 43 24 77
q16 28 45 46q28 18 71 21q29 -6 32 -45q4 -38 -16 -49q-32 12 -54 7q-21 -6 -34 -22q-16 -21 -21 -53q-4 -32 1 -66q8 -52 33 -93q25 -42 61 -41q19 1 35 18q17 16 31 45q27 53 49 140q23 87 45 184l30 130q16 65 33 125q33 110 75 186q29 51 68 68q-2 3 -3 5q4 18 34 20h5
q27 0 50 -18q10 -8 17 -21q8 -13 9 -31zM504 687q-20 -51 -40 -132q-10 -44 -21 -94t-23 -102l-3 -15l8 -1q32 -5 67 -5q31 0 60 3q-7 71 -11 142q-7 110 -12 182q-4 34 -6 57q-10 -13 -19 -35zM886 439q1 5 -19 4q-5 -1 -11 -2q28 -13 30 -2z" />
    <glyph glyph-name="Ccedilla" unicode="&#xc7;" horiz-adv-x="680" 
d="M267 -204q34 5 35 -16q2 -21 -15 -40q-11 3 -20 2q-8 -2 -13 -6q-15 -12 -12 -41t19 -58q9 -15 21 -29q13 -13 28 -22q14 -8 30 -11t34 1q23 4 39 18t26 34q18 37 16 82q-2 46 -21 74q-21 30 -44 54q-17 17 -31 34h-3q-67 5 -118 33t-88 72q-57 71 -78 173
q-13 63 -13 128q0 39 5 78q6 54 22 107q15 53 39 99q44 87 115 142q70 55 163 55h3q24 0 45 -8q20 -8 35 -22q42 -36 52 -97q11 -61 -13 -112q-13 -26 -36 -46t-58 -27q-50 -10 -71 12q-20 22 1 60q29 -2 51 12q23 14 38 36q23 33 26 75t-19 67q-9 10 -23 16q-13 6 -32 6
q-60 -1 -104 -48t-71 -120q-15 -39 -25 -84t-15 -93q-7 -57 -6 -116t10 -113q16 -101 58 -173q42 -71 112 -77q53 -5 96 13q43 17 76 47q22 20 39 43q18 24 32 48q26 45 41 87q14 42 19 64q12 0 36 -1q-5 -23 -21 -70q-15 -46 -44 -96q-16 -27 -35 -53q-20 -26 -45 -48
q-37 -34 -87 -54q-15 -6 -31 -9q10 -10 20 -21q18 -18 35 -42q24 -33 24 -88v-1q0 -57 -33 -103q-17 -24 -45 -42q-27 -18 -67 -24q-13 -1 -26 -1q-18 0 -34 3q-28 7 -51 21q-45 27 -65 74q-11 26 -11 50q0 18 6 34q8 21 27 36q19 16 50 22z" />
    <glyph glyph-name="Egrave" unicode="&#xc8;" horiz-adv-x="679" 
d="M451 537q-17 -8 -31 -8t-24 5q-24 10 -28 38q-4 27 14 42q12 -9 22 -11t18 0q23 8 23 45q0 38 -27 65q-13 13 -30 21q-18 7 -42 7q-49 0 -82 -41t-37 -101q-3 -39 5 -69q7 -30 20 -52q6 -13 13 -23q45 6 78 -5q37 -13 31 -38q-6 -30 -42 -28q-33 2 -71 23q-11 -7 -23 -16
q-16 -12 -30 -30q-22 -28 -37 -72t-15 -109q-1 -98 54 -162t131 -79q42 -8 85 0q44 7 84 33q50 32 91 93q40 60 63 154q7 2 16 3q9 0 19 -2q-21 -107 -69 -178q-49 -70 -111 -108q-51 -32 -108 -43q-34 -6 -67 -6q-22 0 -43 2q-101 14 -175 84q-75 70 -77 183v7q0 87 27 144
q27 60 67 95q26 22 55 35q8 4 17 7l-3 3q-20 19 -36 44q-15 23 -23 50t-7 57q5 77 67 126t136 50h4q27 0 50 -7q24 -8 43 -22q20 -14 34 -33t21 -41q13 -39 2 -77q-12 -38 -52 -55zM307 874q-9 8 -9 28q-1 2 -1 3q1 19 12 28q5 4 13 5h2q8 0 18 -5q38 -16 56 -57
q18 -40 21 -72q0 -8 -7 -9q-2 -1 -5 -1q-5 0 -9 1q-10 28 -43 50q-33 23 -48 29zM304 421q29 -14 31 -3q1 6 -19 6q-7 0 -15 -2q1 -1 3 -1z" />
    <glyph glyph-name="Eacute" unicode="&#xc9;" horiz-adv-x="679" 
d="M451 537q-17 -8 -31 -8t-24 5q-24 10 -28 38q-4 27 14 42q12 -9 22 -11t18 0q23 8 23 45q0 38 -27 65q-13 13 -30 21q-18 7 -42 7q-49 0 -82 -41t-37 -101q-3 -39 5 -69q7 -30 20 -52q6 -13 13 -23q45 6 78 -5q37 -13 31 -38q-6 -30 -42 -28q-33 2 -71 23q-11 -7 -23 -16
q-16 -12 -30 -30q-22 -28 -37 -72t-15 -109q-1 -98 54 -162t131 -79q42 -8 85 0q44 7 84 33q50 32 91 93q40 60 63 154q7 2 16 3q9 0 19 -2q-21 -107 -69 -178q-49 -70 -111 -108q-51 -32 -108 -43q-34 -6 -67 -6q-22 0 -43 2q-101 14 -175 84q-75 70 -77 183v7q0 87 27 144
q27 60 67 95q26 22 55 35q8 4 17 7l-3 3q-20 19 -36 44q-15 23 -23 50t-7 57q5 77 67 126t136 50h4q27 0 50 -7q24 -8 43 -22q20 -14 34 -33t21 -41q13 -39 2 -77q-12 -38 -52 -55zM355 792q-4 -1 -8 -1h-6q-7 2 -7 9q3 32 21 72q18 41 57 58q9 4 17 4h2q8 -1 13 -5
q12 -9 12 -28v-2q-1 -21 -10 -28q-15 -7 -48 -29q-32 -23 -43 -50zM304 421q29 -14 31 -3q1 6 -19 6q-7 0 -15 -2q1 -1 3 -1z" />
    <glyph glyph-name="Ecircumflex" unicode="&#xca;" horiz-adv-x="679" 
d="M451 537q-17 -8 -31 -8t-24 5q-24 10 -28 38q-4 27 14 42q12 -9 22 -11t18 0q23 8 23 45q0 38 -27 65q-13 13 -30 21q-18 7 -42 7q-49 0 -82 -41t-37 -101q-3 -39 5 -69q7 -30 20 -52q6 -13 13 -23q45 6 78 -5q37 -13 31 -38q-6 -30 -42 -28q-33 2 -71 23q-11 -7 -23 -16
q-16 -12 -30 -30q-22 -28 -37 -72t-15 -109q-1 -98 54 -162t131 -79q42 -8 85 0q44 7 84 33q50 32 91 93q40 60 63 154q7 2 16 3q9 0 19 -2q-21 -107 -69 -178q-49 -70 -111 -108q-51 -32 -108 -43q-34 -6 -67 -6q-22 0 -43 2q-101 14 -175 84q-75 70 -77 183v7q0 87 27 144
q27 60 67 95q26 22 55 35q8 4 17 7l-3 3q-20 19 -36 44q-15 23 -23 50t-7 57q5 77 67 126t136 50h4q27 0 50 -7q24 -8 43 -22q20 -14 34 -33t21 -41q13 -39 2 -77q-12 -38 -52 -55zM359 919q29 -23 88 -71q1 -3 1 -7q0 -11 -12 -21q-17 -13 -40 -8q-12 24 -36 74
q-14 -19 -22 -39t-19 -40h-6q-15 -1 -30 8q-18 10 -18 26q29 19 50 38q21 18 44 40zM304 421q29 -14 31 -3q1 6 -19 6q-7 0 -15 -2q1 -1 3 -1z" />
    <glyph glyph-name="Edieresis" unicode="&#xcb;" horiz-adv-x="679" 
d="M451 537q-17 -8 -31 -8t-24 5q-24 10 -28 38q-4 27 14 42q12 -9 22 -11t18 0q23 8 23 45q0 38 -27 65q-13 13 -30 21q-18 7 -42 7q-49 0 -82 -41t-37 -101q-3 -39 5 -69q7 -30 20 -52q6 -13 13 -23q45 6 78 -5q37 -13 31 -38q-6 -30 -42 -28q-33 2 -71 23q-11 -7 -23 -16
q-16 -12 -30 -30q-22 -28 -37 -72t-15 -109q-1 -98 54 -162t131 -79q42 -8 85 0q44 7 84 33q50 32 91 93q40 60 63 154q7 2 16 3q9 0 19 -2q-21 -107 -69 -178q-49 -70 -111 -108q-51 -32 -108 -43q-34 -6 -67 -6q-22 0 -43 2q-101 14 -175 84q-75 70 -77 183v7q0 87 27 144
q27 60 67 95q26 22 55 35q8 4 17 7l-3 3q-20 19 -36 44q-15 23 -23 50t-7 57q5 77 67 126t136 50h4q27 0 50 -7q24 -8 43 -22q20 -14 34 -33t21 -41q13 -39 2 -77q-12 -38 -52 -55zM259 819q-11 8 -11 27q0 6 1 14q5 31 18 34q11 -7 23 -5q13 3 30 -8q14 -8 14 -24
q0 -3 -1 -8q-4 -22 -12 -29q-11 -10 -29 -11h-3q-17 0 -30 10zM387 895q4 2 9 2q11 0 29 -10q26 -15 26 -32v-1q-1 -18 -14 -32q-12 -14 -26 -16h-3q-11 0 -28 9q-16 9 -17 25q0 2 1 5q3 21 12 29q10 8 11 21zM304 421q29 -14 31 -3q1 6 -19 6q-7 0 -15 -2q1 -1 3 -1z" />
    <glyph glyph-name="Igrave" unicode="&#xcc;" horiz-adv-x="385" 
d="M94 -14q5 1 10 15q4 13 9 36q8 44 14 113q7 70 12 148q3 52 6 105t5 102q4 91 5 157q2 65 0 74q1 23 37 28q9 1 17 1q23 0 38 -10q-4 -4 -7 -48q-3 -46 -4 -117q-1 -38 -1 -81q-1 -43 -1 -88v-396q0 -73 -3 -88q-11 -21 -47 -23q-4 -1 -8 -1q-31 0 -55 19q-12 9 -19 22
t-8 32zM140 883q-9 7 -10 28v3q0 18 12 27q5 5 13 5h2q7 0 17 -4q38 -17 57 -57q18 -40 21 -73q-1 -7 -7 -8q-3 -1 -6 -1q-4 0 -9 1q-10 27 -42 50q-33 23 -48 29z" />
    <glyph glyph-name="Iacute" unicode="&#xcd;" horiz-adv-x="385" 
d="M94 -14q5 1 10 15q4 13 9 36q8 44 14 113q7 70 12 148q3 52 6 105t5 102q4 91 5 157q2 65 0 74q1 23 37 28q9 1 17 1q23 0 38 -10q-4 -4 -7 -48q-3 -46 -4 -117q-1 -38 -1 -81q-1 -43 -1 -88v-396q0 -73 -3 -88q-11 -21 -47 -23q-4 -1 -8 -1q-31 0 -55 19q-12 9 -19 22
t-8 32zM189 797q-5 -1 -9 -1h-6q-6 2 -7 9q3 32 21 73q19 40 57 57q10 4 17 4h2q8 -1 13 -5q12 -9 12 -28v-2q-1 -21 -10 -28q-15 -6 -48 -29q-32 -23 -42 -50z" />
    <glyph glyph-name="Icircumflex" unicode="&#xce;" horiz-adv-x="385" 
d="M94 -14q5 1 10 15q4 13 9 36q8 44 14 113q7 70 12 148q3 52 6 105t5 102q4 91 5 157q2 65 0 74q1 23 37 28q9 1 17 1q23 0 38 -10q-4 -4 -7 -48q-3 -46 -4 -117q-1 -38 -1 -81q-1 -43 -1 -88v-396q0 -73 -3 -88q-11 -21 -47 -23q-4 -1 -8 -1q-31 0 -55 19q-12 9 -19 22
t-8 32zM203 914q29 -23 88 -71q1 -3 1 -7q0 -11 -13 -21q-17 -13 -40 -8q-11 24 -35 74q-14 -19 -22 -39t-20 -40h-6q-14 -1 -29 8q-18 10 -18 26q29 19 50 38q21 18 44 40z" />
    <glyph glyph-name="Idieresis" unicode="&#xcf;" horiz-adv-x="385" 
d="M94 -14q5 1 10 15q4 13 9 36q8 44 14 113q7 70 12 148q3 52 6 105t5 102q4 91 5 157q2 65 0 74q1 23 37 28q9 1 17 1q23 0 38 -10q-4 -4 -7 -48q-3 -46 -4 -117q-1 -38 -1 -81q-1 -43 -1 -88v-396q0 -73 -3 -88q-11 -21 -47 -23q-4 -1 -8 -1q-31 0 -55 19q-12 9 -19 22
t-8 32zM251 883q3 2 9 2q11 0 29 -10q25 -15 25 -32v-2q-1 -17 -13 -31q-12 -15 -26 -17h-3q-11 0 -28 10q-17 9 -17 25v5q3 20 13 28t11 22zM122 807q-10 8 -10 27q0 6 1 14q5 31 18 34q11 -7 23 -5q12 3 30 -8q13 -8 13 -24v-8q-4 -22 -12 -29q-11 -10 -30 -11h-2
q-17 0 -31 10z" />
    <glyph glyph-name="Eth" unicode="&#xd0;" horiz-adv-x="862" 
d="M750 327q-3 -96 -34 -174q-31 -77 -80 -133q-40 -45 -88 -77q-49 -31 -101 -47t-102 -16q-43 0 -84 11q-91 25 -140 110q-19 32 -25 63q-5 23 -5 45v14q5 53 32 91q27 37 57 49q22 6 36 4q14 -3 21 -11q14 -16 12 -44t-6 -51q-29 19 -57 3t-38 -51q-6 -19 -4 -42t14 -47
q20 -40 48 -65q28 -26 62 -36q61 -20 132 6q71 27 128 92q48 54 81 131q32 78 37 175q4 101 -34 186q-37 86 -98 135q-33 26 -70 40t-76 11q-47 -3 -94 -34q-46 -30 -87 -93q-32 -14 -43 12q-12 27 13 62q35 33 76 54q42 22 86 32q37 8 75 8q46 0 93 -12q85 -22 149 -85
q53 -51 85 -130q29 -73 29 -170v-16zM427 371q20 -15 22 -32v-5q0 -14 -10 -26q-49 5 -79 4q-1 -26 -3 -51q-7 -105 -12 -188q-5 -82 -1 -89q-12 -16 -34 -15q-5 0 -11 1q-31 5 -35 37q2 8 5 28q2 19 5 47q4 52 7 125q2 50 3 101h-5q-14 0 -31 1q-17 0 -38 2q-26 11 -26 30
v5q4 24 33 35q17 -19 68 -16q1 83 -2 147q-3 70 -13 75q10 43 44 59q12 6 23 6q20 0 36 -18q2 -4 2 -22q1 -6 1 -12q0 -15 -1 -36q-2 -55 -7 -137l-4 -56q30 1 63 0z" />
    <glyph glyph-name="Ntilde" unicode="&#xd1;" horiz-adv-x="932" 
d="M745 -42q-55 12 -71 78q-17 67 -13 158q1 48 7 101q5 53 11 104q5 43 10 83t8 76q5 65 1 109q-5 44 -30 48q-34 6 -65 -27q-32 -33 -60 -86q-14 -29 -28 -61q-13 -33 -25 -66q-22 -64 -36 -123q-15 -60 -19 -94q-6 -40 -19 -122q-14 -81 -44 -152q-21 -48 -51 -80
q-30 -33 -73 -36h-11q-25 0 -45 8q-25 9 -44 27q-20 19 -32 45q-13 26 -18 54q-5 25 -5 49q0 29 7 58q13 53 48 80q18 13 42 17q23 4 53 -6q8 -3 12 -8q5 -5 7 -12q6 -20 -5 -43q-12 -24 -21 -20q-19 20 -34 26q-15 7 -27 2q-23 -9 -32 -50q-10 -40 -3 -85q4 -24 13 -47
q9 -22 23 -39q14 -16 32 -25q19 -8 43 -6q15 1 28 14q14 14 24 37q20 44 32 115t18 152q3 53 4 108q2 55 1 106q-2 96 -10 168q-9 72 -21 89q20 32 62 41q43 10 61 -13q1 -22 2 -49q2 -26 2 -53q1 -50 1 -93q-1 -43 -2 -57l9 30q6 19 14 44q17 47 44 102q27 54 64 88
q20 18 42 27q17 8 37 8q5 0 10 -1q50 -5 77 -40t38 -89q12 -56 10 -127q-3 -71 -12 -144q-5 -48 -13 -94q-7 -46 -13 -87q-12 -77 -17 -129q-4 -51 13 -56q15 -4 30 0q14 5 28 17t26 29q13 18 24 38q20 38 34 77q13 38 18 57q11 0 18 1t17 -4q-2 -10 -6 -26q-5 -17 -12 -37
q-13 -37 -36 -81q-23 -43 -54 -71q-21 -20 -46 -29q-24 -9 -52 -3zM711 918q19 -4 29 -26q5 -12 5 -24q0 -11 -4 -21q-4 -9 -12 -17q-7 -9 -20 -14q-8 -3 -17 -3q-11 0 -23 6q-20 12 -38 24q-10 7 -19 13q-9 5 -17 6q-10 1 -17 -6q-7 -8 -12 -29q-11 5 -18 26q-3 10 -3 19
q0 11 4 22t13 20t24 14q5 2 10 2q4 0 9 -1q9 -3 18 -9q17 -10 33 -24q15 -15 28 -16q8 -1 15 8q7 8 12 30z" />
    <glyph glyph-name="Ograve" unicode="&#xd2;" horiz-adv-x="802" 
d="M551 61q40 -8 73 -3q33 6 59 21q48 27 74 68q25 42 29 59q12 0 36 -1q-4 -21 -33 -71q-30 -51 -89 -84q-32 -18 -73 -26q-42 -8 -93 2q-11 2 -22 5l-2 -2q-36 -39 -82 -61q-43 -21 -93 -21h-7q-46 1 -85 18t-69 46q-57 54 -85 140q-28 84 -28 174v5q1 95 32 184
q32 90 96 147q40 35 93 54q42 15 92 15q17 16 37 27q34 19 79 19h3q34 -1 61 -18q26 -17 46 -47q36 -55 48 -144q13 -89 2 -186q-11 -99 -46 -194q-26 -71 -65 -123zM333 693q-28 -10 -52 -31q-44 -39 -71 -107q-28 -68 -39 -147q-8 -52 -8 -105t7 -102q14 -91 55 -156
q40 -65 108 -68q46 -3 84 40q20 22 36 52q-14 14 -27 30q-45 54 -75 134q-31 80 -43 165q-12 88 -2 170q9 77 43 129q-8 -1 -16 -4zM482 130q15 37 27 80q12 42 21 88q20 102 22 204q3 102 -13 168q-9 35 -23 56q-15 21 -35 21q-27 2 -48 -14q-20 -16 -34 -45
q-27 -53 -32 -139q-6 -86 7 -175q6 -40 16 -78q9 -38 22 -72q24 -64 59 -109q2 -3 3 -5zM360 875q-9 7 -9 28v2q0 19 11 28q6 4 14 5h1q8 0 18 -5q38 -16 56 -57q18 -40 21 -72q0 -8 -7 -9h-5q-4 0 -9 1q-10 27 -43 49q-33 23 -48 30z" />
    <glyph glyph-name="Oacute" unicode="&#xd3;" horiz-adv-x="802" 
d="M551 61q40 -8 73 -3q33 6 59 21q48 27 74 68q25 42 29 59q12 0 36 -1q-4 -21 -33 -71q-30 -51 -89 -84q-32 -18 -73 -26q-42 -8 -93 2q-11 2 -22 5l-2 -2q-36 -39 -82 -61q-43 -21 -93 -21h-7q-46 1 -85 18t-69 46q-57 54 -85 140q-28 84 -28 174v5q1 95 32 184
q32 90 96 147q40 35 93 54q42 15 92 15q17 16 37 27q34 19 79 19h3q34 -1 61 -18q26 -17 46 -47q36 -55 48 -144q13 -89 2 -186q-11 -99 -46 -194q-26 -71 -65 -123zM333 693q-28 -10 -52 -31q-44 -39 -71 -107q-28 -68 -39 -147q-8 -52 -8 -105t7 -102q14 -91 55 -156
q40 -65 108 -68q46 -3 84 40q20 22 36 52q-14 14 -27 30q-45 54 -75 134q-31 80 -43 165q-12 88 -2 170q9 77 43 129q-8 -1 -16 -4zM482 130q15 37 27 80q12 42 21 88q20 102 22 204q3 102 -13 168q-9 35 -23 56q-15 21 -35 21q-27 2 -48 -14q-20 -16 -34 -45
q-27 -53 -32 -139q-6 -86 7 -175q6 -40 16 -78q9 -38 22 -72q24 -64 59 -109q2 -3 3 -5zM409 793q-4 -1 -8 -1q-3 0 -6 1q-7 1 -7 8q3 33 21 73t57 57q10 4 17 4h2q8 0 13 -4q12 -10 12 -28v-3q-1 -20 -10 -28q-15 -6 -48 -29q-32 -23 -43 -50z" />
    <glyph glyph-name="Ocircumflex" unicode="&#xd4;" horiz-adv-x="802" 
d="M551 61q40 -8 73 -3q33 6 59 21q48 27 74 68q25 42 29 59q12 0 36 -1q-4 -21 -33 -71q-30 -51 -89 -84q-32 -18 -73 -26q-42 -8 -93 2q-11 2 -22 5l-2 -2q-36 -39 -82 -61q-43 -21 -93 -21h-7q-46 1 -85 18t-69 46q-57 54 -85 140q-28 84 -28 174v5q1 95 32 184
q32 90 96 147q40 35 93 54q42 15 92 15q17 16 37 27q34 19 79 19h3q34 -1 61 -18q26 -17 46 -47q36 -55 48 -144q13 -89 2 -186q-11 -99 -46 -194q-26 -71 -65 -123zM333 693q-28 -10 -52 -31q-44 -39 -71 -107q-28 -68 -39 -147q-8 -52 -8 -105t7 -102q14 -91 55 -156
q40 -65 108 -68q46 -3 84 40q20 22 36 52q-14 14 -27 30q-45 54 -75 134q-31 80 -43 165q-12 88 -2 170q9 77 43 129q-8 -1 -16 -4zM482 130q15 37 27 80q12 42 21 88q20 102 22 204q3 102 -13 168q-9 35 -23 56q-15 21 -35 21q-27 2 -48 -14q-20 -16 -34 -45
q-27 -53 -32 -139q-6 -86 7 -175q6 -40 16 -78q9 -38 22 -72q24 -64 59 -109q2 -3 3 -5zM430 914q29 -23 88 -71q1 -3 1 -7q0 -11 -13 -21q-17 -13 -40 -8q-11 24 -35 74q-14 -19 -22 -39t-20 -40h-6q-14 -1 -29 8q-18 10 -18 26q29 19 50 38q21 18 44 40z" />
    <glyph glyph-name="Otilde" unicode="&#xd5;" horiz-adv-x="802" 
d="M551 61q40 -8 73 -3q33 6 59 21q48 27 74 68q25 42 29 59q12 0 36 -1q-4 -21 -33 -71q-30 -51 -89 -84q-32 -18 -73 -26q-42 -8 -93 2q-11 2 -22 5l-2 -2q-36 -39 -82 -61q-43 -21 -93 -21h-7q-46 1 -85 18t-69 46q-57 54 -85 140q-28 84 -28 174v5q1 95 32 184
q32 90 96 147q40 35 93 54q42 15 92 15q17 16 37 27q34 19 79 19h3q34 -1 61 -18q26 -17 46 -47q36 -55 48 -144q13 -89 2 -186q-11 -99 -46 -194q-26 -71 -65 -123zM333 693q-28 -10 -52 -31q-44 -39 -71 -107q-28 -68 -39 -147q-8 -52 -8 -105t7 -102q14 -91 55 -156
q40 -65 108 -68q46 -3 84 40q20 22 36 52q-14 14 -27 30q-45 54 -75 134q-31 80 -43 165q-12 88 -2 170q9 77 43 129q-8 -1 -16 -4zM482 130q15 37 27 80q12 42 21 88q20 102 22 204q3 102 -13 168q-9 35 -23 56q-15 21 -35 21q-27 2 -48 -14q-20 -16 -34 -45
q-27 -53 -32 -139q-6 -86 7 -175q6 -40 16 -78q9 -38 22 -72q24 -64 59 -109q2 -3 3 -5zM499 918q20 -4 29 -26q6 -12 5 -24q0 -10 -4 -21q-3 -9 -11 -17t-21 -14q-7 -3 -15 -3q-3 0 -6 1q-10 2 -21 7q-20 10 -38 24q-19 15 -33 17q-10 1 -17 -6q-8 -7 -12 -29q-12 6 -19 26
q-3 10 -3 20t4 21t13 20t24 14q5 2 10 2t9 -1q10 -3 19 -8q17 -11 32 -25q16 -15 29 -16q8 -1 15 8q6 8 11 30z" />
    <glyph glyph-name="Odieresis" unicode="&#xd6;" horiz-adv-x="802" 
d="M551 61q40 -8 73 -3q33 6 59 21q48 27 74 68q25 42 29 59q12 0 36 -1q-4 -21 -33 -71q-30 -51 -89 -84q-32 -18 -73 -26q-42 -8 -93 2q-11 2 -22 5l-2 -2q-36 -39 -82 -61q-43 -21 -93 -21h-7q-46 1 -85 18t-69 46q-57 54 -85 140q-28 84 -28 174v5q1 95 32 184
q32 90 96 147q40 35 93 54q42 15 92 15q17 16 37 27q34 19 79 19h3q34 -1 61 -18q26 -17 46 -47q36 -55 48 -144q13 -89 2 -186q-11 -99 -46 -194q-26 -71 -65 -123zM333 693q-28 -10 -52 -31q-44 -39 -71 -107q-28 -68 -39 -147q-8 -52 -8 -105t7 -102q14 -91 55 -156
q40 -65 108 -68q46 -3 84 40q20 22 36 52q-14 14 -27 30q-45 54 -75 134q-31 80 -43 165q-12 88 -2 170q9 77 43 129q-8 -1 -16 -4zM482 130q15 37 27 80q12 42 21 88q20 102 22 204q3 102 -13 168q-9 35 -23 56q-15 21 -35 21q-27 2 -48 -14q-20 -16 -34 -45
q-27 -53 -32 -139q-6 -86 7 -175q6 -40 16 -78q9 -38 22 -72q24 -64 59 -109q2 -3 3 -5zM462 906q3 2 8 2q11 0 29 -10q26 -15 26 -32v-2q-1 -17 -13 -31t-27 -16q-1 -1 -3 -1q-10 0 -27 10q-17 9 -17 25v5q3 20 13 28q9 8 11 22zM333 830q-11 8 -11 27q0 6 2 14q5 31 17 34
q11 -7 24 -5q12 3 30 -8q13 -8 13 -24q0 -4 -1 -8q-4 -22 -12 -29q-10 -10 -29 -11h-2q-17 0 -31 10z" />
    <glyph glyph-name="multiply" unicode="&#xd7;" horiz-adv-x="378" 
d="M114 186q-7 -1 -12 -1q-13 0 -18 6q-7 9 -14 21q29 29 80 90q-51 64 -80 93q8 12 15 21q5 6 18 6q5 0 12 -1q17 -16 35 -38l35 -41q35 38 73 72q12 5 21 5q11 0 17 -8q4 -7 4 -17t-5 -24q-18 1 -47 -31q-15 -17 -31 -35q16 -19 31 -36q30 -32 47 -31q5 -12 5 -21
q0 -12 -7 -19q-12 -12 -28 -12h-5q-41 36 -78 78q-17 -20 -33 -40q-18 -21 -35 -37z" />
    <glyph glyph-name="Oslash" unicode="&#xd8;" horiz-adv-x="802" 
d="M114 -54q5 -2 16 11q12 13 28 38q6 9 12 19q-54 53 -81 137q-28 84 -28 174v5q1 95 32 184q32 90 96 147q40 35 93 54q42 15 92 15q17 16 37 27q34 19 79 19h3q32 -1 59 -17q1 4 3 7q12 26 13 31q12 7 35 10q4 1 9 1q19 0 39 -12q-3 -3 -13 -21t-25 -47q-5 -10 -11 -20
q34 -54 46 -141q13 -89 2 -186q-11 -99 -46 -194q-26 -71 -65 -123l12 -3q40 -8 73 -3q33 6 59 21q48 27 74 68q25 42 29 59q12 0 36 -1q-4 -21 -33 -71q-30 -51 -89 -84q-32 -18 -73 -26q-42 -8 -93 2q-11 2 -22 5l-2 -2q-36 -39 -82 -61q-43 -21 -93 -21h-7q-46 1 -85 18
l-16 8l-45 -90q-17 -7 -30 -7q-17 0 -27 13q-13 17 -13 40q0 8 2 17zM333 693q-28 -10 -52 -31q-44 -39 -71 -107q-28 -68 -39 -147q-8 -52 -8 -105t7 -102q11 -70 37 -125q12 20 25 44q43 79 90 169l6 12q-13 48 -20 97q-12 88 -2 170q9 77 43 129q-8 -1 -16 -4zM482 130
q15 37 27 80q12 42 21 88q20 102 22 204q1 58 -3 105l-8 -16q-43 -84 -92 -179q-29 -58 -59 -117q9 -37 22 -71q24 -64 59 -109q2 -3 3 -5zM516 726q-15 21 -35 21q-27 2 -48 -14q-20 -16 -34 -45q-27 -53 -32 -139q-6 -80 5 -162l62 126q55 112 90 187q1 3 3 6
q-5 11 -11 20zM333 -23q46 -3 84 40q20 22 36 52q-14 14 -27 30q-43 51 -72 124q-15 -30 -30 -59q-42 -84 -76 -150q35 -35 85 -37z" />
    <glyph glyph-name="Ugrave" unicode="&#xd9;" horiz-adv-x="927" 
d="M87 347q16 -5 23 -17q6 -12 3 -17q-24 -8 -35 -36q-10 -28 1 -51q5 -10 14 -18q10 -7 24 -10q24 -5 47 1q23 7 46 22q10 7 21 16q-7 48 -9 99q-3 60 1 120t15 115q19 101 62 167q38 59 93 59q6 0 13 -1q41 -5 56 -46q16 -42 11 -102q-2 -33 -10 -70q-8 -36 -21 -74
q-15 -46 -37 -91q-22 -46 -48 -86q-20 -29 -41 -54q1 -11 2 -21q3 -44 8 -82q9 -71 28 -119q18 -47 45 -50q20 -3 39 6q20 8 38 26q33 31 62 85q28 55 49 114q22 61 35 119q14 57 18 92q6 66 13 132q6 66 11 132q11 18 36 20q24 2 47 -8q16 -6 27 -17q12 -12 16 -27
q-15 -16 -25 -107q-11 -91 -14 -201q-3 -88 0 -172q3 -85 12 -139q5 -29 12 -46t16 -17q29 -2 51 35q23 38 39 83q11 30 18 57q8 27 12 42q11 0 34 -1q-4 -23 -21 -79t-45 -103q-18 -32 -41 -53q-21 -20 -46 -20h-4q-23 2 -42 13q-19 12 -35 31q-31 36 -48 89q-18 54 -26 99
q-4 24 -6 42q-1 18 -1 28q-5 -18 -19 -59q-14 -43 -39 -89q-13 -26 -29 -49q-15 -24 -34 -43q-22 -24 -49 -38t-57 -12t-55 19q-24 16 -44 44q-37 51 -58 133q-5 19 -9 40q-60 -41 -125 -26q-26 6 -43 19t-28 29q-14 24 -14 49q0 15 5 31q13 42 55 43zM359 419q20 41 36 84
q15 43 26 83q19 74 16 127q-2 54 -34 59q-29 4 -49 -58t-30 -156q-6 -50 -8 -106q-3 -56 -2 -111v-4q24 39 45 82zM501 862q-9 8 -10 28v3q0 18 12 28q5 4 13 4h2q7 0 17 -4q38 -17 56 -57t22 -73q-1 -7 -7 -8q-3 -1 -6 -1q-4 0 -9 1q-10 27 -43 50q-32 23 -47 29z" />
    <glyph glyph-name="Uacute" unicode="&#xda;" horiz-adv-x="927" 
d="M87 347q16 -5 23 -17q6 -12 3 -17q-24 -8 -35 -36q-10 -28 1 -51q5 -10 14 -18q10 -7 24 -10q24 -5 47 1q23 7 46 22q10 7 21 16q-7 48 -9 99q-3 60 1 120t15 115q19 101 62 167q38 59 93 59q6 0 13 -1q41 -5 56 -46q16 -42 11 -102q-2 -33 -10 -70q-8 -36 -21 -74
q-15 -46 -37 -91q-22 -46 -48 -86q-20 -29 -41 -54q1 -11 2 -21q3 -44 8 -82q9 -71 28 -119q18 -47 45 -50q20 -3 39 6q20 8 38 26q33 31 62 85q28 55 49 114q22 61 35 119q14 57 18 92q6 66 13 132q6 66 11 132q11 18 36 20q24 2 47 -8q16 -6 27 -17q12 -12 16 -27
q-15 -16 -25 -107q-11 -91 -14 -201q-3 -88 0 -172q3 -85 12 -139q5 -29 12 -46t16 -17q29 -2 51 35q23 38 39 83q11 30 18 57q8 27 12 42q11 0 34 -1q-4 -23 -21 -79t-45 -103q-18 -32 -41 -53q-21 -20 -46 -20h-4q-23 2 -42 13q-19 12 -35 31q-31 36 -48 89q-18 54 -26 99
q-4 24 -6 42q-1 18 -1 28q-5 -18 -19 -59q-14 -43 -39 -89q-13 -26 -29 -49q-15 -24 -34 -43q-22 -24 -49 -38t-57 -12t-55 19q-24 16 -44 44q-37 51 -58 133q-5 19 -9 40q-60 -41 -125 -26q-26 6 -43 19t-28 29q-14 24 -14 49q0 15 5 31q13 42 55 43zM359 419q20 41 36 84
q15 43 26 83q19 74 16 127q-2 54 -34 59q-29 4 -49 -58t-30 -156q-6 -50 -8 -106q-3 -56 -2 -111v-4q24 39 45 82zM573 771q-5 -1 -9 -1q-3 0 -6 1q-6 1 -6 9q3 32 21 72q18 41 56 57q10 5 18 5h1q8 -1 14 -5q11 -9 11 -28v-3q0 -20 -9 -28q-15 -6 -48 -29q-33 -22 -43 -50z
" />
    <glyph glyph-name="Ucircumflex" unicode="&#xdb;" horiz-adv-x="927" 
d="M87 347q16 -5 23 -17q6 -12 3 -17q-24 -8 -35 -36q-10 -28 1 -51q5 -10 14 -18q10 -7 24 -10q24 -5 47 1q23 7 46 22q10 7 21 16q-7 48 -9 99q-3 60 1 120t15 115q19 101 62 167q38 59 93 59q6 0 13 -1q41 -5 56 -46q16 -42 11 -102q-2 -33 -10 -70q-8 -36 -21 -74
q-15 -46 -37 -91q-22 -46 -48 -86q-20 -29 -41 -54q1 -11 2 -21q3 -44 8 -82q9 -71 28 -119q18 -47 45 -50q20 -3 39 6q20 8 38 26q33 31 62 85q28 55 49 114q22 61 35 119q14 57 18 92q6 66 13 132q6 66 11 132q11 18 36 20q24 2 47 -8q16 -6 27 -17q12 -12 16 -27
q-15 -16 -25 -107q-11 -91 -14 -201q-3 -88 0 -172q3 -85 12 -139q5 -29 12 -46t16 -17q29 -2 51 35q23 38 39 83q11 30 18 57q8 27 12 42q11 0 34 -1q-4 -23 -21 -79t-45 -103q-18 -32 -41 -53q-21 -20 -46 -20h-4q-23 2 -42 13q-19 12 -35 31q-31 36 -48 89q-18 54 -26 99
q-4 24 -6 42q-1 18 -1 28q-5 -18 -19 -59q-14 -43 -39 -89q-13 -26 -29 -49q-15 -24 -34 -43q-22 -24 -49 -38t-57 -12t-55 19q-24 16 -44 44q-37 51 -58 133q-5 19 -9 40q-60 -41 -125 -26q-26 6 -43 19t-28 29q-14 24 -14 49q0 15 5 31q13 42 55 43zM359 419q20 41 36 84
q15 43 26 83q19 74 16 127q-2 54 -34 59q-29 4 -49 -58t-30 -156q-6 -50 -8 -106q-3 -56 -2 -111v-4q24 39 45 82zM575 932q29 -24 87 -71q2 -4 2 -7q0 -12 -13 -21q-17 -13 -40 -9q-12 25 -35 74q-15 -19 -23 -39q-8 -19 -19 -40h-6q-15 0 -30 8q-18 10 -18 26q30 19 50 38
q21 19 45 41z" />
    <glyph glyph-name="Udieresis" unicode="&#xdc;" horiz-adv-x="927" 
d="M87 347q16 -5 23 -17q6 -12 3 -17q-24 -8 -35 -36q-10 -28 1 -51q5 -10 14 -18q10 -7 24 -10q24 -5 47 1q23 7 46 22q10 7 21 16q-7 48 -9 99q-3 60 1 120t15 115q19 101 62 167q38 59 93 59q6 0 13 -1q41 -5 56 -46q16 -42 11 -102q-2 -33 -10 -70q-8 -36 -21 -74
q-15 -46 -37 -91q-22 -46 -48 -86q-20 -29 -41 -54q1 -11 2 -21q3 -44 8 -82q9 -71 28 -119q18 -47 45 -50q20 -3 39 6q20 8 38 26q33 31 62 85q28 55 49 114q22 61 35 119q14 57 18 92q6 66 13 132q6 66 11 132q11 18 36 20q24 2 47 -8q16 -6 27 -17q12 -12 16 -27
q-15 -16 -25 -107q-11 -91 -14 -201q-3 -88 0 -172q3 -85 12 -139q5 -29 12 -46t16 -17q29 -2 51 35q23 38 39 83q11 30 18 57q8 27 12 42q11 0 34 -1q-4 -23 -21 -79t-45 -103q-18 -32 -41 -53q-21 -20 -46 -20h-4q-23 2 -42 13q-19 12 -35 31q-31 36 -48 89q-18 54 -26 99
q-4 24 -6 42q-1 18 -1 28q-5 -18 -19 -59q-14 -43 -39 -89q-13 -26 -29 -49q-15 -24 -34 -43q-22 -24 -49 -38t-57 -12t-55 19q-24 16 -44 44q-37 51 -58 133q-5 19 -9 40q-60 -41 -125 -26q-26 6 -43 19t-28 29q-14 24 -14 49q0 15 5 31q13 42 55 43zM359 419q20 41 36 84
q15 43 26 83q19 74 16 127q-2 54 -34 59q-29 4 -49 -58t-30 -156q-6 -50 -8 -106q-3 -56 -2 -111v-4q24 39 45 82zM611 886q4 2 9 2q11 0 29 -10q26 -15 26 -32v-2q-1 -17 -13 -31q-13 -15 -27 -16q-1 -1 -3 -1q-10 0 -27 10q-17 9 -17 25v5q3 20 13 28q9 8 10 22zM483 810
q-11 8 -11 27q0 6 2 14q5 31 17 34q11 -7 23 -5q13 3 30 -8q14 -8 14 -24q0 -4 -1 -8q-4 -22 -12 -29q-10 -10 -29 -11h-2q-18 0 -31 10z" />
    <glyph glyph-name="Yacute" unicode="&#xdd;" horiz-adv-x="842" 
d="M80 346q15 -5 20 -19t2 -19q-22 -7 -31 -32q-10 -25 0 -46q5 -9 13 -16q9 -7 22 -9q49 -11 98 29q-10 50 -12 103q-3 53 1 106t14 101q19 90 59 148q36 53 88 53q6 0 12 -1q20 -2 33 -15q13 -12 21 -32q13 -37 7 -95q-6 -57 -28 -121q-25 -77 -70 -150q-17 -27 -34 -49
q1 -17 3 -34q9 -85 27 -144t47 -62q51 -4 96 60q45 63 75 141q21 52 34 102q13 49 16 80q6 60 7 99q0 39 7 73q6 13 14 19q9 5 19 6q22 0 45 -23q22 -22 28 -48q-11 -10 -18 -42q-7 -33 -10 -82q-7 -92 -7 -224q-1 -74 -3 -148q2 2 4 3q26 12 49 27q36 22 62 52t36 74h35
q-7 -34 -21 -60t-34 -47q-37 -37 -87 -61l-45 -22l-4 -80q-3 -57 -8 -111q-6 -54 -14 -102q-16 -88 -45 -143q-30 -56 -80 -56q-77 0 -113 63q-36 64 -30 146q4 44 20 89q16 44 45 83q34 45 82 72q29 17 58 31v5v73q0 65 -1 110v54q-2 -9 -7 -23q-6 -15 -14 -33
q-15 -35 -41 -77q-25 -41 -58 -71q-21 -20 -46 -32q-25 -11 -52 -10q-29 2 -52 17q-24 14 -43 39q-36 45 -55 118l-6 22q-22 -12 -44 -18q-32 -9 -65 -2q-19 4 -33 14q-14 9 -23 21q-20 25 -20 54q0 13 4 26q11 45 51 46zM541 -51q-38 -26 -63 -65t-37 -79q-12 -41 -13 -78
q-2 -70 24 -120q27 -50 66 -52q12 -1 22 16q9 17 16 46q13 55 19 143q7 88 9 178q0 20 1 39q-23 -13 -44 -28zM324 404q18 37 32 76q15 38 24 74q17 67 15 115q-2 49 -31 53q-12 2 -21 -8q-10 -11 -18 -31q-14 -38 -23 -102q-8 -65 -10 -139q-1 -49 0 -98q17 29 32 60z
M518 728q-4 -1 -9 -1q-3 0 -5 1q-7 1 -7 9q3 32 21 72q18 41 56 57q10 5 18 5h2q8 -1 13 -5q11 -9 12 -28v-3q-1 -20 -10 -28q-15 -6 -48 -29q-33 -22 -43 -50z" />
    <glyph glyph-name="germandbls" unicode="&#xdf;" horiz-adv-x="740" 
d="M580 611q-1 -29 -12 -55t-28 -49q-31 -43 -67 -71q-36 -27 -41 -32q4 -2 30 -3q27 -2 60 -14q18 -6 36 -15q18 -10 33 -25q24 -23 39 -60q12 -30 12 -72q0 -10 -1 -21q-3 -56 -25 -104t-55 -86q-61 -70 -141 -96q-32 -10 -59 -10q-41 0 -72 24q-26 21 -37 62
q-12 41 -7 81q3 21 10 40q8 19 20 32t29 18q17 6 38 2q32 -9 33 -46q2 -38 -14 -49q-34 18 -55 -17q-22 -35 -13 -72q2 -9 6 -17q5 -8 12 -15q35 -34 87 2q52 37 91 109q21 40 35 86q15 46 17 93q2 42 -9 68q-11 27 -30 43q-35 30 -78 34q-43 3 -53 7q-4 6 -4 15q0 10 4 18
q7 4 34 28q26 25 50 62q13 21 22 44q10 24 12 50q7 62 -17 97t-62 44q-19 5 -41 3t-42 -12q-43 -19 -65 -88q-23 -69 -35 -160q-6 -49 -10 -101t-7 -103q-5 -98 -11 -180q-5 -81 -18 -118q-7 -23 -40 -32q-32 -9 -54 6q-8 6 -13 14q-6 8 -8 19q17 -2 25 48q9 50 17 129
q4 42 9 90q6 48 13 98q11 76 28 150t46 133q20 41 46 72q27 30 61 44q46 19 92 19q16 0 32 -2q62 -9 101 -47q20 -21 32 -49t12 -63z" />
    <glyph glyph-name="agrave" unicode="&#xe0;" horiz-adv-x="444" 
d="M288 275q-3 -22 -11 -34t-19 -16q-21 -8 -44 3q-22 11 -29 24q12 6 23 29q12 23 5 41q-2 8 -9 13q-7 6 -20 8q-31 4 -59 -30q-28 -35 -46 -83q-22 -59 -22 -118q-1 -59 34 -72q21 -7 43 15q21 23 36 58q9 19 14 39q6 20 8 39q19 24 52 1t34 -41q-10 -17 -12 -48
q-2 -32 5 -60q5 -18 15 -31q10 -14 26 -16q19 -3 35 13q16 17 29 43q19 39 32 86q12 46 17 65q10 5 19 4q10 -1 18 -3q-2 -9 -6 -25q-4 -17 -10 -38q-12 -39 -31 -85q-20 -45 -48 -74q-14 -15 -31 -23q-14 -7 -30 -7h-7q-22 2 -39 11q-18 9 -31 22q-24 24 -36 53
q-11 28 -13 41q-5 -23 -36 -55q-31 -33 -68 -39q-16 -3 -32 1q-15 5 -29 18q-44 43 -44 111v7q2 73 36 135q22 41 56 71t74 36q23 4 43 4q50 0 76 -24q36 -34 32 -69zM121 475q-8 7 -9 26v3q0 17 11 26q5 3 13 4h1q7 0 16 -4q36 -16 53 -53q16 -38 19 -68q0 -6 -6 -8h-6
q-3 0 -7 1q-10 25 -40 46q-31 21 -45 27z" />
    <glyph glyph-name="aacute" unicode="&#xe1;" horiz-adv-x="444" 
d="M288 275q-3 -22 -11 -34t-19 -16q-21 -8 -44 3q-22 11 -29 24q12 6 23 29q12 23 5 41q-2 8 -9 13q-7 6 -20 8q-31 4 -59 -30q-28 -35 -46 -83q-22 -59 -22 -118q-1 -59 34 -72q21 -7 43 15q21 23 36 58q9 19 14 39q6 20 8 39q19 24 52 1t34 -41q-10 -17 -12 -48
q-2 -32 5 -60q5 -18 15 -31q10 -14 26 -16q19 -3 35 13q16 17 29 43q19 39 32 86q12 46 17 65q10 5 19 4q10 -1 18 -3q-2 -9 -6 -25q-4 -17 -10 -38q-12 -39 -31 -85q-20 -45 -48 -74q-14 -15 -31 -23q-14 -7 -30 -7h-7q-22 2 -39 11q-18 9 -31 22q-24 24 -36 53
q-11 28 -13 41q-5 -23 -36 -55q-31 -33 -68 -39q-16 -3 -32 1q-15 5 -29 18q-44 43 -44 111v7q2 73 36 135q22 41 56 71t74 36q23 4 43 4q50 0 76 -24q36 -34 32 -69zM178 400q-4 -1 -8 -1q-3 0 -6 1q-6 1 -6 8q3 30 20 67q17 38 52 53q9 4 16 4h2q7 0 12 -4q11 -8 11 -26
v-2q0 -20 -9 -26q-14 -6 -44 -28q-31 -21 -40 -46z" />
    <glyph glyph-name="acircumflex" unicode="&#xe2;" horiz-adv-x="444" 
d="M288 275q-3 -22 -11 -34t-19 -16q-21 -8 -44 3q-22 11 -29 24q12 6 23 29q12 23 5 41q-2 8 -9 13q-7 6 -20 8q-31 4 -59 -30q-28 -35 -46 -83q-22 -59 -22 -118q-1 -59 34 -72q21 -7 43 15q21 23 36 58q9 19 14 39q6 20 8 39q19 24 52 1t34 -41q-10 -17 -12 -48
q-2 -32 5 -60q5 -18 15 -31q10 -14 26 -16q19 -3 35 13q16 17 29 43q19 39 32 86q12 46 17 65q10 5 19 4q10 -1 18 -3q-2 -9 -6 -25q-4 -17 -10 -38q-12 -39 -31 -85q-20 -45 -48 -74q-14 -15 -31 -23q-14 -7 -30 -7h-7q-22 2 -39 11q-18 9 -31 22q-24 24 -36 53
q-11 28 -13 41q-5 -23 -36 -55q-31 -33 -68 -39q-16 -3 -32 1q-15 5 -29 18q-44 43 -44 111v7q2 73 36 135q22 41 56 71t74 36q23 4 43 4q50 0 76 -24q36 -34 32 -69zM175 508q29 -23 88 -71q1 -3 1 -7q0 -11 -13 -21q-17 -13 -40 -8q-11 24 -35 74q-14 -19 -22 -39t-20 -40
h-6q-14 -1 -29 8q-18 10 -18 26q29 19 50 38q21 18 44 40z" />
    <glyph glyph-name="atilde" unicode="&#xe3;" horiz-adv-x="444" 
d="M288 275q-3 -22 -11 -34t-19 -16q-21 -8 -44 3q-22 11 -29 24q12 6 23 29q12 23 5 41q-2 8 -9 13q-7 6 -20 8q-31 4 -59 -30q-28 -35 -46 -83q-22 -59 -22 -118q-1 -59 34 -72q21 -7 43 15q21 23 36 58q9 19 14 39q6 20 8 39q19 24 52 1t34 -41q-10 -17 -12 -48
q-2 -32 5 -60q5 -18 15 -31q10 -14 26 -16q19 -3 35 13q16 17 29 43q19 39 32 86q12 46 17 65q10 5 19 4q10 -1 18 -3q-2 -9 -6 -25q-4 -17 -10 -38q-12 -39 -31 -85q-20 -45 -48 -74q-14 -15 -31 -23q-14 -7 -30 -7h-7q-22 2 -39 11q-18 9 -31 22q-24 24 -36 53
q-11 28 -13 41q-5 -23 -36 -55q-31 -33 -68 -39q-16 -3 -32 1q-15 5 -29 18q-44 43 -44 111v7q2 73 36 135q22 41 56 71t74 36q23 4 43 4q50 0 76 -24q36 -34 32 -69zM239 510q20 -4 29 -26q5 -12 5 -24q0 -10 -4 -21q-3 -9 -11 -17t-21 -13q-7 -3 -15 -3h-6q-10 2 -21 7
q-20 10 -38 25q-19 15 -33 16q-10 2 -17 -6q-8 -7 -12 -28q-12 5 -19 25q-3 10 -3 20q0 11 4 21q4 11 13 20q9 10 24 15q5 1 10 1t9 -1q10 -2 19 -8q17 -10 32 -25q16 -14 29 -15q8 -1 15 7q6 8 11 30z" />
    <glyph glyph-name="adieresis" unicode="&#xe4;" horiz-adv-x="444" 
d="M288 275q-3 -22 -11 -34t-19 -16q-21 -8 -44 3q-22 11 -29 24q12 6 23 29q12 23 5 41q-2 8 -9 13q-7 6 -20 8q-31 4 -59 -30q-28 -35 -46 -83q-22 -59 -22 -118q-1 -59 34 -72q21 -7 43 15q21 23 36 58q9 19 14 39q6 20 8 39q19 24 52 1t34 -41q-10 -17 -12 -48
q-2 -32 5 -60q5 -18 15 -31q10 -14 26 -16q19 -3 35 13q16 17 29 43q19 39 32 86q12 46 17 65q10 5 19 4q10 -1 18 -3q-2 -9 -6 -25q-4 -17 -10 -38q-12 -39 -31 -85q-20 -45 -48 -74q-14 -15 -31 -23q-14 -7 -30 -7h-7q-22 2 -39 11q-18 9 -31 22q-24 24 -36 53
q-11 28 -13 41q-5 -23 -36 -55q-31 -33 -68 -39q-16 -3 -32 1q-15 5 -29 18q-44 43 -44 111v7q2 73 36 135q22 41 56 71t74 36q23 4 43 4q50 0 76 -24q36 -34 32 -69zM97 407q-11 7 -11 27q0 6 1 14q5 30 18 34q11 -7 23 -5q13 2 30 -8q14 -8 14 -24q0 -4 -1 -8
q-4 -22 -12 -30q-11 -10 -29 -10h-2q-18 0 -31 10zM225 482q4 3 9 3q11 0 29 -11q26 -14 26 -31v-2q-1 -17 -14 -32q-12 -14 -26 -16h-3q-10 0 -28 10q-16 9 -17 25q0 2 1 5q3 20 12 28q10 8 11 21z" />
    <glyph glyph-name="aring" unicode="&#xe5;" horiz-adv-x="444" 
d="M288 275q-3 -22 -11 -34t-19 -16q-21 -8 -44 3q-22 11 -29 24q12 6 23 29q12 23 5 41q-2 8 -9 13q-7 6 -20 8q-31 4 -59 -30q-28 -35 -46 -83q-22 -59 -22 -118q-1 -59 34 -72q21 -7 43 15q21 23 36 58q9 19 14 39q6 20 8 39q19 24 52 1t34 -41q-10 -17 -12 -48
q-2 -32 5 -60q5 -18 15 -31q10 -14 26 -16q19 -3 35 13q16 17 29 43q19 39 32 86q12 46 17 65q10 5 19 4q10 -1 18 -3q-2 -9 -6 -25q-4 -17 -10 -38q-12 -39 -31 -85q-20 -45 -48 -74q-14 -15 -31 -23q-14 -7 -30 -7h-7q-22 2 -39 11q-18 9 -31 22q-24 24 -36 53
q-11 28 -13 41q-5 -23 -36 -55q-31 -33 -68 -39q-16 -3 -32 1q-15 5 -29 18q-44 43 -44 111v7q2 73 36 135q22 41 56 71t74 36q23 4 43 4q50 0 76 -24q36 -34 32 -69zM175 495q8 -1 10 -7v-5q1 9 9 12q2 1 4 1q26 0 34 -32q2 -10 2 -20q0 -22 -14 -39q-6 -7 -15 -12
q-10 -4 -22 -4h-1q-17 0 -28 5q-12 5 -20 13q-16 15 -15 35q0 10 4 21q12 34 52 32zM182 477q-24 2 -26 -31q-2 -34 25 -33q14 0 19 29t-10 25q-6 5 -5 15q-1 -3 -3 -5z" />
    <glyph glyph-name="ae" unicode="&#xe6;" horiz-adv-x="581" 
d="M450 305q4 -24 -3 -45q-6 -22 -20 -41q-33 -45 -90 -70q-19 -9 -36 -14q3 -8 6 -18q12 -41 34 -73q11 -17 25 -29q14 -11 31 -12q26 -2 48 9q22 10 40 29q32 34 51 85q20 50 28 86q7 2 17 1q10 0 18 -1q-4 -21 -12 -50q-8 -28 -22 -58q-24 -56 -69 -102q-40 -42 -102 -42
q-6 0 -12 1q-39 2 -69 16q-30 15 -51 36q-19 19 -31 41q-1 -20 0 -38q2 -31 17 -35q-10 -15 -30 -18q-6 -1 -11 -1q-12 0 -20 5q-14 21 -22 60q-9 40 -10 49q-6 -23 -37 -55t-68 -39q-16 -2 -31 2q-16 4 -30 18q-44 43 -44 110v7q2 73 36 135q23 42 57 71q33 30 73 37
q24 3 43 3q50 0 76 -24q15 -14 22 -28q6 6 13 11q40 30 64 37q17 5 33 4q22 0 43 -8q38 -14 45 -52zM189 226q-23 11 -30 23q12 7 23 29q12 23 5 41q-2 8 -9 14t-20 7q-37 6 -70 -45t-48 -112q-12 -50 -8 -92q5 -43 33 -53q21 -8 43 15q21 23 37 57q8 19 13 39q6 20 8 39
q15 19 39 8q1 9 3 17q0 3 1 6q-10 2 -20 7zM310 176q31 18 52 54q21 35 24 53q5 29 -4 51q-8 21 -39 -2q-13 -10 -21 -24q-9 -14 -14 -30q-10 -31 -12 -59q-2 -29 -2 -36t1 -15q7 3 15 8z" />
    <glyph glyph-name="ccedilla" unicode="&#xe7;" horiz-adv-x="387" 
d="M81 -102q27 4 28 -13t-13 -32q-9 2 -15 1q-7 -1 -11 -4q-18 -15 -5 -58q14 -43 50 -64q11 -6 24 -9q14 -2 28 1q19 3 32 15q13 11 21 27q15 30 13 67t-17 60q-17 24 -36 44q-13 13 -25 26q-28 4 -51 15q-32 14 -56 36q-44 41 -60 97q-10 36 -10 68q0 18 3 35q5 30 18 54
q13 25 30 44q18 21 40 35q22 15 44 22q21 6 40 6q20 0 39 -7q37 -14 50 -60q4 -16 2 -30t-9 -26q-20 -35 -58 -43q-39 -9 -32 20q26 13 31 46q6 34 -10 52q-6 6 -14 9q-7 3 -17 2q-35 -3 -49 -45t-10 -96q5 -66 35 -126t82 -64q28 -2 50 8q23 11 41 29q34 33 54 83
q20 49 28 86q7 2 17 1q10 0 19 -1q-8 -39 -32 -101q-23 -61 -68 -104q-24 -23 -55 -37q-12 -4 -24 -7l12 -12q14 -15 28 -34q19 -26 19 -71v-2q0 -46 -26 -83q-14 -20 -37 -34q-22 -15 -54 -19q-11 -2 -21 -2q-15 0 -28 4q-23 5 -42 16q-36 23 -52 60q-9 22 -9 42q0 14 5 27
q6 16 22 29q15 12 41 17z" />
    <glyph glyph-name="egrave" unicode="&#xe8;" horiz-adv-x="353" 
d="M222 304q5 -23 -2 -45q-7 -21 -21 -41q-32 -44 -89 -69q-19 -9 -36 -14q3 -8 6 -18q12 -42 33 -74q12 -17 26 -28t30 -13q27 -1 48 9q22 11 40 30q33 34 52 84q19 51 27 87q7 1 17 1q10 -1 19 -2q-8 -38 -30 -99q-23 -60 -66 -104q-23 -23 -53 -36q-26 -12 -58 -12h-10
q-74 5 -114 47q-41 42 -56 96q-8 28 -9 57v8q0 24 5 45q16 80 56 110t65 37q16 5 33 5q21 0 43 -8q37 -15 44 -53zM83 176q30 18 51 53q21 36 24 54q5 29 -3 50q-8 22 -40 -2q-12 -9 -21 -23q-8 -15 -13 -31q-10 -30 -12 -59q-3 -28 -2 -36q0 -6 1 -13q8 2 15 7zM75 471
q-8 7 -9 26v3q0 17 11 25q5 4 13 5h1q7 0 16 -4q36 -16 52 -53q17 -38 20 -68q0 -7 -6 -8h-6q-3 0 -8 1q-9 25 -39 46q-31 21 -45 27z" />
    <glyph glyph-name="eacute" unicode="&#xe9;" horiz-adv-x="353" 
d="M222 304q5 -23 -2 -45q-7 -21 -21 -41q-32 -44 -89 -69q-19 -9 -36 -14q3 -8 6 -18q12 -42 33 -74q12 -17 26 -28t30 -13q27 -1 48 9q22 11 40 30q33 34 52 84q19 51 27 87q7 1 17 1q10 -1 19 -2q-8 -38 -30 -99q-23 -60 -66 -104q-23 -23 -53 -36q-26 -12 -58 -12h-10
q-74 5 -114 47q-41 42 -56 96q-8 28 -9 57v8q0 24 5 45q16 80 56 110t65 37q16 5 33 5q21 0 43 -8q37 -15 44 -53zM83 176q30 18 51 53q21 36 24 54q5 29 -3 50q-8 22 -40 -2q-12 -9 -21 -23q-8 -15 -13 -31q-10 -30 -12 -59q-3 -28 -2 -36q0 -6 1 -13q8 2 15 7zM137 395
q-4 -1 -7 -1t-6 1q-6 1 -7 8q4 30 20 67q17 38 53 53q9 4 16 5l1 -1q8 0 13 -4q11 -8 11 -25v-3q-1 -19 -9 -26q-14 -6 -45 -27q-30 -21 -40 -47z" />
    <glyph glyph-name="ecircumflex" unicode="&#xea;" horiz-adv-x="353" 
d="M222 304q5 -23 -2 -45q-7 -21 -21 -41q-32 -44 -89 -69q-19 -9 -36 -14q3 -8 6 -18q12 -42 33 -74q12 -17 26 -28t30 -13q27 -1 48 9q22 11 40 30q33 34 52 84q19 51 27 87q7 1 17 1q10 -1 19 -2q-8 -38 -30 -99q-23 -60 -66 -104q-23 -23 -53 -36q-26 -12 -58 -12h-10
q-74 5 -114 47q-41 42 -56 96q-8 28 -9 57v8q0 24 5 45q16 80 56 110t65 37q16 5 33 5q21 0 43 -8q37 -15 44 -53zM83 176q30 18 51 53q21 36 24 54q5 29 -3 50q-8 22 -40 -2q-12 -9 -21 -23q-8 -15 -13 -31q-10 -30 -12 -59q-3 -28 -2 -36q0 -6 1 -13q8 2 15 7zM142 508
q30 -24 88 -71q1 -4 1 -7q1 -12 -12 -21q-17 -13 -40 -9q-12 25 -36 74q-14 -19 -22 -39q-8 -19 -19 -40h-6q-15 0 -30 8q-18 10 -18 26q29 19 50 38t44 41z" />
    <glyph glyph-name="edieresis" unicode="&#xeb;" horiz-adv-x="353" 
d="M222 304q5 -23 -2 -45q-7 -21 -21 -41q-32 -44 -89 -69q-19 -9 -36 -14q3 -8 6 -18q12 -42 33 -74q12 -17 26 -28t30 -13q27 -1 48 9q22 11 40 30q33 34 52 84q19 51 27 87q7 1 17 1q10 -1 19 -2q-8 -38 -30 -99q-23 -60 -66 -104q-23 -23 -53 -36q-26 -12 -58 -12h-10
q-74 5 -114 47q-41 42 -56 96q-8 28 -9 57v8q0 24 5 45q16 80 56 110t65 37q16 5 33 5q21 0 43 -8q37 -15 44 -53zM83 176q30 18 51 53q21 36 24 54q5 29 -3 50q-8 22 -40 -2q-12 -9 -21 -23q-8 -15 -13 -31q-10 -30 -12 -59q-3 -28 -2 -36q0 -6 1 -13q8 2 15 7zM178 493
q4 3 9 3q11 0 29 -11q26 -14 26 -31v-2q-1 -18 -13 -32q-13 -14 -27 -16h-3q-10 0 -27 10q-17 9 -17 24v6q3 20 13 28q9 8 10 21zM50 418q-11 7 -11 27q0 6 2 14q5 30 17 34q11 -7 23 -5q13 2 30 -8q14 -8 14 -24q0 -4 -1 -8q-4 -22 -12 -30q-10 -10 -29 -10h-2
q-18 0 -31 10z" />
    <glyph glyph-name="igrave" unicode="&#xec;" horiz-adv-x="228" 
d="M91 345q-3 -33 -9 -72t-11 -78q-10 -72 -8 -130t39 -65q23 -4 44 32q21 37 37 80q10 29 17 55q7 25 10 37q7 2 18 2q11 1 18 -2q-3 -16 -14 -56q-10 -41 -28 -83q-9 -23 -21 -43q-12 -21 -26 -36q-13 -14 -29 -21q-12 -6 -25 -6h-9q-48 6 -74 28t-37 53q-9 26 -10 56v13
q0 24 2 47q6 56 16 106q10 49 -2 67q10 21 52 30q11 3 20 3q24 0 30 -17zM-16 492q-9 7 -9 26v3q0 17 11 26q5 3 12 4h2q7 0 16 -4q35 -16 52 -53q17 -38 20 -68q0 -6 -6 -8h-6q-4 0 -8 1q-9 25 -40 46q-30 21 -44 27z" />
    <glyph glyph-name="iacute" unicode="&#xed;" horiz-adv-x="228" 
d="M91 345q-3 -33 -9 -72t-11 -78q-10 -72 -8 -130t39 -65q23 -4 44 32q21 37 37 80q10 29 17 55q7 25 10 37q7 2 18 2q11 1 18 -2q-3 -16 -14 -56q-10 -41 -28 -83q-9 -23 -21 -43q-12 -21 -26 -36q-13 -14 -29 -21q-12 -6 -25 -6h-9q-48 6 -74 28t-37 53q-9 26 -10 56v13
q0 24 2 47q6 56 16 106q10 49 -2 67q10 21 52 30q11 3 20 3q24 0 30 -17zM27 417q-4 -1 -7 -1t-6 1q-6 1 -7 8q3 30 20 67q17 38 53 53q9 4 15 4h2q8 0 13 -4q10 -8 11 -26v-2q-1 -20 -9 -27q-14 -5 -45 -27q-30 -21 -40 -46z" />
    <glyph glyph-name="icircumflex" unicode="&#xee;" horiz-adv-x="228" 
d="M91 345q-3 -33 -9 -72t-11 -78q-10 -72 -8 -130t39 -65q23 -4 44 32q21 37 37 80q10 29 17 55q7 25 10 37q7 2 18 2q11 1 18 -2q-3 -16 -14 -56q-10 -41 -28 -83q-9 -23 -21 -43q-12 -21 -26 -36q-13 -14 -29 -21q-12 -6 -25 -6h-9q-48 6 -74 28t-37 53q-9 26 -10 56v13
q0 24 2 47q6 56 16 106q10 49 -2 67q10 21 52 30q11 3 20 3q24 0 30 -17zM56 541q29 -23 88 -71q1 -4 1 -7q0 -11 -12 -21q-17 -13 -40 -8q-12 24 -36 73q-14 -18 -22 -38t-19 -40q-3 -1 -6 -1q-15 0 -30 9q-18 10 -18 26q29 19 50 38q21 18 44 40z" />
    <glyph glyph-name="idieresis" unicode="&#xef;" horiz-adv-x="228" 
d="M91 345q-3 -33 -9 -72t-11 -78q-10 -72 -8 -130t39 -65q23 -4 44 32q21 37 37 80q10 29 17 55q7 25 10 37q7 2 18 2q11 1 18 -2q-3 -16 -14 -56q-10 -41 -28 -83q-9 -23 -21 -43q-12 -21 -26 -36q-13 -14 -29 -21q-12 -6 -25 -6h-9q-48 6 -74 28t-37 53q-9 26 -10 56v13
q0 24 2 47q6 56 16 106q10 49 -2 67q10 21 52 30q11 3 20 3q24 0 30 -17zM98 489q4 3 9 3q11 -1 29 -11q25 -14 26 -31v-2q-1 -18 -14 -32q-12 -14 -26 -16h-3q-11 0 -28 10q-16 9 -17 24q0 3 1 6q3 20 12 28q10 8 11 21zM-30 414q-11 7 -11 27q0 6 1 14q5 30 18 34
q11 -8 23 -5q12 2 30 -8q13 -8 14 -24q0 -4 -1 -8q-4 -22 -12 -30q-11 -10 -29 -10h-3q-17 0 -30 10z" />
    <glyph glyph-name="ntilde" unicode="&#xf1;" 
d="M29 357q3 -8 6 -21t6 -28q4 -28 6 -55t2 -36q5 15 24 54q19 40 50 69q14 12 29 20q15 7 31 7h2q23 0 38 -16q14 -16 24 -41q10 -27 15 -61q5 -35 8 -71q5 -66 9 -121t24 -59q24 -4 46 33q22 38 37 81q10 30 17 56q7 25 10 37q7 4 18 4q11 -1 17 -6q-2 -11 -7 -28
q-4 -17 -10 -37q-11 -38 -29 -78q-18 -41 -44 -69q-18 -19 -39 -28q-21 -10 -47 -6q-28 4 -45 22q-18 17 -28 43q-11 27 -15 61q-4 33 -5 67q-2 63 -3 114q-1 50 -26 52q-16 1 -37 -27q-20 -28 -35 -63q-10 -24 -16 -47q-7 -23 -6 -39q1 -35 -1 -80t-4 -84q-9 -24 -40 -26
h-5q-27 0 -35 17q5 25 7 64q1 40 1 84q-1 66 -8 127q-6 62 -17 82q3 25 31 36q28 12 44 -3zM208 516q20 -3 30 -26q5 -12 5 -24q0 -10 -5 -20q-3 -10 -11 -18t-20 -13q-8 -4 -17 -4q-11 0 -23 7q-20 11 -39 24q-9 7 -18 12q-9 6 -17 7q-10 1 -17 -7q-8 -7 -12 -28
q-12 5 -18 26q-4 9 -3 19q0 11 3 21q4 11 13 21q9 9 25 14q5 1 10 1q4 1 8 -1q10 -2 19 -8q17 -10 33 -25q15 -14 28 -15q8 -1 15 7t11 30z" />
    <glyph glyph-name="ograve" unicode="&#xf2;" 
d="M152 376q19 -4 20 -17q0 -14 -9 -27q-16 1 -29 -7q-14 -8 -24 -23q-19 -28 -27 -73t-6 -91q3 -57 23 -102t56 -44q27 1 47 60q10 29 16 60q-24 34 -40 74q-14 35 -19 70q-5 34 5 60q5 17 18 28q12 12 32 16q59 15 83 -34q24 -48 19 -117q-2 -30 -9 -60t-17 -56
q13 -11 26 -12q16 -1 29 6t23 19q19 21 29 52t14 49q13 0 37 -1q-5 -20 -19 -59q-15 -40 -43 -69q-15 -15 -34 -24q-20 -10 -45 -8q-17 1 -33 11q-18 -32 -41 -57q-34 -37 -79 -38h-2q-47 0 -81 18q-35 17 -57 47q-16 21 -25 48q-9 26 -12 54q-2 14 -2 28q0 39 12 78
q15 53 48 90q22 24 51 38q27 13 60 13h5zM135 484q-8 7 -8 26v3q0 17 10 25q6 4 13 5h2q7 0 16 -4q35 -16 52 -53q17 -38 20 -68q-1 -6 -7 -8h-5q-4 0 -8 1q-10 25 -40 46t-45 27zM230 266q-5 38 -24 34q-13 -4 -8 -32t21 -64q5 -12 11 -24q4 49 0 86z" />
    <glyph glyph-name="oacute" unicode="&#xf3;" 
d="M152 376q19 -4 20 -17q0 -14 -9 -27q-16 1 -29 -7q-14 -8 -24 -23q-19 -28 -27 -73t-6 -91q3 -57 23 -102t56 -44q27 1 47 60q10 29 16 60q-24 34 -40 74q-14 35 -19 70q-5 34 5 60q5 17 18 28q12 12 32 16q59 15 83 -34q24 -48 19 -117q-2 -30 -9 -60t-17 -56
q13 -11 26 -12q16 -1 29 6t23 19q19 21 29 52t14 49q13 0 37 -1q-5 -20 -19 -59q-15 -40 -43 -69q-15 -15 -34 -24q-20 -10 -45 -8q-17 1 -33 11q-18 -32 -41 -57q-34 -37 -79 -38h-2q-47 0 -81 18q-35 17 -57 47q-16 21 -25 48q-9 26 -12 54q-2 14 -2 28q0 39 12 78
q15 53 48 90q22 24 51 38q27 13 60 13h5zM169 421q-4 -1 -8 -1q-3 0 -5 1q-6 1 -7 8q3 30 20 67q17 38 52 53q9 4 16 4h2q8 0 13 -4q10 -8 11 -26q0 -1 -1 -2q0 -19 -8 -26q-15 -6 -45 -27q-30 -22 -40 -47zM230 266q-5 38 -24 34q-13 -4 -8 -32t21 -64q5 -12 11 -24
q4 49 0 86z" />
    <glyph glyph-name="ocircumflex" unicode="&#xf4;" 
d="M152 376q19 -4 20 -17q0 -14 -9 -27q-16 1 -29 -7q-14 -8 -24 -23q-19 -28 -27 -73t-6 -91q3 -57 23 -102t56 -44q27 1 47 60q10 29 16 60q-24 34 -40 74q-14 35 -19 70q-5 34 5 60q5 17 18 28q12 12 32 16q59 15 83 -34q24 -48 19 -117q-2 -30 -9 -60t-17 -56
q13 -11 26 -12q16 -1 29 6t23 19q19 21 29 52t14 49q13 0 37 -1q-5 -20 -19 -59q-15 -40 -43 -69q-15 -15 -34 -24q-20 -10 -45 -8q-17 1 -33 11q-18 -32 -41 -57q-34 -37 -79 -38h-2q-47 0 -81 18q-35 17 -57 47q-16 21 -25 48q-9 26 -12 54q-2 14 -2 28q0 39 12 78
q15 53 48 90q22 24 51 38q27 13 60 13h5zM178 532q29 -24 88 -71q1 -4 1 -7q0 -12 -13 -21q-17 -13 -40 -9q-11 25 -35 74q-14 -19 -22 -39q-8 -19 -20 -40h-6q-14 0 -29 8q-18 10 -18 26q29 19 50 38t44 41zM230 266q-5 38 -24 34q-13 -4 -8 -32t21 -64q5 -12 11 -24
q4 49 0 86z" />
    <glyph glyph-name="otilde" unicode="&#xf5;" 
d="M152 376q19 -4 20 -17q0 -14 -9 -27q-16 1 -29 -7q-14 -8 -24 -23q-19 -28 -27 -73t-6 -91q3 -57 23 -102t56 -44q27 1 47 60q10 29 16 60q-24 34 -40 74q-14 35 -19 70q-5 34 5 60q5 17 18 28q12 12 32 16q59 15 83 -34q24 -48 19 -117q-2 -30 -9 -60t-17 -56
q13 -11 26 -12q16 -1 29 6t23 19q19 21 29 52t14 49q13 0 37 -1q-5 -20 -19 -59q-15 -40 -43 -69q-15 -15 -34 -24q-20 -10 -45 -8q-17 1 -33 11q-18 -32 -41 -57q-34 -37 -79 -38h-2q-47 0 -81 18q-35 17 -57 47q-16 21 -25 48q-9 26 -12 54q-2 14 -2 28q0 39 12 78
q15 53 48 90q22 24 51 38q27 13 60 13h5zM243 517q20 -4 29 -26q5 -12 5 -24q0 -11 -4 -21q-3 -9 -11 -17q-8 -9 -21 -14q-8 -3 -16 -3q-12 0 -23 6q-21 12 -39 24q-10 7 -19 13q-9 5 -17 6q-9 1 -16 -6q-8 -8 -12 -29q-12 5 -19 26q-3 10 -3 19q0 11 4 22t13 20t24 14
q5 2 10 2t9 -1q10 -3 19 -9q17 -10 32 -24q16 -15 28 -16q9 -1 15 8q7 8 12 30zM230 266q-5 38 -24 34q-13 -4 -8 -32t21 -64q5 -12 11 -24q4 49 0 86z" />
    <glyph glyph-name="odieresis" unicode="&#xf6;" 
d="M152 376q19 -4 20 -17q0 -14 -9 -27q-16 1 -29 -7q-14 -8 -24 -23q-19 -28 -27 -73t-6 -91q3 -57 23 -102t56 -44q27 1 47 60q10 29 16 60q-24 34 -40 74q-14 35 -19 70q-5 34 5 60q5 17 18 28q12 12 32 16q59 15 83 -34q24 -48 19 -117q-2 -30 -9 -60t-17 -56
q13 -11 26 -12q16 -1 29 6t23 19q19 21 29 52t14 49q13 0 37 -1q-5 -20 -19 -59q-15 -40 -43 -69q-15 -15 -34 -24q-20 -10 -45 -8q-17 1 -33 11q-18 -32 -41 -57q-34 -37 -79 -38h-2q-47 0 -81 18q-35 17 -57 47q-16 21 -25 48q-9 26 -12 54q-2 14 -2 28q0 39 12 78
q15 53 48 90q22 24 51 38q27 13 60 13h5zM227 501q3 3 9 3q10 -1 28 -11q26 -15 26 -31v-2q-1 -18 -13 -32t-27 -16h-3q-10 0 -27 9q-17 10 -17 25v5q3 21 13 29q9 8 11 21zM98 425q-11 8 -11 27l2 14q5 31 17 35q11 -8 24 -5q12 2 30 -8q13 -8 13 -24q0 -4 -1 -8
q-4 -22 -12 -30q-10 -10 -29 -10h-2q-17 0 -31 9zM230 266q-5 38 -24 34q-13 -4 -8 -32t21 -64q5 -12 11 -24q4 49 0 86z" />
    <glyph glyph-name="oslash" unicode="&#xf8;" 
d="M-24 -161q6 -3 15 7q9 9 21 28q23 34 53 94q3 7 6 13q-35 17 -56 46q-16 21 -25 48q-9 26 -12 54q-2 14 -2 28q0 39 12 78q15 53 48 90q22 24 51 38q27 13 60 13h5q19 -4 20 -17q0 -14 -9 -27q-16 1 -29 -7q-14 -8 -24 -23q-19 -28 -27 -73t-6 -91q3 -56 22 -100
q14 30 28 61q21 46 41 94l4 10q-9 27 -12 53q-5 34 5 60q5 17 18 28q12 12 32 16q13 3 24 3q14 35 25 65q22 61 22 71q18 14 34 14h3q17 -1 35 -13q-2 -7 -8 -24q-7 -16 -17 -41q-16 -41 -42 -99q4 -4 7 -10q24 -48 19 -117q-2 -30 -9 -60t-17 -56q13 -11 26 -12q16 -1 29 6
t23 19q19 21 29 52t14 49q13 0 37 -1q-5 -20 -19 -59q-15 -40 -43 -69q-15 -15 -34 -24q-20 -10 -45 -8q-17 1 -33 11q-18 -32 -41 -57q-34 -37 -79 -38h-2q-14 0 -27 2q-30 -64 -53 -114q-29 -62 -36 -74q-12 -4 -22 -4q-15 0 -24 11q-15 18 -15 56zM156 -8q27 1 47 60
q10 29 16 60q-8 12 -15 24l-22 -48q-22 -49 -42 -94q7 -2 16 -2zM206 300q-13 -4 -8 -32v-5q4 11 9 22q3 7 6 15q-3 1 -7 0zM231 199l-5 -12l4 -7q0 10 1 19z" />
    <glyph glyph-name="ugrave" unicode="&#xf9;" horiz-adv-x="462" 
d="M314 -43q-21 3 -37 14q-15 11 -25 26q-19 27 -26 60t-10 48q-4 -10 -19 -43q-14 -33 -41 -60q-14 -14 -31 -24q-18 -10 -39 -10q-27 -1 -45 13q-18 13 -30 36q-13 24 -19 56q-6 31 -9 65q-6 63 -6 120q1 56 -9 71q4 13 12 20q7 7 16 10t19 3q14 0 29 -6q26 -12 36 -32
q-1 -31 -5 -68q-4 -36 -7 -71q-6 -66 -3 -117q2 -51 30 -52q50 -2 79 78q29 79 39 201q4 11 11 18q7 8 16 11q25 10 55 -6q30 -15 31 -35q-9 -13 -17 -52q-7 -40 -10 -85q-4 -56 0 -104q5 -48 23 -52q11 -2 21 2t20 12q13 12 24 30q11 19 19 40q17 40 27 80t12 54
q8 -1 17 -1h19q-2 -13 -12 -55q-9 -41 -28 -85q-10 -24 -24 -46q-13 -22 -29 -37q-15 -15 -34 -22q-13 -6 -27 -6q-6 0 -13 1zM91 450q-8 7 -9 26v3q0 17 11 25q5 4 12 5h2q7 0 16 -4q35 -16 52 -53q17 -38 20 -68q0 -7 -6 -8h-6q-4 0 -8 1q-9 25 -40 46q-30 21 -44 27z" />
    <glyph glyph-name="uacute" unicode="&#xfa;" horiz-adv-x="462" 
d="M314 -43q-21 3 -37 14q-15 11 -25 26q-19 27 -26 60t-10 48q-4 -10 -19 -43q-14 -33 -41 -60q-14 -14 -31 -24q-18 -10 -39 -10q-27 -1 -45 13q-18 13 -30 36q-13 24 -19 56q-6 31 -9 65q-6 63 -6 120q1 56 -9 71q4 13 12 20q7 7 16 10t19 3q14 0 29 -6q26 -12 36 -32
q-1 -31 -5 -68q-4 -36 -7 -71q-6 -66 -3 -117q2 -51 30 -52q50 -2 79 78q29 79 39 201q4 11 11 18q7 8 16 11q25 10 55 -6q30 -15 31 -35q-9 -13 -17 -52q-7 -40 -10 -85q-4 -56 0 -104q5 -48 23 -52q11 -2 21 2t20 12q13 12 24 30q11 19 19 40q17 40 27 80t12 54
q8 -1 17 -1h19q-2 -13 -12 -55q-9 -41 -28 -85q-10 -24 -24 -46q-13 -22 -29 -37q-15 -15 -34 -22q-13 -6 -27 -6q-6 0 -13 1zM153 391q-4 -1 -8 -1q-3 0 -6 1q-6 1 -6 8q3 30 20 68q17 37 52 53q9 4 16 4h2q7 -1 12 -5q11 -8 11 -25v-3q-1 -19 -9 -26q-14 -6 -44 -27
q-31 -21 -40 -47z" />
    <glyph glyph-name="ucircumflex" unicode="&#xfb;" horiz-adv-x="462" 
d="M314 -43q-21 3 -37 14q-15 11 -25 26q-19 27 -26 60t-10 48q-4 -10 -19 -43q-14 -33 -41 -60q-14 -14 -31 -24q-18 -10 -39 -10q-27 -1 -45 13q-18 13 -30 36q-13 24 -19 56q-6 31 -9 65q-6 63 -6 120q1 56 -9 71q4 13 12 20q7 7 16 10t19 3q14 0 29 -6q26 -12 36 -32
q-1 -31 -5 -68q-4 -36 -7 -71q-6 -66 -3 -117q2 -51 30 -52q50 -2 79 78q29 79 39 201q4 11 11 18q7 8 16 11q25 10 55 -6q30 -15 31 -35q-9 -13 -17 -52q-7 -40 -10 -85q-4 -56 0 -104q5 -48 23 -52q11 -2 21 2t20 12q13 12 24 30q11 19 19 40q17 40 27 80t12 54
q8 -1 17 -1h19q-2 -13 -12 -55q-9 -41 -28 -85q-10 -24 -24 -46q-13 -22 -29 -37q-15 -15 -34 -22q-13 -6 -27 -6q-6 0 -13 1zM158 505q30 -24 88 -71q1 -4 2 -7q0 -11 -13 -21q-17 -13 -40 -9q-12 25 -35 74q-15 -19 -23 -38q-8 -20 -19 -40q-3 -1 -6 -1q-15 0 -30 8
q-18 10 -18 26q30 19 50 38q21 19 44 41z" />
    <glyph glyph-name="udieresis" unicode="&#xfc;" horiz-adv-x="462" 
d="M314 -43q-21 3 -37 14q-15 11 -25 26q-19 27 -26 60t-10 48q-4 -10 -19 -43q-14 -33 -41 -60q-14 -14 -31 -24q-18 -10 -39 -10q-27 -1 -45 13q-18 13 -30 36q-13 24 -19 56q-6 31 -9 65q-6 63 -6 120q1 56 -9 71q4 13 12 20q7 7 16 10t19 3q14 0 29 -6q26 -12 36 -32
q-1 -31 -5 -68q-4 -36 -7 -71q-6 -66 -3 -117q2 -51 30 -52q50 -2 79 78q29 79 39 201q4 11 11 18q7 8 16 11q25 10 55 -6q30 -15 31 -35q-9 -13 -17 -52q-7 -40 -10 -85q-4 -56 0 -104q5 -48 23 -52q11 -2 21 2t20 12q13 12 24 30q11 19 19 40q17 40 27 80t12 54
q8 -1 17 -1h19q-2 -13 -12 -55q-9 -41 -28 -85q-10 -24 -24 -46q-13 -22 -29 -37q-15 -15 -34 -22q-13 -6 -27 -6q-6 0 -13 1zM76 400q-10 8 -10 27q0 7 1 14q5 31 17 34q12 -7 24 -5q12 3 30 -8q13 -8 13 -24v-8q-4 -22 -12 -29q-11 -10 -30 -11h-2q-17 1 -31 10zM205 476
q3 2 9 2q11 0 29 -10q25 -15 25 -32v-1q-1 -18 -13 -32t-27 -16h-2q-11 0 -28 9q-17 10 -17 25v5q3 21 13 29t11 21z" />
    <glyph glyph-name="yacute" unicode="&#xfd;" horiz-adv-x="466" 
d="M62 345q9 -17 11 -54t3 -79q1 -64 6 -119q4 -56 29 -56q27 0 49 47q23 48 36 108q7 32 11 64q5 32 5 59q7 10 26 20q18 10 37 2q10 -4 19 -14q9 -11 16 -31q-4 -1 -7 -15q-3 -15 -6 -39q-5 -46 -9 -120q-3 -50 -6 -105l30 22q49 35 86 76q38 42 50 98q11 4 20 3
q9 -2 17 -4q-8 -34 -23 -62q-14 -28 -35 -52q-38 -44 -90 -79l-58 -38q-1 -8 -1 -17q-8 -101 -22 -201q-15 -101 -40 -164q-14 -35 -32 -55t-41 -21h-2q-55 0 -89 50q-34 51 -35 120q0 37 11 75q10 39 34 74q25 37 62 67q34 28 72 54q2 51 4 90q1 28 2 46q0 13 1 19
q-4 -13 -15 -42q-13 -34 -36 -59q-10 -10 -21 -17q-12 -6 -26 -6q-26 1 -45 15q-20 15 -34 39q-14 25 -24 57q-10 33 -16 67q-12 63 -17 118q-6 56 -17 66q13 20 46 20h2q34 0 62 -27zM154 -112q-37 -31 -62 -71q-15 -23 -19 -58t0 -71q7 -55 27 -100q20 -44 45 -44
q13 0 23 70q9 70 16 162q6 72 10 143q-21 -15 -40 -31zM143 385q-4 -1 -7 -1h-6q-6 2 -6 8q3 30 19 68q17 37 53 53q9 4 16 4h1q8 -1 13 -4q11 -9 11 -26v-3q-1 -19 -9 -26q-14 -6 -45 -27q-30 -21 -40 -46z" />
    <glyph glyph-name="ydieresis" unicode="&#xff;" horiz-adv-x="466" 
d="M62 345q9 -17 11 -54t3 -79q1 -64 6 -119q4 -56 29 -56q27 0 49 47q23 48 36 108q7 32 11 64q5 32 5 59q7 10 26 20q18 10 37 2q10 -4 19 -14q9 -11 16 -31q-4 -1 -7 -15q-3 -15 -6 -39q-5 -46 -9 -120q-3 -50 -6 -105l30 22q49 35 86 76q38 42 50 98q11 4 20 3
q9 -2 17 -4q-8 -34 -23 -62q-14 -28 -35 -52q-38 -44 -90 -79l-58 -38q-1 -8 -1 -17q-8 -101 -22 -201q-15 -101 -40 -164q-14 -35 -32 -55t-41 -21h-2q-55 0 -89 50q-34 51 -35 120q0 37 11 75q10 39 34 74q25 37 62 67q34 28 72 54q2 51 4 90q1 28 2 46q0 13 1 19
q-4 -13 -15 -42q-13 -34 -36 -59q-10 -10 -21 -17q-12 -6 -26 -6q-26 1 -45 15q-20 15 -34 39q-14 25 -24 57q-10 33 -16 67q-12 63 -17 118q-6 56 -17 66q13 20 46 20h2q34 0 62 -27zM154 -112q-37 -31 -62 -71q-15 -23 -19 -58t0 -71q7 -55 27 -100q20 -44 45 -44
q13 0 23 70q9 70 16 162q6 72 10 143q-21 -15 -40 -31zM198 480q4 3 9 3q11 0 29 -11q25 -14 26 -31v-2q-2 -17 -14 -32q-12 -14 -26 -16h-3q-11 0 -28 10q-17 9 -17 25q0 2 1 5q3 20 12 28q10 8 11 21zM70 405q-11 8 -11 27q0 6 1 14q5 30 18 34q11 -7 23 -5t30 -8
q13 -8 13 -24v-8q-4 -22 -12 -30q-11 -10 -29 -10h-3q-17 0 -30 10z" />
    <glyph glyph-name="Amacron" unicode="&#x100;" horiz-adv-x="904" 
d="M499 883q19 -21 70 -13q51 9 124 7q20 -15 22 -26v-3q0 -10 -9 -22q-15 2 -54 1t-81 -2h-43q-20 0 -35 1q-27 11 -27 25q0 2 1 4q4 17 32 28zM676 709q-2 -41 -1 -128t6 -186q1 -20 2 -39q37 9 49 16q22 -3 23 -27q0 -3 -1 -6q-3 -30 -18 -30q-22 -5 -49 -7l2 -12
q5 -52 11 -100q12 -89 31 -150q19 -60 47 -63q24 -2 45 40q22 41 37 89q10 32 17 59l10 40q8 1 19 2q10 0 18 -2q-2 -9 -6 -26t-9 -39q-11 -39 -29 -86q-19 -47 -45 -77q-13 -15 -29 -23q-13 -7 -27 -7h-7q-36 4 -64 29q-27 24 -48 62q-32 63 -49 152q-10 53 -18 108
q-33 0 -67 3q-31 2 -59 7q-5 1 -10 1q-10 -40 -20 -81q-16 -65 -35 -125q-36 -112 -85 -190q-49 -77 -118 -80h-4q-49 0 -84 46q-38 48 -51 112q-6 29 -6 58q0 13 2 27q4 43 24 77q16 28 45 46q28 18 71 21q29 -6 32 -45q4 -38 -16 -49q-32 12 -54 7q-21 -6 -35 -22
q-15 -21 -20 -53q-4 -32 1 -66q8 -52 33 -93q25 -42 61 -41q19 1 35 18q17 16 31 45q27 53 49 140q23 87 45 184l30 130q15 65 33 125q32 110 75 186q29 51 68 68q-2 3 -3 5q4 18 34 20h5q27 0 50 -18q10 -8 17 -21q8 -13 9 -31zM552 687q-20 -51 -40 -132q-10 -44 -21 -94
t-23 -102l-3 -15l8 -1q32 -5 67 -5q25 0 49 2q-2 17 -3 34q-4 49 -6 97q-2 47 -4 90q-3 80 -5 135q-1 14 -2 25q-9 -13 -17 -34z" />
    <glyph glyph-name="amacron" unicode="&#x101;" horiz-adv-x="444" 
d="M80 471q19 -21 70 -13q51 9 124 7q20 -15 22 -26v-3q0 -10 -9 -22q-15 2 -54 1t-81 -2h-43q-20 0 -35 1q-27 11 -27 25q0 2 1 4q4 17 32 28zM288 275q-3 -22 -11 -34t-19 -16q-21 -8 -44 3q-22 11 -29 24q12 6 23 29q12 23 5 41q-2 8 -9 13q-7 6 -20 8q-31 4 -59 -30
q-28 -35 -46 -83q-22 -59 -22 -118q-1 -59 34 -72q21 -7 43 15q21 23 36 58q9 19 14 39q6 20 8 39q19 24 52 1t34 -41q-10 -17 -12 -48q-2 -32 5 -60q5 -18 15 -31q10 -14 26 -16q19 -3 35 13q16 17 29 43q19 39 32 86q12 46 17 65q10 5 19 4q10 -1 18 -3q-2 -9 -6 -25
q-4 -17 -10 -38q-12 -39 -31 -85q-20 -45 -48 -74q-14 -15 -31 -23q-14 -7 -30 -7h-7q-22 2 -39 11q-18 9 -31 22q-24 24 -36 53q-11 28 -13 41q-5 -23 -36 -55q-31 -33 -68 -39q-16 -3 -32 1q-15 5 -29 18q-44 43 -44 111v7q2 73 36 135q22 41 56 71t74 36q23 4 43 4
q50 0 76 -24q36 -34 32 -69z" />
    <glyph glyph-name="Abreve" unicode="&#x102;" horiz-adv-x="904" 
d="M676 709q-2 -41 -1 -128t6 -186q1 -20 2 -39q37 9 49 16q22 -3 23 -27q0 -3 -1 -6q-3 -30 -18 -30q-22 -5 -49 -7l2 -12q5 -52 11 -100q12 -89 31 -150q19 -60 47 -63q24 -2 45 40q22 41 37 89q10 32 17 59l10 40q8 1 19 2q10 0 18 -2q-2 -9 -6 -26t-9 -39
q-11 -39 -29 -86q-19 -47 -45 -77q-13 -15 -29 -23q-13 -7 -27 -7h-7q-36 4 -64 29q-27 24 -48 62q-32 63 -49 152q-10 53 -18 108q-33 0 -67 3q-31 2 -59 7q-5 1 -10 1q-10 -40 -20 -81q-16 -65 -35 -125q-36 -112 -85 -190q-49 -77 -118 -80h-4q-49 0 -84 46
q-38 48 -51 112q-6 29 -6 58q0 13 2 27q4 43 24 77q16 28 45 46q28 18 71 21q29 -6 32 -45q4 -38 -16 -49q-32 12 -54 7q-21 -6 -35 -22q-15 -21 -20 -53q-4 -32 1 -66q8 -52 33 -93q25 -42 61 -41q19 1 35 18q17 16 31 45q27 53 49 140q23 87 45 184l30 130q15 65 33 125
q32 110 75 186q29 51 68 68q-2 3 -3 5q4 18 34 20h5q27 0 50 -18q10 -8 17 -21q8 -13 9 -31zM552 687q-20 -51 -40 -132q-10 -44 -21 -94t-23 -102l-3 -15l8 -1q32 -5 67 -5q25 0 49 2q-2 17 -3 34q-4 49 -6 97q-2 47 -4 90q-3 80 -5 135q-1 14 -2 25q-9 -13 -17 -34z
M531 891q0 16 17 20q18 4 35 2q1 -14 6 -35q6 -20 17 -20q20 0 28 21q7 22 7 39q10 2 18 1q12 0 22 -3q13 -5 13 -14q0 -3 -2 -7q-12 -28 -30 -52q-16 -20 -47 -20q-5 0 -10 1q-32 3 -51 27q-18 24 -23 40z" />
    <glyph glyph-name="abreve" unicode="&#x103;" horiz-adv-x="444" 
d="M288 275q-3 -22 -11 -34t-19 -16q-21 -8 -44 3q-22 11 -29 24q12 6 23 29q12 23 5 41q-2 8 -9 13q-7 6 -20 8q-31 4 -59 -30q-28 -35 -46 -83q-22 -59 -22 -118q-1 -59 34 -72q21 -7 43 15q21 23 36 58q9 19 14 39q6 20 8 39q19 24 52 1t34 -41q-10 -17 -12 -48
q-2 -32 5 -60q5 -18 15 -31q10 -14 26 -16q19 -3 35 13q16 17 29 43q19 39 32 86q12 46 17 65q10 5 19 4q10 -1 18 -3q-2 -9 -6 -25q-4 -17 -10 -38q-12 -39 -31 -85q-20 -45 -48 -74q-14 -15 -31 -23q-14 -7 -30 -7h-7q-22 2 -39 11q-18 9 -31 22q-24 24 -36 53
q-11 28 -13 41q-5 -23 -36 -55q-31 -33 -68 -39q-16 -3 -32 1q-15 5 -29 18q-44 43 -44 111v7q2 73 36 135q22 41 56 71t74 36q23 4 43 4q50 0 76 -24q36 -34 32 -69zM82 480q0 16 17 20q18 4 35 2q1 -14 6 -35q6 -20 17 -20q20 0 28 21q7 22 7 39q10 2 18 1q12 0 22 -3
q13 -5 13 -14q0 -3 -2 -7q-12 -28 -30 -52q-16 -20 -47 -20q-5 0 -10 1q-32 3 -51 27q-18 24 -23 40z" />
    <glyph glyph-name="Aogonek" unicode="&#x104;" horiz-adv-x="904" 
d="M676 709q-2 -41 -1 -128t6 -186q1 -20 2 -39q37 9 49 16q22 -3 23 -27q0 -3 -1 -6q-3 -30 -18 -30q-22 -5 -49 -7l2 -12q5 -52 11 -100q12 -89 31 -150q19 -60 47 -63q24 -2 45 40q22 41 37 89q10 32 17 59l10 40q8 1 19 2q10 0 18 -2q-2 -9 -6 -26t-9 -39
q-11 -39 -29 -86q-19 -47 -45 -77q-12 -13 -26 -21l4 -1q-17 -19 -36 -39t-36 -44q-15 -23 -17 -60t13 -67q8 -16 21 -27q13 -12 31 -15q15 -3 28 -1q13 3 25 9q9 5 16 13q8 7 14 15q26 33 25 70t-37 27q-13 15 -12 32t28 13q26 -5 41 -17q16 -13 22 -29q5 -13 5 -27
q0 -20 -9 -42q-17 -37 -53 -60q-18 -11 -41 -16q-13 -4 -28 -4q-10 0 -21 2q-32 5 -54 19q-23 14 -37 34q-26 38 -26 83v2q0 45 19 71q14 19 28 34l23 23q-20 7 -37 22q-27 24 -48 62q-32 63 -49 152q-10 53 -18 108q-33 0 -67 3q-31 2 -59 7q-5 1 -10 1q-10 -40 -20 -81
q-16 -65 -35 -125q-36 -112 -85 -190q-49 -77 -118 -80h-4q-49 0 -84 46q-38 48 -51 112q-6 29 -6 58q0 13 2 27q4 43 24 77q16 28 45 46q28 18 71 21q29 -6 32 -45q4 -38 -16 -49q-32 12 -54 7q-21 -6 -35 -22q-15 -21 -20 -53q-4 -32 1 -66q8 -52 33 -93q25 -42 61 -41
q19 1 35 18q17 16 31 45q27 53 49 140q23 87 45 184l30 130q15 65 33 125q32 110 75 186q29 51 68 68q-2 3 -3 5q4 18 34 20h5q27 0 50 -18q10 -8 17 -21q8 -13 9 -31zM552 687q-20 -51 -40 -132q-10 -44 -21 -94t-23 -102l-3 -15l8 -1q32 -5 67 -5q25 0 49 2q-2 17 -3 34
q-4 49 -6 97q-2 47 -4 90q-3 80 -5 135q-1 14 -2 25q-9 -13 -17 -34z" />
    <glyph glyph-name="aogonek" unicode="&#x105;" horiz-adv-x="444" 
d="M316 -304q-32 5 -54 19q-23 14 -37 34q-26 38 -26 83v2q0 45 19 71q14 19 28 34l20 21q-3 1 -6 3q-18 9 -31 22q-24 24 -36 53q-11 28 -13 41q-5 -23 -36 -55q-31 -33 -68 -39q-16 -3 -32 1q-15 5 -29 18q-44 43 -44 111v7q2 73 36 135q22 41 56 71t74 36q23 4 43 4
q50 0 76 -24q36 -34 32 -69q-3 -22 -11 -34t-19 -16q-21 -8 -44 3q-22 11 -29 24q12 6 23 29q12 23 5 41q-2 8 -9 13q-7 6 -20 8q-31 4 -59 -30q-28 -35 -46 -83q-22 -59 -22 -118q-1 -59 34 -72q21 -7 43 15q21 23 36 58q9 19 14 39q6 20 8 39q19 24 52 1t34 -41
q-10 -17 -12 -48q-2 -32 5 -60q5 -18 15 -31q10 -14 26 -16q19 -3 35 13q16 17 29 43q19 39 32 86q12 46 17 65q10 5 19 4q10 -1 18 -3q-2 -9 -6 -25q-4 -17 -10 -38q-12 -39 -31 -85q-20 -45 -48 -74q-14 -15 -31 -23q-2 -1 -5 -2q-14 -16 -30 -33q-19 -20 -36 -44
q-15 -23 -17 -60t13 -67q8 -16 21 -27q13 -12 31 -15q15 -3 28 -1q13 3 25 9q9 5 16 13q8 7 14 15q26 33 25 70t-37 27q-13 15 -12 32t28 13q26 -5 41 -17q16 -13 22 -29q5 -13 5 -27q0 -20 -9 -42q-17 -37 -53 -60q-18 -11 -41 -16q-13 -4 -28 -4q-10 0 -21 2z" />
    <glyph glyph-name="Cacute" unicode="&#x106;" horiz-adv-x="680" 
d="M431 447q-50 -10 -71 12q-20 22 1 60q29 -2 51 12q23 14 38 36q23 33 26 75t-19 67q-9 10 -23 16q-13 6 -32 6q-60 -1 -104 -48t-71 -120q-15 -39 -25 -84t-15 -93q-7 -57 -6 -116t10 -113q16 -101 58 -173q42 -71 112 -77q53 -5 96 13q43 17 76 47q22 20 39 43
q18 24 32 48q26 45 41 87q14 42 19 64q12 0 36 -1q-5 -23 -21 -70q-15 -46 -44 -96q-16 -27 -35 -53q-20 -26 -45 -48q-37 -34 -87 -54q-39 -16 -88 -16q-12 0 -24 1q-67 5 -118 33t-88 72q-57 71 -78 173q-13 63 -13 128q0 39 5 78q6 54 22 107q15 53 39 99q44 87 115 142
q70 55 163 55h3q24 0 45 -8q20 -8 35 -22q42 -36 52 -97q11 -61 -13 -112q-13 -26 -36 -46t-58 -27zM374 797q-4 -1 -8 -1q-3 0 -6 1q-7 1 -7 8q3 33 21 73t57 57q10 4 17 4h2q8 0 13 -4q12 -9 12 -28v-3q-1 -20 -10 -28q-15 -6 -48 -29q-32 -23 -43 -50z" />
    <glyph glyph-name="cacute" unicode="&#x107;" horiz-adv-x="387" 
d="M242 304q4 -16 2 -30t-9 -26q-20 -35 -58 -43q-39 -9 -32 20q26 13 31 46q6 34 -10 52q-6 6 -14 9q-7 3 -17 2q-35 -3 -49 -45t-10 -96q5 -66 35 -126t82 -64q28 -2 50 8q23 11 41 29q34 33 54 83q20 49 28 86q7 2 17 1q10 0 19 -1q-8 -39 -32 -101q-23 -61 -68 -104
q-24 -23 -55 -37q-27 -11 -58 -11q-6 0 -12 1q-41 2 -73 17q-32 14 -56 36q-44 41 -60 97q-10 36 -10 68q0 18 3 35q5 30 18 54q13 25 30 44q18 21 40 35q22 15 44 22q21 6 40 6q20 0 39 -7q37 -14 50 -60zM133 432q-4 -1 -8 -1q-3 0 -6 1q-7 1 -7 8q3 33 21 73t57 57
q10 4 17 4h2q8 0 13 -4q12 -9 12 -28v-3q-1 -20 -10 -28q-15 -6 -48 -29q-32 -23 -43 -50z" />
    <glyph glyph-name="Ccircumflex" unicode="&#x108;" horiz-adv-x="680" 
d="M431 447q-50 -10 -71 12q-20 22 1 60q29 -2 51 12q23 14 38 36q23 33 26 75t-19 67q-9 10 -23 16q-13 6 -32 6q-60 -1 -104 -48t-71 -120q-15 -39 -25 -84t-15 -93q-7 -57 -6 -116t10 -113q16 -101 58 -173q42 -71 112 -77q53 -5 96 13q43 17 76 47q22 20 39 43
q18 24 32 48q26 45 41 87q14 42 19 64q12 0 36 -1q-5 -23 -21 -70q-15 -46 -44 -96q-16 -27 -35 -53q-20 -26 -45 -48q-37 -34 -87 -54q-39 -16 -88 -16q-12 0 -24 1q-67 5 -118 33t-88 72q-57 71 -78 173q-13 63 -13 128q0 39 5 78q6 54 22 107q15 53 39 99q44 87 115 142
q70 55 163 55h3q24 0 45 -8q20 -8 35 -22q42 -36 52 -97q11 -61 -13 -112q-13 -26 -36 -46t-58 -27zM389 908l87 -72q2 -3 2 -7q0 -11 -13 -21q-17 -12 -40 -8q-12 24 -35 74q-15 -19 -23 -39t-19 -40h-6q-14 0 -30 8q-18 10 -18 26q30 19 51 38q20 18 44 41z" />
    <glyph glyph-name="ccircumflex" unicode="&#x109;" horiz-adv-x="387" 
d="M242 304q4 -16 2 -30t-9 -26q-20 -35 -58 -43q-39 -9 -32 20q26 13 31 46q6 34 -10 52q-6 6 -14 9q-7 3 -17 2q-35 -3 -49 -45t-10 -96q5 -66 35 -126t82 -64q28 -2 50 8q23 11 41 29q34 33 54 83q20 49 28 86q7 2 17 1q10 0 19 -1q-8 -39 -32 -101q-23 -61 -68 -104
q-24 -23 -55 -37q-27 -11 -58 -11q-6 0 -12 1q-41 2 -73 17q-32 14 -56 36q-44 41 -60 97q-10 36 -10 68q0 18 3 35q5 30 18 54q13 25 30 44q18 21 40 35q22 15 44 22q21 6 40 6q20 0 39 -7q37 -14 50 -60zM151 518l87 -72q2 -3 2 -7q0 -11 -13 -21q-17 -12 -40 -8
q-12 24 -35 74q-15 -19 -23 -39t-19 -40h-6q-14 0 -30 8q-18 10 -18 26q30 19 51 38q20 18 44 41z" />
    <glyph glyph-name="Cdotaccent" unicode="&#x10a;" horiz-adv-x="680" 
d="M431 447q-50 -10 -71 12q-20 22 1 60q29 -2 51 12q23 14 38 36q23 33 26 75t-19 67q-9 10 -23 16q-13 6 -32 6q-60 -1 -104 -48t-71 -120q-15 -39 -25 -84t-15 -93q-7 -57 -6 -116t10 -113q16 -101 58 -173q42 -71 112 -77q53 -5 96 13q43 17 76 47q22 20 39 43
q18 24 32 48q26 45 41 87q14 42 19 64q12 0 36 -1q-5 -23 -21 -70q-15 -46 -44 -96q-16 -27 -35 -53q-20 -26 -45 -48q-37 -34 -87 -54q-39 -16 -88 -16q-12 0 -24 1q-67 5 -118 33t-88 72q-57 71 -78 173q-13 63 -13 128q0 39 5 78q6 54 22 107q15 53 39 99q44 87 115 142
q70 55 163 55h3q24 0 45 -8q20 -8 35 -22q42 -36 52 -97q11 -61 -13 -112q-13 -26 -36 -46t-58 -27zM445 868q2 -7 2 -14q0 -13 -6 -26q-9 -19 -24 -26q-6 -3 -14 -3q-10 0 -23 3q-25 5 -28 28q-1 7 -1 13q0 14 5 22q8 12 5 27q6 7 21 7q10 0 24 -3q35 -8 39 -28z" />
    <glyph glyph-name="cdotaccent" unicode="&#x10b;" horiz-adv-x="387" 
d="M242 304q4 -16 2 -30t-9 -26q-20 -35 -58 -43q-39 -9 -32 20q26 13 31 46q6 34 -10 52q-6 6 -14 9q-7 3 -17 2q-35 -3 -49 -45t-10 -96q5 -66 35 -126t82 -64q28 -2 50 8q23 11 41 29q34 33 54 83q20 49 28 86q7 2 17 1q10 0 19 -1q-8 -39 -32 -101q-23 -61 -68 -104
q-24 -23 -55 -37q-27 -11 -58 -11q-6 0 -12 1q-41 2 -73 17q-32 14 -56 36q-44 41 -60 97q-10 36 -10 68q0 18 3 35q5 30 18 54q13 25 30 44q18 21 40 35q22 15 44 22q21 6 40 6q20 0 39 -7q37 -14 50 -60zM203 472q2 -7 2 -14q0 -13 -6 -26q-9 -19 -24 -26q-6 -3 -14 -3
q-10 0 -23 3q-25 5 -28 28q-1 7 -1 13q0 14 5 22q8 12 5 27q6 7 21 7q10 0 24 -3q35 -8 39 -28z" />
    <glyph glyph-name="Ccaron" unicode="&#x10c;" horiz-adv-x="680" 
d="M431 447q-50 -10 -71 12q-20 22 1 60q29 -2 51 12q23 14 38 36q23 33 26 75t-19 67q-9 10 -23 16q-13 6 -32 6q-60 -1 -104 -48t-71 -120q-15 -39 -25 -84t-15 -93q-7 -57 -6 -116t10 -113q16 -101 58 -173q42 -71 112 -77q53 -5 96 13q43 17 76 47q22 20 39 43
q18 24 32 48q26 45 41 87q14 42 19 64q12 0 36 -1q-5 -23 -21 -70q-15 -46 -44 -96q-16 -27 -35 -53q-20 -26 -45 -48q-37 -34 -87 -54q-39 -16 -88 -16q-12 0 -24 1q-67 5 -118 33t-88 72q-57 71 -78 173q-13 63 -13 128q0 39 5 78q6 54 22 107q15 53 39 99q44 87 115 142
q70 55 163 55h3q24 0 45 -8q20 -8 35 -22q42 -36 52 -97q11 -61 -13 -112q-13 -26 -36 -46t-58 -27zM296 874q0 16 18 26q16 9 30 9q3 0 6 -1q11 -20 19 -40t23 -38q11 24 35 73q23 5 40 -8q13 -10 13 -21q0 -3 -2 -7q-29 -24 -87 -71q-24 22 -44 40q-21 19 -51 38z" />
    <glyph glyph-name="ccaron" unicode="&#x10d;" horiz-adv-x="387" 
d="M242 304q4 -16 2 -30t-9 -26q-20 -35 -58 -43q-39 -9 -32 20q26 13 31 46q6 34 -10 52q-6 6 -14 9q-7 3 -17 2q-35 -3 -49 -45t-10 -96q5 -66 35 -126t82 -64q28 -2 50 8q23 11 41 29q34 33 54 83q20 49 28 86q7 2 17 1q10 0 19 -1q-8 -39 -32 -101q-23 -61 -68 -104
q-24 -23 -55 -37q-27 -11 -58 -11q-6 0 -12 1q-41 2 -73 17q-32 14 -56 36q-44 41 -60 97q-10 36 -10 68q0 18 3 35q5 30 18 54q13 25 30 44q18 21 40 35q22 15 44 22q21 6 40 6q20 0 39 -7q37 -14 50 -60zM74 486q0 16 18 26q16 9 30 9q3 0 6 -1q11 -20 19 -40t23 -38
q11 24 35 73q23 5 40 -8q13 -10 13 -21q0 -3 -2 -7q-29 -24 -87 -71q-24 22 -44 40q-21 19 -51 38z" />
    <glyph glyph-name="Dcaron" unicode="&#x10e;" horiz-adv-x="862" 
d="M750 327q-3 -96 -34 -174q-31 -77 -80 -133q-40 -45 -88 -77q-49 -31 -101 -47t-102 -16q-43 0 -84 11q-91 25 -140 110q-19 32 -25 63q-5 23 -5 45v14q5 53 32 91q27 37 57 49q22 6 36 4q14 -3 21 -11q14 -16 12 -44t-6 -51q-29 19 -57 3t-38 -51q-6 -19 -4 -42t14 -47
q20 -40 48 -65q28 -26 62 -36q61 -20 132 6q71 27 128 92q48 54 81 131q32 78 37 175q4 101 -34 186q-37 86 -98 135q-33 26 -70 40t-76 11q-47 -3 -94 -34q-46 -30 -87 -93q-32 -14 -43 12q-12 27 13 62q35 33 76 54q42 22 86 32q37 8 75 8q46 0 93 -12q85 -22 149 -85
q53 -51 85 -130q29 -73 29 -170v-16zM373 634q2 -4 2 -22q1 -6 1 -12q0 -15 -1 -36q-2 -55 -7 -137q-5 -83 -11 -166q-7 -105 -12 -188q-5 -82 -1 -89q-12 -16 -34 -15q-5 0 -11 1q-31 5 -35 37q2 8 5 28q2 19 5 47q4 52 7 125t4 145q1 91 -2 160q-3 70 -13 75q10 43 44 59
q12 6 23 6q20 0 36 -18zM331 859q0 16 18 26q16 9 30 9q3 0 6 -1q11 -20 19 -40t23 -38q11 24 35 73q23 5 40 -8q13 -10 13 -21q0 -3 -2 -7q-29 -24 -87 -71q-24 22 -44 40q-21 19 -51 38z" />
    <glyph glyph-name="dcaron" unicode="&#x10f;" horiz-adv-x="677" 
d="M210 359q3 40 4 77q4 69 4 123t-8 77q26 27 57 27q11 0 22 -3q43 -13 43 -53q1 -8 -1 -24q-1 -17 -4 -40q-5 -42 -13 -100q-9 -58 -17 -115q-8 -58 -14 -106t-7 -68q0 -13 1 -31q0 -17 2 -34q4 -33 12 -61q8 -27 22 -30q19 -3 35 14q16 16 29 43q19 39 32 85q12 47 17 66
q10 4 20 4q9 0 17 -3q-3 -16 -14 -57t-30 -84q-10 -23 -22 -44q-13 -22 -28 -37t-32 -24q-15 -7 -31 -7h-5q-19 2 -35 10q-15 9 -26 22q-21 23 -32 51q-10 28 -12 40q-5 -9 -30 -41q-24 -32 -65 -42q-45 -11 -69 -1t-39 32q-26 38 -29 76v20q0 25 4 46q3 15 7 26q4 12 5 18
q20 62 60 92q41 29 57 33q64 17 100 0q5 -3 11 -6q1 15 2 29zM180 317q-15 1 -29 -6q-14 -6 -26 -19t-22 -30q-10 -18 -17 -38q-14 -36 -18 -73q-5 -37 0 -57q5 -21 19 -43q14 -23 39 -9q24 14 49 64q24 51 31 174l1 29q-12 7 -27 8zM411 534q-3 1 -7 5q-4 5 -3 10
q9 6 20 30q12 25 8 42q-21 -9 -40 5q-17 12 -17 32q0 4 1 8q4 29 27 39q17 7 28 7q3 0 6 -1q14 -4 25 -18q9 -13 9 -38v-8q-1 -19 -17 -60q-16 -42 -40 -53z" />
    <glyph glyph-name="Dcroat" unicode="&#x110;" horiz-adv-x="862" 
d="M750 327q-3 -96 -34 -174q-31 -77 -80 -133q-40 -45 -88 -77q-49 -31 -101 -47t-102 -16q-43 0 -84 11q-91 25 -140 110q-19 32 -25 63q-5 23 -5 45v14q5 53 32 91q27 37 57 49q22 6 36 4q14 -3 21 -11q14 -16 12 -44t-6 -51q-29 19 -57 3t-38 -51q-6 -19 -4 -42t14 -47
q20 -40 48 -65q28 -26 62 -36q61 -20 132 6q71 27 128 92q48 54 81 131q32 78 37 175q4 101 -34 186q-37 86 -98 135q-33 26 -70 40t-76 11q-47 -3 -94 -34q-46 -30 -87 -93q-32 -14 -43 12q-12 27 13 62q35 33 76 54q42 22 86 32q37 8 75 8q46 0 93 -12q85 -22 149 -85
q53 -51 85 -130q29 -73 29 -170v-16zM427 371q20 -15 22 -32v-5q0 -14 -10 -26q-49 5 -79 4q-1 -26 -3 -51q-7 -105 -12 -188q-5 -82 -1 -89q-12 -16 -34 -15q-5 0 -11 1q-31 5 -35 37q2 8 5 28q2 19 5 47q4 52 7 125q2 50 3 101h-5q-14 0 -31 1q-17 0 -38 2q-26 11 -26 30
v5q4 24 33 35q17 -19 68 -16q1 83 -2 147q-3 70 -13 75q10 43 44 59q12 6 23 6q20 0 36 -18q2 -4 2 -22q1 -6 1 -12q0 -15 -1 -36q-2 -55 -7 -137l-4 -56q30 1 63 0z" />
    <glyph glyph-name="Emacron" unicode="&#x112;" horiz-adv-x="679" 
d="M264 880q19 -21 70 -13q51 9 124 7q20 -15 22 -26v-3q0 -10 -9 -22q-15 2 -54 1t-81 -2h-43q-20 0 -35 1q-27 11 -27 25q0 2 1 4q4 17 32 28zM451 537q-17 -8 -31 -8t-24 5q-24 10 -28 38q-4 27 14 42q12 -9 22 -11t18 0q23 8 23 45q0 38 -27 65q-13 13 -30 21
q-18 7 -42 7q-49 0 -82 -41t-37 -101q-3 -39 5 -69q7 -30 20 -52q6 -13 13 -23q45 6 78 -5q37 -13 31 -38q-6 -30 -42 -28q-33 2 -71 23q-11 -7 -23 -16q-16 -12 -30 -30q-22 -28 -37 -72t-15 -109q-1 -98 54 -162t131 -79q42 -8 85 0q44 7 84 33q50 32 91 93q40 60 63 154
q7 2 16 3q9 0 19 -2q-21 -107 -69 -178q-49 -70 -111 -108q-51 -32 -108 -43q-34 -6 -67 -6q-22 0 -43 2q-101 14 -175 84q-75 70 -77 183v7q0 87 27 144q27 60 67 95q26 22 55 35q8 4 17 7l-3 3q-20 19 -36 44q-15 23 -23 50t-7 57q5 77 67 126t136 50h4q27 0 50 -7
q24 -8 43 -22q20 -14 34 -33t21 -41q13 -39 2 -77q-12 -38 -52 -55zM304 421q29 -14 31 -3q1 6 -19 6q-7 0 -15 -2q1 -1 3 -1z" />
    <glyph glyph-name="emacron" unicode="&#x113;" horiz-adv-x="353" 
d="M34 474q19 -21 70 -13q51 9 124 7q20 -15 22 -26v-3q0 -10 -9 -22q-15 2 -54 1t-81 -2h-43q-20 0 -35 1q-27 11 -27 25q0 2 1 4q4 17 32 28zM222 304q5 -23 -2 -45q-7 -21 -21 -41q-32 -44 -89 -69q-19 -9 -36 -14q3 -8 6 -18q12 -42 33 -74q12 -17 26 -28t30 -13
q27 -1 48 9q22 11 40 30q33 34 52 84q19 51 27 87q7 1 17 1q10 -1 19 -2q-8 -38 -30 -99q-23 -60 -66 -104q-23 -23 -53 -36q-26 -12 -58 -12h-10q-74 5 -114 47q-41 42 -56 96q-8 28 -9 57v8q0 24 5 45q16 80 56 110t65 37q16 5 33 5q21 0 43 -8q37 -15 44 -53zM83 176
q30 18 51 53q21 36 24 54q5 29 -3 50q-8 22 -40 -2q-12 -9 -21 -23q-8 -15 -13 -31q-10 -30 -12 -59q-3 -28 -2 -36q0 -6 1 -13q8 2 15 7z" />
    <glyph glyph-name="Ebreve" unicode="&#x114;" horiz-adv-x="679" 
d="M451 537q-17 -8 -31 -8t-24 5q-24 10 -28 38q-4 27 14 42q12 -9 22 -11t18 0q23 8 23 45q0 38 -27 65q-13 13 -30 21q-18 7 -42 7q-49 0 -82 -41t-37 -101q-3 -39 5 -69q7 -30 20 -52q6 -13 13 -23q45 6 78 -5q37 -13 31 -38q-6 -30 -42 -28q-33 2 -71 23q-11 -7 -23 -16
q-16 -12 -30 -30q-22 -28 -37 -72t-15 -109q-1 -98 54 -162t131 -79q42 -8 85 0q44 7 84 33q50 32 91 93q40 60 63 154q7 2 16 3q9 0 19 -2q-21 -107 -69 -178q-49 -70 -111 -108q-51 -32 -108 -43q-34 -6 -67 -6q-22 0 -43 2q-101 14 -175 84q-75 70 -77 183v7q0 87 27 144
q27 60 67 95q26 22 55 35q8 4 17 7l-3 3q-20 19 -36 44q-15 23 -23 50t-7 57q5 77 67 126t136 50h4q27 0 50 -7q24 -8 43 -22q20 -14 34 -33t21 -41q13 -39 2 -77q-12 -38 -52 -55zM304 421q29 -14 31 -3q1 6 -19 6q-7 0 -15 -2q1 -1 3 -1zM278 882q0 16 17 20q18 4 35 2
q1 -14 6 -35q6 -20 17 -20q20 0 28 21q7 22 7 39q10 2 18 1q12 0 22 -3q13 -5 13 -14q0 -3 -2 -7q-12 -28 -30 -52q-16 -20 -47 -20q-5 0 -10 1q-32 3 -51 27q-18 24 -23 40z" />
    <glyph glyph-name="ebreve" unicode="&#x115;" horiz-adv-x="353" 
d="M222 304q5 -23 -2 -45q-7 -21 -21 -41q-32 -44 -89 -69q-19 -9 -36 -14q3 -8 6 -18q12 -42 33 -74q12 -17 26 -28t30 -13q27 -1 48 9q22 11 40 30q33 34 52 84q19 51 27 87q7 1 17 1q10 -1 19 -2q-8 -38 -30 -99q-23 -60 -66 -104q-23 -23 -53 -36q-26 -12 -58 -12h-10
q-74 5 -114 47q-41 42 -56 96q-8 28 -9 57v8q0 24 5 45q16 80 56 110t65 37q16 5 33 5q21 0 43 -8q37 -15 44 -53zM83 176q30 18 51 53q21 36 24 54q5 29 -3 50q-8 22 -40 -2q-12 -9 -21 -23q-8 -15 -13 -31q-10 -30 -12 -59q-3 -28 -2 -36q0 -6 1 -13q8 2 15 7zM46 465
q0 16 17 20q18 4 35 2q1 -14 6 -35q6 -20 17 -20q20 0 28 21q7 22 7 39q10 2 18 1q12 0 22 -3q13 -5 13 -14q0 -3 -2 -7q-12 -28 -30 -52q-16 -20 -47 -20q-5 0 -10 1q-32 3 -51 27q-18 24 -23 40z" />
    <glyph glyph-name="Edotaccent" unicode="&#x116;" horiz-adv-x="679" 
d="M451 537q-17 -8 -31 -8t-24 5q-24 10 -28 38q-4 27 14 42q12 -9 22 -11t18 0q23 8 23 45q0 38 -27 65q-13 13 -30 21q-18 7 -42 7q-49 0 -82 -41t-37 -101q-3 -39 5 -69q7 -30 20 -52q6 -13 13 -23q45 6 78 -5q37 -13 31 -38q-6 -30 -42 -28q-33 2 -71 23q-11 -7 -23 -16
q-16 -12 -30 -30q-22 -28 -37 -72t-15 -109q-1 -98 54 -162t131 -79q42 -8 85 0q44 7 84 33q50 32 91 93q40 60 63 154q7 2 16 3q9 0 19 -2q-21 -107 -69 -178q-49 -70 -111 -108q-51 -32 -108 -43q-34 -6 -67 -6q-22 0 -43 2q-101 14 -175 84q-75 70 -77 183v7q0 87 27 144
q27 60 67 95q26 22 55 35q8 4 17 7l-3 3q-20 19 -36 44q-15 23 -23 50t-7 57q5 77 67 126t136 50h4q27 0 50 -7q24 -8 43 -22q20 -14 34 -33t21 -41q13 -39 2 -77q-12 -38 -52 -55zM304 421q29 -14 31 -3q1 6 -19 6q-7 0 -15 -2q1 -1 3 -1zM400 882q2 -7 2 -14q0 -13 -6 -26
q-9 -19 -24 -26q-6 -3 -14 -3q-10 0 -23 3q-25 5 -28 28q-1 7 -1 13q0 14 5 22q8 12 5 27q6 7 21 7q10 0 24 -3q35 -8 39 -28z" />
    <glyph glyph-name="edotaccent" unicode="&#x117;" horiz-adv-x="353" 
d="M222 304q5 -23 -2 -45q-7 -21 -21 -41q-32 -44 -89 -69q-19 -9 -36 -14q3 -8 6 -18q12 -42 33 -74q12 -17 26 -28t30 -13q27 -1 48 9q22 11 40 30q33 34 52 84q19 51 27 87q7 1 17 1q10 -1 19 -2q-8 -38 -30 -99q-23 -60 -66 -104q-23 -23 -53 -36q-26 -12 -58 -12h-10
q-74 5 -114 47q-41 42 -56 96q-8 28 -9 57v8q0 24 5 45q16 80 56 110t65 37q16 5 33 5q21 0 43 -8q37 -15 44 -53zM83 176q30 18 51 53q21 36 24 54q5 29 -3 50q-8 22 -40 -2q-12 -9 -21 -23q-8 -15 -13 -31q-10 -30 -12 -59q-3 -28 -2 -36q0 -6 1 -13q8 2 15 7zM193 488
q2 -7 2 -14q0 -13 -6 -26q-9 -19 -24 -26q-6 -3 -14 -3q-10 0 -23 3q-25 5 -28 28q-1 7 -1 13q0 14 5 22q8 12 5 27q6 7 21 7q10 0 24 -3q35 -8 39 -28z" />
    <glyph glyph-name="Eogonek" unicode="&#x118;" horiz-adv-x="679" 
d="M381 -371q-32 5 -54 19q-23 14 -37 34q-26 38 -26 83v2q0 45 19 71q14 19 28 34q7 7 13 14q-12 0 -23 1q-101 14 -175 84q-75 70 -77 183v7q0 87 27 144q27 60 67 95q26 22 55 35q8 4 17 7l-3 3q-20 19 -36 44q-15 23 -23 50t-7 57q5 77 67 126t136 50h4q27 0 50 -7
q24 -8 43 -22q20 -14 34 -33t21 -41q13 -39 2 -77q-12 -38 -52 -55q-17 -8 -31 -8t-24 5q-24 10 -28 38q-4 27 14 42q12 -9 22 -11t18 0q23 8 23 45q0 38 -27 65q-13 13 -30 21q-18 7 -42 7q-49 0 -82 -41t-37 -101q-3 -39 5 -69q7 -30 20 -52q6 -13 13 -23q45 6 78 -5
q37 -13 31 -38q-6 -30 -42 -28q-33 2 -71 23q-11 -7 -23 -16q-16 -12 -30 -30q-22 -28 -37 -72t-15 -109q-1 -98 54 -162t131 -79q42 -8 85 0q44 7 84 33q50 32 91 93q40 60 63 154q7 2 16 3q9 0 19 -2q-21 -107 -69 -178q-49 -70 -111 -108q-51 -32 -108 -43l-16 -2
q-14 -16 -29 -32q-19 -20 -36 -44q-15 -23 -17 -60t13 -67q8 -16 21 -27q13 -12 31 -15q15 -3 28 -1q13 3 25 9q9 5 16 13q8 7 14 15q26 33 25 70t-37 27q-13 15 -12 32t28 13q26 -5 41 -17q16 -13 22 -29q5 -13 5 -27q0 -20 -9 -42q-17 -37 -53 -60q-18 -11 -41 -16
q-13 -4 -28 -4q-10 0 -21 2zM304 421q29 -14 31 -3q1 6 -19 6q-7 0 -15 -2q1 -1 3 -1z" />
    <glyph glyph-name="eogonek" unicode="&#x119;" horiz-adv-x="353" 
d="M176 -292q-32 5 -54 19q-23 14 -37 34q-26 38 -26 83v2q0 45 19 71q14 19 28 34q7 7 13 14q-48 11 -78 42q-41 42 -56 96q-8 28 -9 57v8q0 24 5 45q16 80 56 110t65 37q16 5 33 5q21 0 43 -8q37 -15 44 -53q5 -23 -2 -45q-7 -21 -21 -41q-32 -44 -89 -69q-19 -9 -36 -14
q3 -8 6 -18q12 -42 33 -74q12 -17 26 -28t30 -13q27 -1 48 9q22 11 40 30q33 34 52 84q19 51 27 87q7 1 17 1q10 -1 19 -2q-8 -38 -30 -99q-23 -60 -66 -104q-23 -23 -53 -36q-18 -8 -39 -11q-11 -12 -23 -25q-19 -20 -36 -44q-15 -23 -17 -60t13 -67q8 -16 21 -27
q13 -12 31 -15q15 -3 28 -1q13 3 25 9q9 5 16 13q8 7 14 15q26 33 25 70t-37 27q-13 15 -12 32t28 13q26 -5 41 -17q16 -13 22 -29q5 -13 5 -27q0 -20 -9 -42q-17 -37 -53 -60q-18 -11 -41 -16q-13 -4 -28 -4q-10 0 -21 2zM83 176q30 18 51 53q21 36 24 54q5 29 -3 50
q-8 22 -40 -2q-12 -9 -21 -23q-8 -15 -13 -31q-10 -30 -12 -59q-3 -28 -2 -36q0 -6 1 -13q8 2 15 7z" />
    <glyph glyph-name="Ecaron" unicode="&#x11a;" horiz-adv-x="679" 
d="M451 537q-17 -8 -31 -8t-24 5q-24 10 -28 38q-4 27 14 42q12 -9 22 -11t18 0q23 8 23 45q0 38 -27 65q-13 13 -30 21q-18 7 -42 7q-49 0 -82 -41t-37 -101q-3 -39 5 -69q7 -30 20 -52q6 -13 13 -23q45 6 78 -5q37 -13 31 -38q-6 -30 -42 -28q-33 2 -71 23q-11 -7 -23 -16
q-16 -12 -30 -30q-22 -28 -37 -72t-15 -109q-1 -98 54 -162t131 -79q42 -8 85 0q44 7 84 33q50 32 91 93q40 60 63 154q7 2 16 3q9 0 19 -2q-21 -107 -69 -178q-49 -70 -111 -108q-51 -32 -108 -43q-34 -6 -67 -6q-22 0 -43 2q-101 14 -175 84q-75 70 -77 183v7q0 87 27 144
q27 60 67 95q26 22 55 35q8 4 17 7l-3 3q-20 19 -36 44q-15 23 -23 50t-7 57q5 77 67 126t136 50h4q27 0 50 -7q24 -8 43 -22q20 -14 34 -33t21 -41q13 -39 2 -77q-12 -38 -52 -55zM304 421q29 -14 31 -3q1 6 -19 6q-7 0 -15 -2q1 -1 3 -1zM263 878q0 16 18 26q16 9 30 9
q3 0 6 -1q11 -20 19 -40t23 -38q11 24 35 73q23 5 40 -8q13 -10 13 -21q0 -3 -2 -7q-29 -24 -87 -71q-24 22 -44 40q-21 19 -51 38z" />
    <glyph glyph-name="ecaron" unicode="&#x11b;" horiz-adv-x="353" 
d="M222 304q5 -23 -2 -45q-7 -21 -21 -41q-32 -44 -89 -69q-19 -9 -36 -14q3 -8 6 -18q12 -42 33 -74q12 -17 26 -28t30 -13q27 -1 48 9q22 11 40 30q33 34 52 84q19 51 27 87q7 1 17 1q10 -1 19 -2q-8 -38 -30 -99q-23 -60 -66 -104q-23 -23 -53 -36q-26 -12 -58 -12h-10
q-74 5 -114 47q-41 42 -56 96q-8 28 -9 57v8q0 24 5 45q16 80 56 110t65 37q16 5 33 5q21 0 43 -8q37 -15 44 -53zM83 176q30 18 51 53q21 36 24 54q5 29 -3 50q-8 22 -40 -2q-12 -9 -21 -23q-8 -15 -13 -31q-10 -30 -12 -59q-3 -28 -2 -36q0 -6 1 -13q8 2 15 7zM29 469
q0 16 18 26q16 9 30 9q3 0 6 -1q11 -20 19 -40t23 -38q11 24 35 73q23 5 40 -8q13 -10 13 -21q0 -3 -2 -7q-29 -24 -87 -71q-24 22 -44 40q-21 19 -51 38z" />
    <glyph glyph-name="Gcircumflex" unicode="&#x11c;" horiz-adv-x="744" 
d="M434 451q-48 -8 -66 13q-19 21 2 57q27 -3 49 9q21 12 36 32q22 30 27 68q4 38 -16 62q-8 9 -21 15q-12 6 -30 7q-55 1 -96 -35q-41 -37 -68 -94q-15 -31 -25 -67q-11 -35 -18 -73q-9 -46 -11 -93q-3 -46 -1 -90q5 -80 29 -137q23 -58 64 -63q43 -6 83 51q41 57 66 131
q13 41 21 80q8 40 9 73q15 27 53 17q37 -10 43 -40q-4 -1 -5 -23q-2 -22 -2 -59q-2 -69 -4 -176q-2 -48 -5 -97q31 15 59 32q42 25 74 61q33 36 47 91q9 5 16 4q8 -1 20 -4q-14 -60 -49 -102q-34 -42 -78 -72q-44 -29 -92 -50q-3 -38 -7 -77q-10 -88 -29 -166
q-20 -77 -53 -125q-18 -25 -41 -40q-23 -14 -51 -14h-1q-37 0 -67 30q-31 30 -47 76q-9 25 -12 52q-4 27 -1 55q3 34 17 67q13 32 39 59q18 19 43 34q24 15 52 27q32 14 66 28v26q2 74 1 128v58q-7 -14 -27 -55q-20 -42 -54 -74q-18 -17 -40 -28q-22 -10 -48 -7
q-43 4 -77 21t-59 44q-47 50 -65 126q-11 49 -11 101q0 28 3 56q10 83 47 161q37 79 101 130q39 32 88 50q46 16 99 16h9q33 -1 57 -15q24 -15 39 -38q29 -42 27 -99q-3 -58 -37 -96q-13 -15 -31 -25t-41 -14zM411 -77q-28 -13 -50 -25q-23 -13 -38 -28q-28 -29 -39 -61
q-11 -33 -11 -66q2 -61 33 -107q32 -47 63 -47q34 -1 52 76q17 76 25 176q3 42 5 86v14q-21 -9 -40 -18zM385 888l87 -72q2 -3 2 -7q0 -11 -13 -21q-17 -12 -40 -8q-12 24 -35 74q-15 -19 -23 -39t-19 -40h-6q-14 0 -30 8q-18 10 -18 26q30 19 51 38q20 18 44 41z" />
    <glyph glyph-name="gcircumflex" unicode="&#x11d;" horiz-adv-x="439" 
d="M291 269q-1 -12 -6 -21q-4 -8 -11 -15q-22 -18 -53 -15t-37 26q11 13 21 36t4 40q-2 7 -9 13q-6 5 -17 7q-26 5 -52 -27q-27 -33 -47 -79q-24 -56 -33 -113q-8 -56 12 -70q22 -15 49 1q28 16 50 46q11 16 19 35q9 19 12 38q3 14 18 20q15 5 31 3q20 -2 35 -12
q15 -11 7 -27q-9 -16 -14 -101l-2 -30q3 2 7 5q50 34 88 76q20 22 34 48q15 25 22 56q10 4 19 3q9 -2 17 -4q-11 -52 -40 -91t-67 -71q-39 -32 -83 -60q-5 -57 -11 -120q-5 -44 -12 -88q-6 -43 -15 -84q-17 -73 -44 -123q-27 -51 -69 -52h-2q-56 0 -89 50q-35 50 -35 120
q-1 37 10 75q11 39 34 74q25 37 62 67q38 30 80 58q3 2 6 5q3 36 5 66q2 49 2 58q-8 -20 -21 -37q-13 -18 -29 -32q-30 -26 -68 -31q-37 -6 -69 23q-36 34 -36 93v14q5 70 37 132q22 40 53 71q31 30 66 37q28 5 50 5h16q27 -3 47 -12q36 -17 47 -45q12 -29 11 -41zM147 -93
q-25 -20 -47 -42t-38 -48q-14 -23 -18 -58t0 -72q6 -55 26 -99t46 -44q12 0 24 67t22 155q4 38 8 77q3 39 6 75q0 6 1 12q-15 -11 -30 -23zM172 525l87 -72q2 -3 2 -7q0 -11 -13 -21q-17 -12 -40 -8q-12 24 -35 74q-15 -19 -23 -39t-19 -40h-6q-14 0 -30 8q-18 10 -18 26
q30 19 51 38q20 18 44 41z" />
    <glyph glyph-name="Gbreve" unicode="&#x11e;" horiz-adv-x="744" 
d="M434 451q-48 -8 -66 13q-19 21 2 57q27 -3 49 9q21 12 36 32q22 30 27 68q4 38 -16 62q-8 9 -21 15q-12 6 -30 7q-55 1 -96 -35q-41 -37 -68 -94q-15 -31 -25 -67q-11 -35 -18 -73q-9 -46 -11 -93q-3 -46 -1 -90q5 -80 29 -137q23 -58 64 -63q43 -6 83 51q41 57 66 131
q13 41 21 80q8 40 9 73q15 27 53 17q37 -10 43 -40q-4 -1 -5 -23q-2 -22 -2 -59q-2 -69 -4 -176q-2 -48 -5 -97q31 15 59 32q42 25 74 61q33 36 47 91q9 5 16 4q8 -1 20 -4q-14 -60 -49 -102q-34 -42 -78 -72q-44 -29 -92 -50q-3 -38 -7 -77q-10 -88 -29 -166
q-20 -77 -53 -125q-18 -25 -41 -40q-23 -14 -51 -14h-1q-37 0 -67 30q-31 30 -47 76q-9 25 -12 52q-4 27 -1 55q3 34 17 67q13 32 39 59q18 19 43 34q24 15 52 27q32 14 66 28v26q2 74 1 128v58q-7 -14 -27 -55q-20 -42 -54 -74q-18 -17 -40 -28q-22 -10 -48 -7
q-43 4 -77 21t-59 44q-47 50 -65 126q-11 49 -11 101q0 28 3 56q10 83 47 161q37 79 101 130q39 32 88 50q46 16 99 16h9q33 -1 57 -15q24 -15 39 -38q29 -42 27 -99q-3 -58 -37 -96q-13 -15 -31 -25t-41 -14zM411 -77q-28 -13 -50 -25q-23 -13 -38 -28q-28 -29 -39 -61
q-11 -33 -11 -66q2 -61 33 -107q32 -47 63 -47q34 -1 52 76q17 76 25 176q3 42 5 86v14q-21 -9 -40 -18zM316 841q0 16 17 20q18 4 35 2q1 -14 6 -35q6 -20 17 -20q20 0 28 21q7 22 7 39q10 2 18 1q12 0 22 -3q13 -5 13 -14q0 -3 -2 -7q-12 -28 -30 -52q-16 -20 -47 -20
q-5 0 -10 1q-32 3 -51 27q-18 24 -23 40z" />
    <glyph glyph-name="gbreve" unicode="&#x11f;" horiz-adv-x="439" 
d="M291 269q-1 -12 -6 -21q-4 -8 -11 -15q-22 -18 -53 -15t-37 26q11 13 21 36t4 40q-2 7 -9 13q-6 5 -17 7q-26 5 -52 -27q-27 -33 -47 -79q-24 -56 -33 -113q-8 -56 12 -70q22 -15 49 1q28 16 50 46q11 16 19 35q9 19 12 38q3 14 18 20q15 5 31 3q20 -2 35 -12
q15 -11 7 -27q-9 -16 -14 -101l-2 -30q3 2 7 5q50 34 88 76q20 22 34 48q15 25 22 56q10 4 19 3q9 -2 17 -4q-11 -52 -40 -91t-67 -71q-39 -32 -83 -60q-5 -57 -11 -120q-5 -44 -12 -88q-6 -43 -15 -84q-17 -73 -44 -123q-27 -51 -69 -52h-2q-56 0 -89 50q-35 50 -35 120
q-1 37 10 75q11 39 34 74q25 37 62 67q38 30 80 58q3 2 6 5q3 36 5 66q2 49 2 58q-8 -20 -21 -37q-13 -18 -29 -32q-30 -26 -68 -31q-37 -6 -69 23q-36 34 -36 93v14q5 70 37 132q22 40 53 71q31 30 66 37q28 5 50 5h16q27 -3 47 -12q36 -17 47 -45q12 -29 11 -41zM147 -93
q-25 -20 -47 -42t-38 -48q-14 -23 -18 -58t0 -72q6 -55 26 -99t46 -44q12 0 24 67t22 155q4 38 8 77q3 39 6 75q0 6 1 12q-15 -11 -30 -23zM91 486q0 16 17 20q18 4 35 2q1 -14 6 -35q6 -20 17 -20q20 0 28 21q7 22 7 39q10 2 18 1q12 0 22 -3q13 -5 13 -14q0 -3 -2 -7
q-12 -28 -30 -52q-16 -20 -47 -20q-5 0 -10 1q-32 3 -51 27q-18 24 -23 40z" />
    <glyph glyph-name="Gdotaccent" unicode="&#x120;" horiz-adv-x="744" 
d="M434 451q-48 -8 -66 13q-19 21 2 57q27 -3 49 9q21 12 36 32q22 30 27 68q4 38 -16 62q-8 9 -21 15q-12 6 -30 7q-55 1 -96 -35q-41 -37 -68 -94q-15 -31 -25 -67q-11 -35 -18 -73q-9 -46 -11 -93q-3 -46 -1 -90q5 -80 29 -137q23 -58 64 -63q43 -6 83 51q41 57 66 131
q13 41 21 80q8 40 9 73q15 27 53 17q37 -10 43 -40q-4 -1 -5 -23q-2 -22 -2 -59q-2 -69 -4 -176q-2 -48 -5 -97q31 15 59 32q42 25 74 61q33 36 47 91q9 5 16 4q8 -1 20 -4q-14 -60 -49 -102q-34 -42 -78 -72q-44 -29 -92 -50q-3 -38 -7 -77q-10 -88 -29 -166
q-20 -77 -53 -125q-18 -25 -41 -40q-23 -14 -51 -14h-1q-37 0 -67 30q-31 30 -47 76q-9 25 -12 52q-4 27 -1 55q3 34 17 67q13 32 39 59q18 19 43 34q24 15 52 27q32 14 66 28v26q2 74 1 128v58q-7 -14 -27 -55q-20 -42 -54 -74q-18 -17 -40 -28q-22 -10 -48 -7
q-43 4 -77 21t-59 44q-47 50 -65 126q-11 49 -11 101q0 28 3 56q10 83 47 161q37 79 101 130q39 32 88 50q46 16 99 16h9q33 -1 57 -15q24 -15 39 -38q29 -42 27 -99q-3 -58 -37 -96q-13 -15 -31 -25t-41 -14zM411 -77q-28 -13 -50 -25q-23 -13 -38 -28q-28 -29 -39 -61
q-11 -33 -11 -66q2 -61 33 -107q32 -47 63 -47q34 -1 52 76q17 76 25 176q3 42 5 86v14q-21 -9 -40 -18zM453 855q2 -7 2 -14q0 -13 -6 -26q-9 -19 -24 -26q-6 -3 -14 -3q-10 0 -23 3q-25 5 -28 28q-1 7 -1 13q0 14 5 22q8 12 5 27q6 7 21 7q10 0 24 -3q35 -8 39 -28z" />
    <glyph glyph-name="gdotaccent" unicode="&#x121;" horiz-adv-x="439" 
d="M291 269q-1 -12 -6 -21q-4 -8 -11 -15q-22 -18 -53 -15t-37 26q11 13 21 36t4 40q-2 7 -9 13q-6 5 -17 7q-26 5 -52 -27q-27 -33 -47 -79q-24 -56 -33 -113q-8 -56 12 -70q22 -15 49 1q28 16 50 46q11 16 19 35q9 19 12 38q3 14 18 20q15 5 31 3q20 -2 35 -12
q15 -11 7 -27q-9 -16 -14 -101l-2 -30q3 2 7 5q50 34 88 76q20 22 34 48q15 25 22 56q10 4 19 3q9 -2 17 -4q-11 -52 -40 -91t-67 -71q-39 -32 -83 -60q-5 -57 -11 -120q-5 -44 -12 -88q-6 -43 -15 -84q-17 -73 -44 -123q-27 -51 -69 -52h-2q-56 0 -89 50q-35 50 -35 120
q-1 37 10 75q11 39 34 74q25 37 62 67q38 30 80 58q3 2 6 5q3 36 5 66q2 49 2 58q-8 -20 -21 -37q-13 -18 -29 -32q-30 -26 -68 -31q-37 -6 -69 23q-36 34 -36 93v14q5 70 37 132q22 40 53 71q31 30 66 37q28 5 50 5h16q27 -3 47 -12q36 -17 47 -45q12 -29 11 -41zM147 -93
q-25 -20 -47 -42t-38 -48q-14 -23 -18 -58t0 -72q6 -55 26 -99t46 -44q12 0 24 67t22 155q4 38 8 77q3 39 6 75q0 6 1 12q-15 -11 -30 -23zM228 488q2 -7 2 -14q0 -13 -6 -26q-9 -19 -24 -26q-6 -3 -14 -3q-10 0 -23 3q-25 5 -28 28q-1 7 -1 13q0 14 5 22q8 12 5 27
q6 7 21 7q10 0 24 -3q35 -8 39 -28z" />
    <glyph glyph-name="Hcircumflex" unicode="&#x124;" horiz-adv-x="884" 
d="M778 741q-12 -3 -22 -24t-18 -56q-16 -64 -25 -161q-6 -53 -9 -106q51 10 66 25q24 -3 23 -27v-4q-2 -28 -19 -37q-24 -12 -72 -18v-30q-1 -43 0 -84t5 -78q5 -67 18 -111t34 -45q24 -2 45 38t37 86q10 30 17 57q7 26 10 38q8 2 19 3q10 0 18 -2q-2 -9 -6 -26t-10 -39
q-11 -40 -29 -86q-18 -47 -44 -77q-14 -15 -29 -23q-13 -7 -28 -7h-6q-65 7 -96 77q-32 70 -40 170q-4 44 -4 91q0 10 1 21v22h-22q-26 0 -52 1q-36 2 -67 6q-15 1 -27 3q-6 -78 -18 -155q-8 -50 -19 -97q-10 -47 -24 -88q-26 -76 -64 -123q-37 -47 -89 -47h-1q-51 0 -86 51
q-36 50 -46 116q-5 25 -4 49q0 19 2 38q5 44 26 77q18 28 47 45q29 18 72 19q29 -7 31 -46q2 -38 -18 -48q-32 13 -54 8t-35 -22q-17 -20 -22 -53t-2 -68q6 -53 30 -97t60 -44q14 0 27 14q12 15 23 40q20 48 33 127q14 79 22 168q9 110 11 219q1 109 -4 180q-3 38 -8 62
q-5 23 -12 25q16 47 57 59q11 3 21 3q25 0 38 -19q5 -12 8 -44q3 -31 5 -76q1 -30 1 -65q0 -60 -3 -133l-2 -34q11 -1 26 -1q37 0 82 2q30 1 59 4q1 19 3 39q4 47 10 93t13 86q13 77 28 129q15 53 25 64q11 12 28 12q10 0 23 -5q34 -12 32 -61zM562 915l87 -72q2 -3 2 -7
q0 -11 -13 -21q-17 -12 -40 -8q-12 24 -35 74q-15 -19 -23 -39t-19 -40h-6q-14 0 -30 8q-18 10 -18 26q30 19 51 38q20 18 44 41z" />
    <glyph glyph-name="hcircumflex" unicode="&#x125;" horiz-adv-x="422" 
d="M86 609q2 -18 0 -63q-2 -46 -6 -102q-3 -29 -5 -59t-5 -58q-4 -52 -8 -91q-3 -38 -3 -48q3 10 25 55q22 46 57 74q12 10 25 15q13 6 26 6q23 -1 38 -15q14 -15 22 -38q9 -25 13 -56q3 -32 4 -65q2 -61 3 -111q1 -51 21 -55q24 -4 46 33q22 38 37 81q10 30 17 56
q7 25 10 37q7 4 18 4q11 -1 17 -6q-2 -11 -7 -28q-4 -17 -10 -37q-11 -37 -29 -78t-44 -69q-18 -18 -39 -28t-47 -6q-28 4 -45 21q-16 16 -25 40q-8 21 -10 46q-3 26 -3 53q0 61 3 114t-24 55q-16 2 -37 -28q-20 -30 -37 -66q-11 -24 -18 -46t-8 -35q-3 -43 -3 -74t-1 -68
q-10 -23 -52 -29q-7 -1 -12 -1q-30 0 -31 26q5 27 11 108q5 82 8 176q3 75 3 147q1 72 -2 120q-2 27 -4 43q-3 17 -7 22q2 19 31 39q22 15 44 16q6 0 13 -2q9 -2 17 -8t13 -17zM166 783l87 -72q2 -3 2 -7q0 -11 -13 -21q-17 -12 -40 -8q-12 24 -35 74q-15 -19 -23 -39
t-19 -40h-6q-14 0 -30 8q-18 10 -18 26q30 19 51 38q20 18 44 41z" />
    <glyph glyph-name="Itilde" unicode="&#x128;" horiz-adv-x="385" 
d="M94 -14q5 1 10 15q4 13 9 36q8 44 14 113q7 70 12 148q3 52 6 105t5 102q4 91 5 157q2 65 0 74q1 23 37 28q9 1 17 1q23 0 38 -10q-4 -4 -7 -48q-3 -46 -4 -117q-1 -38 -1 -81q-1 -43 -1 -88v-396q0 -73 -3 -88q-11 -21 -47 -23q-4 -1 -8 -1q-31 0 -55 19q-12 9 -19 22
t-8 32zM275 925q20 -4 29 -26q6 -12 6 -24q0 -10 -5 -21q-3 -9 -11 -17t-20 -13q-9 -4 -17 -4q-11 0 -23 7q-20 11 -39 24q-10 7 -19 12t-16 6q-10 2 -17 -6q-8 -7 -12 -28q-12 5 -18 25q-4 10 -4 20t4 21t13 20t25 15q5 1 10 1q4 0 8 -1q10 -3 19 -8q17 -11 33 -25
q15 -14 28 -16q8 0 15 8q6 8 11 30z" />
    <glyph glyph-name="itilde" unicode="&#x129;" horiz-adv-x="228" 
d="M91 345q-3 -33 -9 -72t-11 -78q-10 -72 -8 -130t39 -65q23 -4 44 32q21 37 37 80q10 29 17 55q7 25 10 37q7 2 18 2q11 1 18 -2q-3 -16 -14 -56q-10 -41 -28 -83q-9 -23 -21 -43q-12 -21 -26 -36q-13 -14 -29 -21q-12 -6 -25 -6h-9q-48 6 -74 28t-37 53q-9 26 -10 56v13
q0 24 2 47q6 56 16 106q10 49 -2 67q10 21 52 30q11 3 20 3q24 0 30 -17zM123 525q20 -4 29 -26q6 -12 6 -24q0 -10 -5 -21q-3 -9 -11 -17t-20 -13q-9 -4 -17 -4q-11 0 -23 7q-20 11 -39 24q-10 7 -19 12t-16 6q-10 2 -17 -6q-8 -7 -12 -28q-12 5 -18 25q-4 10 -4 20t4 21
t13 20t25 15q5 1 10 1q4 0 8 -1q10 -3 19 -8q17 -11 33 -25q15 -14 28 -16q8 0 15 8q6 8 11 30z" />
    <glyph glyph-name="Imacron" unicode="&#x12a;" horiz-adv-x="385" 
d="M104 887q19 -21 70 -13q51 9 124 7q20 -15 22 -26v-3q0 -10 -9 -22q-15 2 -54 1t-81 -2h-43q-20 0 -35 1q-27 11 -27 25q0 2 1 4q4 17 32 28zM94 -14q5 1 10 15q4 13 9 36q8 44 14 113q7 70 12 148q3 52 6 105t5 102q4 91 5 157q2 65 0 74q1 23 37 28q9 1 17 1
q23 0 38 -10q-4 -4 -7 -48q-3 -46 -4 -117q-1 -38 -1 -81q-1 -43 -1 -88v-396q0 -73 -3 -88q-11 -21 -47 -23q-4 -1 -8 -1q-31 0 -55 19q-12 9 -19 22t-8 32z" />
    <glyph glyph-name="imacron" unicode="&#x12b;" horiz-adv-x="228" 
d="M-40 493q19 -21 70 -13q51 9 124 7q20 -15 22 -26v-3q0 -10 -9 -22q-15 2 -54 1t-81 -2h-43q-20 0 -35 1q-27 11 -27 25q0 2 1 4q4 17 32 28zM91 345q-3 -33 -9 -72t-11 -78q-10 -72 -8 -130t39 -65q23 -4 44 32q21 37 37 80q10 29 17 55q7 25 10 37q7 2 18 2q11 1 18 -2
q-3 -16 -14 -56q-10 -41 -28 -83q-9 -23 -21 -43q-12 -21 -26 -36q-13 -14 -29 -21q-12 -6 -25 -6h-9q-48 6 -74 28t-37 53q-9 26 -10 56v13q0 24 2 47q6 56 16 106q10 49 -2 67q10 21 52 30q11 3 20 3q24 0 30 -17z" />
    <glyph glyph-name="Ibreve" unicode="&#x12c;" horiz-adv-x="385" 
d="M94 -14q5 1 10 15q4 13 9 36q8 44 14 113q7 70 12 148q3 52 6 105t5 102q4 91 5 157q2 65 0 74q1 23 37 28q9 1 17 1q23 0 38 -10q-4 -4 -7 -48q-3 -46 -4 -117q-1 -38 -1 -81q-1 -43 -1 -88v-396q0 -73 -3 -88q-11 -21 -47 -23q-4 -1 -8 -1q-31 0 -55 19q-12 9 -19 22
t-8 32zM133 890q0 16 17 20q18 4 35 2q1 -14 6 -35q6 -20 17 -20q20 0 28 21q7 22 7 39q10 2 18 1q12 0 22 -3q13 -5 13 -14q0 -3 -2 -7q-12 -28 -30 -52q-16 -20 -47 -20q-5 0 -10 1q-32 3 -51 27q-18 24 -23 40z" />
    <glyph glyph-name="ibreve" unicode="&#x12d;" horiz-adv-x="228" 
d="M91 345q-3 -33 -9 -72t-11 -78q-10 -72 -8 -130t39 -65q23 -4 44 32q21 37 37 80q10 29 17 55q7 25 10 37q7 2 18 2q11 1 18 -2q-3 -16 -14 -56q-10 -41 -28 -83q-9 -23 -21 -43q-12 -21 -26 -36q-13 -14 -29 -21q-12 -6 -25 -6h-9q-48 6 -74 28t-37 53q-9 26 -10 56v13
q0 24 2 47q6 56 16 106q10 49 -2 67q10 21 52 30q11 3 20 3q24 0 30 -17zM-36 487q0 16 17 20q18 4 35 2q1 -14 6 -35q6 -20 17 -20q20 0 28 21q7 22 7 39q10 2 18 1q12 0 22 -3q13 -5 13 -14q0 -3 -2 -7q-12 -28 -30 -52q-16 -20 -47 -20q-5 0 -10 1q-32 3 -51 27
q-18 24 -23 40z" />
    <glyph glyph-name="Iogonek" unicode="&#x12e;" horiz-adv-x="385" 
d="M189 -329q-32 5 -54 19q-23 14 -37 34q-26 38 -26 83v2q0 45 19 71q14 19 28 34q6 6 11 12q-5 3 -9 6q-12 9 -19 22t-8 32q5 1 10 15q4 13 9 36q8 44 14 113q7 70 12 148q3 52 6 105t5 102q4 91 5 157q2 65 0 74q1 23 37 28q9 1 17 1q23 0 38 -10q-4 -4 -7 -48
q-3 -46 -4 -117q-1 -38 -1 -81q-1 -43 -1 -88v-396q0 -73 -3 -88q-11 -19 -43 -23q-7 -7 -14 -15q-19 -20 -36 -44q-15 -23 -17 -60t13 -67q8 -16 21 -27q13 -12 31 -15q15 -3 28 -1q13 3 25 9q9 5 16 13q8 7 14 15q26 33 25 70t-37 27q-13 15 -12 32t28 13q26 -5 41 -17
q16 -13 22 -29q5 -13 5 -27q0 -20 -9 -42q-17 -37 -53 -60q-18 -11 -41 -16q-13 -4 -28 -4q-10 0 -21 2z" />
    <glyph glyph-name="iogonek" unicode="&#x12f;" horiz-adv-x="228" 
d="M99 -294q-32 5 -54 19q-23 14 -37 34q-26 38 -26 83v2q0 45 19 71q14 19 28 34l21 21q-18 7 -30 17q-26 22 -37 53q-9 26 -10 56v13q0 24 2 47q6 56 16 106q10 49 -2 67q10 21 52 30q11 3 20 3q24 0 30 -17q-3 -33 -9 -72t-11 -78q-10 -72 -8 -130t39 -65q23 -4 44 32
q21 37 37 80q10 29 17 55q7 25 10 37q7 2 18 2q11 1 18 -2q-3 -16 -14 -56q-10 -41 -28 -83q-9 -23 -21 -43q-12 -21 -26 -36q-13 -14 -29 -21q-10 -5 -21 -6q-11 -12 -23 -25q-19 -20 -36 -44q-15 -23 -17 -60t13 -67q8 -16 21 -27q13 -12 31 -15q15 -3 28 -1q13 3 25 9
q9 5 16 13q8 7 14 15q26 33 25 70t-37 27q-13 15 -12 32t28 13q26 -5 41 -17q16 -13 22 -29q5 -13 5 -27q0 -20 -9 -42q-17 -37 -53 -60q-18 -11 -41 -16q-13 -4 -28 -4q-10 0 -21 2z" />
    <glyph glyph-name="Idotaccent" unicode="&#x130;" horiz-adv-x="385" 
d="M94 -14q5 1 10 15q4 13 9 36q8 44 14 113q7 70 12 148q3 52 6 105t5 102q4 91 5 157q2 65 0 74q1 23 37 28q9 1 17 1q23 0 38 -10q-4 -4 -7 -48q-3 -46 -4 -117q-1 -38 -1 -81q-1 -43 -1 -88v-396q0 -73 -3 -88q-11 -21 -47 -23q-4 -1 -8 -1q-31 0 -55 19q-12 9 -19 22
t-8 32zM251 906q2 -7 2 -14q0 -13 -6 -26q-9 -19 -24 -26q-6 -3 -14 -3q-10 0 -23 3q-25 5 -28 28q-1 7 -1 13q0 14 5 22q8 12 5 27q6 7 21 7q10 0 24 -3q35 -8 39 -28z" />
    <glyph glyph-name="dotlessi" unicode="&#x131;" horiz-adv-x="228" 
d="M91 345q-3 -33 -9 -72t-11 -78q-10 -72 -8 -130t39 -65q23 -4 44 32q21 37 37 80q10 29 17 55q7 25 10 37q7 2 18 2q11 1 18 -2q-3 -16 -14 -56q-10 -41 -28 -83q-9 -23 -21 -43q-12 -21 -26 -36q-13 -14 -29 -21q-12 -6 -25 -6h-9q-48 6 -74 28t-37 53q-9 26 -10 56v13
q0 24 2 47q6 56 16 106q10 49 -2 67q10 21 52 30q11 3 20 3q24 0 30 -17zM4 502q4 18 -6 33q-7 10 -7 27l2 16q4 27 34 34q16 3 27 3t18 -3q19 -8 30 -32q7 -16 7 -32q0 -8 -2 -16q-6 -25 -49 -35q-17 -4 -29 -4q-18 0 -25 9z" />
    <glyph glyph-name="Jcircumflex" unicode="&#x134;" horiz-adv-x="660" 
d="M456 670q0 -12 7 -71t13 -142q4 -45 6 -95q1 -40 1 -80v-20q-1 -96 -15 -187q-13 -90 -49 -150q-22 -38 -55 -59q-31 -21 -75 -22h-1q-51 1 -91 29q-40 29 -65 72q-38 65 -40 143v6q1 74 43 117q18 19 45 29q26 10 62 8q9 -2 16 -7q6 -5 11 -12q12 -20 6 -47t-21 -35
q-32 21 -53 20t-33 -16q-20 -28 -13 -88t34 -111q18 -35 43 -58q25 -24 55 -24q18 0 32 12q15 12 25 34q21 42 30 111q10 69 13 149q3 97 -1 195q-5 98 -12 165q-4 36 -8 60t-7 30q3 17 42 36q25 12 40 12q9 0 15 -4zM745 713q-26 23 -82 20q-55 -4 -125 -20q-37 -9 -77 -20
q-40 -10 -80 -21q-62 -17 -121 -30t-106 -14h-7q-41 0 -70 12q-31 13 -40 47q-2 7 -2 13q0 16 10 33q14 26 51 23q14 -1 11 -12q-4 -12 -15 -15q-12 6 -25 -4q-12 -10 2 -28q13 -16 68 -7q54 10 128 31q40 12 84 25q43 14 86 27q82 25 154 45q68 18 106 18h5q14 0 25 -5
q10 -5 19 -13q23 -23 23 -59v-1q0 -37 -22 -45zM409 937l87 -72q2 -3 2 -7q0 -11 -13 -21q-17 -12 -40 -8q-12 24 -35 74q-15 -19 -23 -39t-19 -40h-6q-14 0 -30 8q-18 10 -18 26q30 19 51 38q20 18 44 41z" />
    <glyph glyph-name="jcircumflex" unicode="&#x135;" horiz-adv-x="266" 
d="M-17 314q3 10 10 15q6 6 14 8q6 2 12 2q18 0 39 -14q27 -19 28 -43q-6 -3 -10 -19q-3 -16 -5 -42q-3 -47 -3 -120q0 -48 -1 -100q45 33 89 68q69 54 91 140q10 4 19 3q9 0 17 -3q-8 -34 -22 -62q-15 -28 -35 -52q-37 -45 -86 -79q-38 -26 -74 -51q-1 -9 -1 -18
q-1 -53 -5 -106q-4 -54 -12 -102q-14 -90 -46 -151q-30 -59 -88 -59h-3q-31 1 -52 16t-32 41q-14 30 -14 69q0 23 4 48q12 71 57 135q26 37 62 67l40 32v18q2 53 3 103q1 92 2 163q0 72 2 93zM-37 -113q-37 -31 -62 -70q-15 -23 -23 -57t-10 -69q-2 -53 10 -95t37 -42
q9 0 16 12t13 34q11 40 18 107q6 66 10 144q2 23 3 46zM32 509l87 -72q2 -3 2 -7q0 -11 -13 -21q-17 -12 -40 -8q-12 24 -35 74q-15 -19 -23 -39t-19 -40h-6q-14 0 -30 8q-18 10 -18 26q30 19 51 38q20 18 44 41z" />
    <glyph glyph-name="Lacute" unicode="&#x139;" horiz-adv-x="676" 
d="M495 507q-29 -2 -53 12t-17 50q28 -3 50 10q23 13 39 35q23 32 29 74q5 42 -15 67q-9 11 -22 17q-13 7 -32 7q-44 1 -67 -53q-23 -53 -36 -136q-8 -44 -14 -94t-12 -102q-10 -80 -24 -158q-14 -79 -39 -142q-5 -13 -11 -26q52 -34 105 -74l58 -46q30 -22 57 -40
q51 -34 95 -46q43 -12 73 18q12 -11 17 -24q6 -13 7 -26v-3q0 -30 -22 -55t-57 -25h-3q-42 0 -84 27t-83 67q-49 48 -97 104q-44 50 -86 87q-13 -21 -28 -37q-36 -40 -91 -47q-35 -5 -59 1q-25 6 -41 19q-25 22 -25 54v11q5 39 41 65q19 13 47 20q27 6 63 1q19 -3 38 -11
q12 46 19 103q6 45 10 95l10 100q9 78 23 152q15 74 43 130q26 54 69 86q41 31 102 31h6q36 -1 61 -14q26 -13 42 -34q35 -43 31 -105t-39 -103q-15 -18 -34 -29q-20 -12 -44 -13zM142 93q-17 2 -31 -2t-25 -12q-19 -15 -23 -38q-5 -22 9 -35q8 -6 21 -8q12 -2 31 2
q42 10 61 69l3 9q-23 12 -46 15zM454 838q-4 -1 -8 -1q-3 0 -6 1q-7 1 -7 8q3 33 21 73t57 57q10 4 17 4h2q8 0 13 -4q12 -9 12 -28v-3q-1 -20 -10 -28q-15 -6 -48 -29q-32 -23 -43 -50z" />
    <glyph glyph-name="lacute" unicode="&#x13a;" horiz-adv-x="239" 
d="M113 566q-2 -41 -11 -110q-8 -69 -15 -145q-3 -39 -6 -79q-3 -39 -4 -74q-1 -66 6 -111t29 -49q23 -4 45 33q21 37 36 81q11 29 18 55q7 25 10 37q8 2 18 3q11 0 18 -3q-2 -8 -5 -25q-4 -16 -10 -37q-11 -38 -29 -83q-18 -44 -45 -72q-13 -15 -29 -22q-12 -6 -26 -6h-7
q-46 6 -73 34q-28 28 -41 71q-14 45 -16 101q-1 20 -1 40q0 38 2 76q3 39 7 77t8 73q7 65 9 113t-12 63q9 23 40 26q5 1 11 1q25 0 46 -16q10 -8 18 -21q7 -13 9 -31zM39 686q-4 -1 -8 -1q-3 0 -6 1q-7 1 -7 8q3 33 21 73t57 57q10 4 17 4h2q8 0 13 -4q12 -9 12 -28v-3
q-1 -20 -10 -28q-15 -6 -48 -29q-32 -23 -43 -50z" />
    <glyph glyph-name="Lcaron" unicode="&#x13d;" horiz-adv-x="676" 
d="M359 921q0 16 18 26q16 9 30 9q3 0 6 -1q11 -20 19 -40t23 -38q11 24 35 73q23 5 40 -8q13 -10 13 -21q0 -3 -2 -7q-29 -24 -87 -71q-24 22 -44 40q-21 19 -51 38zM495 507q-29 -2 -53 12t-17 50q28 -3 50 10q23 13 39 35q23 32 29 74q5 42 -15 67q-9 11 -22 17
q-13 7 -32 7q-44 1 -67 -53q-23 -53 -36 -136q-8 -44 -14 -94t-12 -102q-10 -80 -24 -158q-14 -79 -39 -142q-5 -13 -11 -26q52 -34 105 -74l58 -46q30 -22 57 -40q51 -34 95 -46q43 -12 73 18q12 -11 17 -24q6 -13 7 -26v-3q0 -30 -22 -55t-57 -25h-3q-42 0 -84 27t-83 67
q-49 48 -97 104q-44 50 -86 87q-13 -21 -28 -37q-36 -40 -91 -47q-35 -5 -59 1q-25 6 -41 19q-25 22 -25 54v11q5 39 41 65q19 13 47 20q27 6 63 1q19 -3 38 -11q12 46 19 103q6 45 10 95l10 100q9 78 23 152q15 74 43 130q26 54 69 86q41 31 102 31h6q36 -1 61 -14
q26 -13 42 -34q35 -43 31 -105t-39 -103q-15 -18 -34 -29q-20 -12 -44 -13zM142 93q-17 2 -31 -2t-25 -12q-19 -15 -23 -38q-5 -22 9 -35q8 -6 21 -8q12 -2 31 2q42 10 61 69l3 9q-23 12 -46 15z" />
    <glyph glyph-name="lcaron" unicode="&#x13e;" horiz-adv-x="468" 
d="M113 566q-2 -41 -11 -110q-8 -69 -15 -145q-3 -39 -6 -79q-3 -39 -4 -74q-1 -66 6 -111t29 -49q23 -4 45 33q21 37 36 81q11 29 18 55q7 25 10 37q8 2 18 3q11 0 18 -3q-2 -8 -5 -25q-4 -16 -10 -37q-11 -38 -29 -83q-18 -44 -45 -72q-13 -15 -29 -22q-12 -6 -26 -6h-7
q-46 6 -73 34q-28 28 -41 71q-14 45 -16 101q-1 20 -1 40q0 38 2 76q3 39 7 77t8 73q7 65 9 113t-12 63q9 23 40 26q5 1 11 1q25 0 46 -16q10 -8 18 -21q7 -13 9 -31zM210 518q-3 1 -7 5q-4 5 -3 10q9 6 20 30q12 25 8 42q-21 -9 -40 5q-17 12 -17 32q0 4 1 8q4 29 27 39
q17 7 28 7q3 0 6 -1q14 -4 25 -18q9 -13 9 -38v-8q-1 -19 -17 -60q-16 -42 -40 -53z" />
    <glyph glyph-name="Ldot" unicode="&#x13f;" horiz-adv-x="676" 
d="M534 315q2 -7 2 -14q0 -13 -6 -25q-8 -20 -24 -27q-5 -2 -14 -2q-10 0 -23 2q-25 6 -28 28q-1 7 -1 13q0 14 6 23q8 12 5 27q5 7 20 7q10 0 24 -4q35 -8 39 -28zM495 507q-29 -2 -53 12t-17 50q28 -3 50 10q23 13 39 35q23 32 29 74q5 42 -15 67q-9 11 -22 17
q-13 7 -32 7q-44 1 -67 -53q-23 -53 -36 -136q-8 -44 -14 -94t-12 -102q-10 -80 -24 -158q-14 -79 -39 -142q-5 -13 -11 -26q52 -34 105 -74l58 -46q30 -22 57 -40q51 -34 95 -46q43 -12 73 18q12 -11 17 -24q6 -13 7 -26v-3q0 -30 -22 -55t-57 -25h-3q-42 0 -84 27t-83 67
q-49 48 -97 104q-44 50 -86 87q-13 -21 -28 -37q-36 -40 -91 -47q-35 -5 -59 1q-25 6 -41 19q-25 22 -25 54v11q5 39 41 65q19 13 47 20q27 6 63 1q19 -3 38 -11q12 46 19 103q6 45 10 95l10 100q9 78 23 152q15 74 43 130q26 54 69 86q41 31 102 31h6q36 -1 61 -14
q26 -13 42 -34q35 -43 31 -105t-39 -103q-15 -18 -34 -29q-20 -12 -44 -13zM142 93q-17 2 -31 -2t-25 -12q-19 -15 -23 -38q-5 -22 9 -35q8 -6 21 -8q12 -2 31 2q42 10 61 69l3 9q-23 12 -46 15z" />
    <glyph glyph-name="ldot" unicode="&#x140;" horiz-adv-x="239" 
d="M234 356q2 -7 2 -14q0 -13 -6 -25q-8 -20 -24 -27q-5 -2 -14 -2q-10 0 -23 2q-25 6 -28 28q-1 7 -1 13q0 14 6 23q8 12 5 27q5 7 20 7q10 0 24 -4q35 -8 39 -28zM113 566q-2 -41 -11 -110q-8 -69 -15 -145q-3 -39 -6 -79q-3 -39 -4 -74q-1 -66 6 -111t29 -49q23 -4 45 33
q21 37 36 81q11 29 18 55q7 25 10 37q8 2 18 3q11 0 18 -3q-2 -8 -5 -25q-4 -16 -10 -37q-11 -38 -29 -83q-18 -44 -45 -72q-13 -15 -29 -22q-12 -6 -26 -6h-7q-46 6 -73 34q-28 28 -41 71q-14 45 -16 101q-1 20 -1 40q0 38 2 76q3 39 7 77t8 73q7 65 9 113t-12 63
q9 23 40 26q5 1 11 1q25 0 46 -16q10 -8 18 -21q7 -13 9 -31z" />
    <glyph glyph-name="Lslash" unicode="&#x141;" horiz-adv-x="676" 
d="M399 400q24 -8 32 -23q1 -2 2 -5q5 -13 1 -27q-52 -14 -101 -35l-12 -74q-14 -79 -39 -142q-5 -13 -11 -26q52 -34 105 -74l58 -46q30 -22 57 -40q51 -34 95 -46q43 -12 73 18q12 -11 17 -24q6 -13 7 -26v-3q0 -30 -22 -55t-57 -25h-3q-42 0 -84 27t-83 67
q-49 48 -97 104q-44 50 -86 87q-13 -21 -28 -37q-36 -40 -91 -47q-35 -5 -59 1q-25 6 -41 19q-25 22 -25 54v11q5 39 41 65q19 13 47 20q27 6 63 1q19 -3 38 -11q12 46 19 103q3 24 6 49l-5 -2q-34 -13 -71 -24q-28 0 -36 18q0 2 -1 5q-4 24 18 44q17 -8 64 10q18 7 37 15
l8 80q9 78 23 152q15 74 43 130q26 54 69 86q41 31 102 31h6q36 -1 61 -14q26 -13 42 -34q35 -43 31 -105t-39 -103q-15 -18 -34 -29q-20 -12 -44 -13q-29 -2 -53 12t-17 50q28 -3 50 10q23 13 39 35q23 32 29 74q5 42 -15 67q-9 11 -22 17q-13 7 -32 7q-44 1 -67 -53
q-23 -53 -36 -136q-8 -44 -14 -94t-12 -102l-2 -17l4 2q28 12 52 21zM142 93q-17 2 -31 -2t-25 -12q-19 -15 -23 -38q-5 -22 9 -35q8 -6 21 -8q12 -2 31 2q42 10 61 69l3 9q-23 12 -46 15z" />
    <glyph glyph-name="lslash" unicode="&#x142;" horiz-adv-x="239" 
d="M166 370q24 -8 32 -23q1 -2 2 -5q5 -13 1 -27q-60 -17 -117 -42q-2 -20 -3 -41q-3 -39 -4 -74q-1 -66 6 -111t29 -49q23 -4 45 33q21 37 36 81q11 29 18 55q7 25 10 37q8 2 18 3q11 0 18 -3q-2 -8 -5 -25q-4 -16 -10 -37q-11 -38 -29 -83q-18 -44 -45 -72
q-13 -15 -29 -22q-12 -6 -26 -6h-7q-46 6 -73 34q-28 28 -41 71q-14 45 -16 101q-1 20 -1 40v19q-30 -11 -63 -20q-28 0 -36 18q0 2 -1 5q-4 24 18 44q17 -8 64 10q10 4 21 8q3 35 6 69q4 38 8 73q7 65 9 113t-12 63q9 23 40 26q5 1 11 1q25 0 46 -16q10 -8 18 -21
q7 -13 9 -31q-2 -41 -11 -110q-7 -57 -13 -119q12 6 25 12q28 12 52 21z" />
    <glyph glyph-name="Nacute" unicode="&#x143;" horiz-adv-x="932" 
d="M745 -42q-55 12 -71 78q-17 67 -13 158q1 48 7 101q5 53 11 104q5 43 10 83t8 76q5 65 1 109q-5 44 -30 48q-34 6 -65 -27q-32 -33 -60 -86q-14 -29 -28 -61q-13 -33 -25 -66q-22 -64 -36 -123q-15 -60 -19 -94q-6 -40 -19 -122q-14 -81 -44 -152q-21 -48 -51 -80
q-30 -33 -73 -36h-11q-25 0 -45 8q-25 9 -44 27q-20 19 -32 45q-13 26 -18 54q-5 25 -5 49q0 29 7 58q13 53 48 80q18 13 42 17q23 4 53 -6q8 -3 12 -8q5 -5 7 -12q6 -20 -5 -43q-12 -24 -21 -20q-19 20 -34 26q-15 7 -27 2q-23 -9 -32 -50q-10 -40 -3 -85q4 -24 13 -47
q9 -22 23 -39q14 -16 32 -25q19 -8 43 -6q15 1 28 14q14 14 24 37q20 44 32 115t18 152q3 53 4 108q2 55 1 106q-2 96 -10 168q-9 72 -21 89q20 32 62 41q43 10 61 -13q1 -22 2 -49q2 -26 2 -53q1 -50 1 -93q-1 -43 -2 -57l9 30q6 19 14 44q17 47 44 102q27 54 64 88
q20 18 42 27q17 8 37 8q5 0 10 -1q50 -5 77 -40t38 -89q12 -56 10 -127q-3 -71 -12 -144q-5 -48 -13 -94q-7 -46 -13 -87q-12 -77 -17 -129q-4 -51 13 -56q15 -4 30 0q14 5 28 17t26 29q13 18 24 38q20 38 34 77q13 38 18 57q11 0 18 1t17 -4q-2 -10 -6 -26q-5 -17 -12 -37
q-13 -37 -36 -81q-23 -43 -54 -71q-21 -20 -46 -29q-24 -9 -52 -3zM649 818q-4 -1 -8 -1q-3 0 -6 1q-7 1 -7 8q3 33 21 73t57 57q10 4 17 4h2q8 0 13 -4q12 -9 12 -28v-3q-1 -20 -10 -28q-15 -6 -48 -29q-32 -23 -43 -50z" />
    <glyph glyph-name="nacute" unicode="&#x144;" 
d="M29 357q3 -8 6 -21t6 -28q4 -28 6 -55t2 -36q5 15 24 54q19 40 50 69q14 12 29 20q15 7 31 7h2q23 0 38 -16q14 -16 24 -41q10 -27 15 -61q5 -35 8 -71q5 -66 9 -121t24 -59q24 -4 46 33q22 38 37 81q10 30 17 56q7 25 10 37q7 4 18 4q11 -1 17 -6q-2 -11 -6 -28
q-5 -17 -11 -37q-11 -37 -29 -78t-44 -69q-18 -18 -39 -28t-47 -6q-29 4 -47 22q-18 17 -29 43q-10 27 -14 60q-4 34 -5 68q-1 63 -2 113q0 51 -25 53q-16 1 -37 -27q-20 -29 -35 -64q-10 -24 -16 -47q-7 -23 -6 -39q1 -35 -1 -80q-2 -44 -4 -83q-9 -24 -41 -25h-3
q-30 0 -39 18q7 37 8 105q1 67 -4 130q-3 42 -8 75q-6 33 -13 47q3 25 33 35q29 11 45 -4zM154 413q-4 -1 -8 -1q-3 0 -6 1q-7 1 -7 8q3 33 21 73t57 57q10 4 17 4h2q8 0 13 -4q12 -9 12 -28v-3q-1 -20 -10 -28q-15 -6 -48 -29q-32 -23 -43 -50z" />
    <glyph glyph-name="Ncaron" unicode="&#x147;" horiz-adv-x="932" 
d="M745 -42q-55 12 -71 78q-17 67 -13 158q1 48 7 101q5 53 11 104q5 43 10 83t8 76q5 65 1 109q-5 44 -30 48q-34 6 -65 -27q-32 -33 -60 -86q-14 -29 -28 -61q-13 -33 -25 -66q-22 -64 -36 -123q-15 -60 -19 -94q-6 -40 -19 -122q-14 -81 -44 -152q-21 -48 -51 -80
q-30 -33 -73 -36h-11q-25 0 -45 8q-25 9 -44 27q-20 19 -32 45q-13 26 -18 54q-5 25 -5 49q0 29 7 58q13 53 48 80q18 13 42 17q23 4 53 -6q8 -3 12 -8q5 -5 7 -12q6 -20 -5 -43q-12 -24 -21 -20q-19 20 -34 26q-15 7 -27 2q-23 -9 -32 -50q-10 -40 -3 -85q4 -24 13 -47
q9 -22 23 -39q14 -16 32 -25q19 -8 43 -6q15 1 28 14q14 14 24 37q20 44 32 115t18 152q3 53 4 108q2 55 1 106q-2 96 -10 168q-9 72 -21 89q20 32 62 41q43 10 61 -13q1 -22 2 -49q2 -26 2 -53q1 -50 1 -93q-1 -43 -2 -57l9 30q6 19 14 44q17 47 44 102q27 54 64 88
q20 18 42 27q17 8 37 8q5 0 10 -1q50 -5 77 -40t38 -89q12 -56 10 -127q-3 -71 -12 -144q-5 -48 -13 -94q-7 -46 -13 -87q-12 -77 -17 -129q-4 -51 13 -56q15 -4 30 0q14 5 28 17t26 29q13 18 24 38q20 38 34 77q13 38 18 57q11 0 18 1t17 -4q-2 -10 -6 -26q-5 -17 -12 -37
q-13 -37 -36 -81q-23 -43 -54 -71q-21 -20 -46 -29q-24 -9 -52 -3zM580 872q0 16 18 26q16 9 30 9q3 0 6 -1q11 -20 19 -40t23 -38q11 24 35 73q23 5 40 -8q13 -10 13 -21q0 -3 -2 -7q-29 -24 -87 -71q-24 22 -44 40q-21 19 -51 38z" />
    <glyph glyph-name="ncaron" unicode="&#x148;" 
d="M29 357q3 -8 6 -21t6 -28q4 -28 6 -55t2 -36q5 15 24 54q19 40 50 69q14 12 29 20q15 7 31 7h2q23 0 38 -16q14 -16 24 -41q10 -27 15 -61q5 -35 8 -71q5 -66 9 -121t24 -59q24 -4 46 33q22 38 37 81q10 30 17 56q7 25 10 37q7 4 18 4q11 -1 17 -6q-2 -11 -6 -28
q-5 -17 -11 -37q-11 -37 -29 -78t-44 -69q-18 -18 -39 -28t-47 -6q-29 4 -47 22q-18 17 -29 43q-10 27 -14 60q-4 34 -5 68q-1 63 -2 113q0 51 -25 53q-16 1 -37 -27q-20 -29 -35 -64q-10 -24 -16 -47q-7 -23 -6 -39q1 -35 -1 -80q-2 -44 -4 -83q-9 -24 -41 -25h-3
q-30 0 -39 18q7 37 8 105q1 67 -4 130q-3 42 -8 75q-6 33 -13 47q3 25 33 35q29 11 45 -4zM78 476q0 16 18 26q16 9 30 9q3 0 6 -1q11 -20 19 -40t23 -38q11 24 35 73q23 5 40 -8q13 -10 13 -21q0 -3 -2 -7q-29 -24 -87 -71q-24 22 -44 40q-21 19 -51 38z" />
    <glyph glyph-name="Omacron" unicode="&#x14c;" horiz-adv-x="802" 
d="M318 887q19 -21 70 -13q51 9 124 7q20 -15 22 -26v-3q0 -10 -9 -22q-15 2 -54 1t-81 -2h-43q-20 0 -35 1q-27 11 -27 25q0 2 1 4q4 17 32 28zM551 61q40 -9 73 -3t59 21q48 27 73 68q25 42 29 59q12 0 36 -1q-4 -21 -33 -71q-29 -51 -88 -84q-32 -18 -73 -26
q-42 -8 -93 2q-11 2 -22 5l-2 -2q-36 -39 -82 -61q-43 -21 -93 -21h-7q-46 1 -85 18t-69 46q-57 54 -85 140q-28 84 -28 174v5q1 95 32 184q32 90 96 147q40 35 93 54q42 15 92 15q17 16 37 27q34 19 79 19h3q34 -1 61 -18q26 -17 46 -47q36 -55 48 -144q13 -89 2 -186
q-11 -99 -46 -194q-26 -71 -65 -123zM333 693q-28 -10 -52 -31q-44 -39 -71 -107q-28 -68 -39 -147q-8 -52 -8 -105t7 -102q14 -91 55 -156q40 -65 108 -68q46 -3 84 40q20 22 36 52q-14 14 -27 30q-45 54 -75 134q-31 80 -43 165q-12 88 -2 170q9 77 43 129q-8 -1 -16 -4z
M482 130q15 37 27 80q12 42 21 88q20 102 22 204q3 102 -13 168q-9 35 -23 56q-15 21 -35 21q-27 2 -48 -14q-20 -16 -34 -45q-27 -53 -32 -139q-6 -86 7 -175q6 -40 16 -78q9 -38 22 -72q24 -64 59 -109q2 -3 3 -5z" />
    <glyph glyph-name="omacron" unicode="&#x14d;" 
d="M76 495q19 -21 70 -13q51 9 124 7q20 -15 22 -26v-3q0 -10 -9 -22q-15 2 -54 1t-81 -2h-43q-20 0 -35 1q-27 11 -27 25q0 2 1 4q4 17 32 28zM152 376q19 -4 20 -17q0 -14 -9 -27q-16 1 -29 -7q-14 -8 -24 -23q-19 -28 -27 -73t-6 -91q3 -57 23 -102t56 -44q27 1 47 60
q9 28 16 57l-7 10q-31 46 -47 102q-15 56 -1 95q6 17 19 28q12 12 32 16q59 15 83 -34q24 -48 19 -117q-2 -30 -9 -60q-7 -31 -18 -59q12 -8 23 -9q16 -1 29 6q14 7 24 19q19 21 30 52t15 49q12 0 37 -1q-4 -20 -19 -60q-15 -39 -44 -68q-16 -15 -36 -24q-20 -10 -45 -8
q-15 1 -30 10q-17 -32 -40 -56q-34 -37 -79 -38h-2q-47 0 -81 18q-35 17 -57 47q-16 21 -25 48q-9 26 -12 54q-2 14 -2 28q0 39 12 78q15 53 48 90q22 24 51 38q27 13 60 13h5zM230 266q-5 38 -24 34q-13 -4 -8 -32q4 -28 19 -64l12 -28q6 51 1 90z" />
    <glyph glyph-name="Obreve" unicode="&#x14e;" horiz-adv-x="802" 
d="M551 61q40 -9 73 -3t59 21q48 27 73 68q25 42 29 59q12 0 36 -1q-4 -21 -33 -71q-29 -51 -88 -84q-32 -18 -73 -26q-42 -8 -93 2q-11 2 -22 5l-2 -2q-36 -39 -82 -61q-43 -21 -93 -21h-7q-46 1 -85 18t-69 46q-57 54 -85 140q-28 84 -28 174v5q1 95 32 184q32 90 96 147
q40 35 93 54q42 15 92 15q17 16 37 27q34 19 79 19h3q34 -1 61 -18q26 -17 46 -47q36 -55 48 -144q13 -89 2 -186q-11 -99 -46 -194q-26 -71 -65 -123zM333 693q-28 -10 -52 -31q-44 -39 -71 -107q-28 -68 -39 -147q-8 -52 -8 -105t7 -102q14 -91 55 -156q40 -65 108 -68
q46 -3 84 40q20 22 36 52q-14 14 -27 30q-45 54 -75 134q-31 80 -43 165q-12 88 -2 170q9 77 43 129q-8 -1 -16 -4zM482 130q15 37 27 80q12 42 21 88q20 102 22 204q3 102 -13 168q-9 35 -23 56q-15 21 -35 21q-27 2 -48 -14q-20 -16 -34 -45q-27 -53 -32 -139
q-6 -86 7 -175q6 -40 16 -78q9 -38 22 -72q24 -64 59 -109q2 -3 3 -5zM351 903q0 16 17 20q18 4 35 2q1 -14 6 -35q6 -20 17 -20q20 0 28 21q7 22 7 39q10 2 18 1q12 0 22 -3q13 -5 13 -14q0 -3 -2 -7q-12 -28 -30 -52q-16 -20 -47 -20q-5 0 -10 1q-32 3 -51 27
q-18 24 -23 40z" />
    <glyph glyph-name="obreve" unicode="&#x14f;" 
d="M152 376q19 -4 20 -17q0 -14 -9 -27q-16 1 -29 -7q-14 -8 -24 -23q-19 -28 -27 -73t-6 -91q3 -57 23 -102t56 -44q27 1 47 60q9 28 16 57l-7 10q-31 46 -47 102q-15 56 -1 95q6 17 19 28q12 12 32 16q59 15 83 -34q24 -48 19 -117q-2 -30 -9 -60q-7 -31 -18 -59
q12 -8 23 -9q16 -1 29 6q14 7 24 19q19 21 30 52t15 49q12 0 37 -1q-4 -20 -19 -60q-15 -39 -44 -68q-16 -15 -36 -24q-20 -10 -45 -8q-15 1 -30 10q-17 -32 -40 -56q-34 -37 -79 -38h-2q-47 0 -81 18q-35 17 -57 47q-16 21 -25 48q-9 26 -12 54q-2 14 -2 28q0 39 12 78
q15 53 48 90q22 24 51 38q27 13 60 13h5zM230 266q-5 38 -24 34q-13 -4 -8 -32q4 -28 19 -64l12 -28q6 51 1 90zM83 500q0 16 17 20q18 4 35 2q1 -14 6 -35q6 -20 17 -20q20 0 28 21q7 22 7 39q10 2 18 1q12 0 22 -3q13 -5 13 -14q0 -3 -2 -7q-12 -28 -30 -52
q-16 -20 -47 -20q-5 0 -10 1q-32 3 -51 27q-18 24 -23 40z" />
    <glyph glyph-name="Ohungarumlaut" unicode="&#x150;" horiz-adv-x="802" 
d="M551 61q40 -9 73 -3t59 21q48 27 73 68q25 42 29 59q12 0 36 -1q-4 -21 -33 -71q-29 -51 -88 -84q-32 -18 -73 -26q-42 -8 -93 2q-11 2 -22 5l-2 -2q-36 -39 -82 -61q-43 -21 -93 -21h-7q-46 1 -85 18t-69 46q-57 54 -85 140q-28 84 -28 174v5q1 95 32 184q32 90 96 147
q40 35 93 54q42 15 92 15q17 16 37 27q34 19 79 19h3q34 -1 61 -18q26 -17 46 -47q36 -55 48 -144q13 -89 2 -186q-11 -99 -46 -194q-26 -71 -65 -123zM333 693q-28 -10 -52 -31q-44 -39 -71 -107q-28 -68 -39 -147q-8 -52 -8 -105t7 -102q14 -91 55 -156q40 -65 108 -68
q46 -3 84 40q20 22 36 52q-14 14 -27 30q-45 54 -75 134q-31 80 -43 165q-12 88 -2 170q9 77 43 129q-8 -1 -16 -4zM482 130q15 37 27 80q12 42 21 88q20 102 22 204q3 102 -13 168q-9 35 -23 56q-15 21 -35 21q-27 2 -48 -14q-20 -16 -34 -45q-27 -53 -32 -139
q-6 -86 7 -175q6 -40 16 -78q9 -38 22 -72q24 -64 59 -109q2 -3 3 -5zM383 818q-7 -5 -15 -7q-3 -1 -5 0q-5 0 -7 5q0 32 1 74q1 41 -3 72q13 0 37 1h4q21 0 28 -10q-2 -18 -18 -62q-17 -43 -22 -73zM481 814q-7 -4 -16 -6q-2 -1 -4 -1q-5 0 -7 5q-1 33 0 74t-2 72
q13 0 37 1h4q21 1 27 -10q-1 -18 -18 -61q-16 -44 -21 -74z" />
    <glyph glyph-name="ohungarumlaut" unicode="&#x151;" 
d="M152 376q19 -4 20 -17q0 -14 -9 -27q-16 1 -29 -7q-14 -8 -24 -23q-19 -28 -27 -73t-6 -91q3 -57 23 -102t56 -44q27 1 47 60q9 28 16 57l-7 10q-31 46 -47 102q-15 56 -1 95q6 17 19 28q12 12 32 16q59 15 83 -34q24 -48 19 -117q-2 -30 -9 -60q-7 -31 -18 -59
q12 -8 23 -9q16 -1 29 6q14 7 24 19q19 21 30 52t15 49q12 0 37 -1q-4 -20 -19 -60q-15 -39 -44 -68q-16 -15 -36 -24q-20 -10 -45 -8q-15 1 -30 10q-17 -32 -40 -56q-34 -37 -79 -38h-2q-47 0 -81 18q-35 17 -57 47q-16 21 -25 48q-9 26 -12 54q-2 14 -2 28q0 39 12 78
q15 53 48 90q22 24 51 38q27 13 60 13h5zM230 266q-5 38 -24 34q-13 -4 -8 -32q4 -28 19 -64l12 -28q6 51 1 90zM141 416q-7 -5 -15 -7q-3 -1 -5 0q-5 0 -7 5q0 32 1 74q1 41 -3 72q13 0 37 1h4q21 0 28 -10q-2 -18 -18 -62q-17 -43 -22 -73zM239 412q-7 -4 -16 -6
q-2 -1 -4 -1q-5 0 -7 5q-1 33 0 74t-2 72q13 0 37 1h4q21 1 27 -10q-1 -18 -18 -61q-16 -44 -21 -74z" />
    <glyph glyph-name="OE" unicode="&#x152;" horiz-adv-x="1123" 
d="M898 581q-16 -7 -29 -7t-23 4q-23 10 -27 36t13 41q12 -8 22 -10q9 -3 17 0q22 7 22 42q0 36 -26 63q-12 11 -29 19q-17 7 -40 7q-47 0 -78 -39q-31 -40 -35 -96q-3 -37 4 -66t19 -50q7 -13 14 -23q43 6 73 -4q35 -12 30 -36q-6 -28 -40 -27q-31 2 -67 22
q-28 -15 -54 -50q-20 -27 -34 -69q-14 -43 -13 -105q0 -53 17 -97q18 -43 46 -74q53 -59 132 -70q80 -11 152 38q48 32 87 93q38 61 59 154q6 2 15 3t18 -1q-19 -106 -65 -177q-46 -70 -106 -109q-48 -32 -102 -44q-35 -7 -69 -7q-19 0 -37 2q-97 12 -169 82q-34 33 -53 76
q-21 -32 -45 -59q-37 -39 -82 -61q-43 -21 -94 -21h-6q-87 2 -146 56t-89 135q-17 44 -25 92q-8 47 -8 95v4q1 95 33 185q32 89 96 146q40 36 93 55q39 13 87 14q19 18 42 30q33 16 77 17h5q34 -1 60 -18q27 -17 46 -47q15 -24 27 -54q13 51 58 87q60 46 130 48h4
q26 0 47 -7q24 -8 42 -21q19 -14 32 -32t20 -38q13 -38 2 -74t-50 -53zM274 681q-44 -38 -73 -102q-16 -35 -27 -75t-17 -82q-7 -52 -7 -105t7 -102q14 -92 54 -156q40 -65 108 -69q26 -1 48 12q23 12 42 35q28 33 50 83l-2 2q-27 18 -51 45q-44 50 -73 124q-30 74 -42 152
q-11 81 -1 156q9 66 39 112q-30 -8 -55 -30zM516 311q20 103 23 205t-13 167q-9 36 -24 56q-14 21 -35 22q-63 3 -91 -72q-29 -76 -27 -177q2 -80 23 -162q20 -82 58 -138q21 -31 45 -52q25 71 41 151zM641 483v-10q8 5 17 9q8 4 17 7l-4 4q-18 16 -31 37q1 -24 1 -47z
M788 468q1 6 -29 2q27 -13 29 -2z" />
    <glyph glyph-name="oe" unicode="&#x153;" horiz-adv-x="594" 
d="M128 376q18 -4 19 -17q1 -14 -8 -27q-39 3 -60 -41q-21 -43 -26 -101q-3 -46 4 -91q7 -46 24 -74q10 -16 22 -24q13 -9 28 -9q23 1 40 42q18 42 27 93q-6 6 -11 12q-32 35 -48 79q-8 23 -11 47q-2 23 4 43q5 19 19 33q15 14 39 19q60 15 84 -34q1 -3 2 -5q1 1 3 2
q40 30 64 37q17 5 33 5q22 0 43 -8q38 -15 45 -53q4 -23 -2 -45q-7 -22 -21 -41q-33 -44 -90 -70q-19 -9 -36 -14q3 -8 6 -18q12 -41 34 -73q11 -17 25 -28q14 -12 31 -13q26 -2 48 9t40 29q32 35 52 85q19 50 27 87q7 1 17 1q10 -1 18 -2q-7 -38 -30 -99q-22 -61 -66 -104
q-23 -23 -53 -37q-26 -12 -57 -11h-10q-74 4 -115 47q-21 21 -35 44q-14 -26 -32 -46q-18 -19 -39 -31q-21 -11 -45 -12h-2q-48 0 -82 18q-35 17 -57 47q-16 21 -25 48q-9 26 -12 54q-1 14 -1 28q0 39 11 78q16 54 49 90q22 24 51 38q27 13 59 13h6zM324 175q31 18 52 54
q21 35 24 53q5 29 -3 51q-9 22 -40 -2q-13 -9 -21 -24q-8 -14 -14 -30q-10 -30 -12 -59t-2 -36q0 -6 1 -14q8 3 15 7zM207 249q-3 57 -26 51q-12 -4 -11 -25q2 -21 13 -47q9 -23 23 -45q2 34 1 66z" />
    <glyph glyph-name="Racute" unicode="&#x154;" horiz-adv-x="690" 
d="M135 4q12 6 26 86q11 66 22 148q-3 0 -6 1q-47 4 -52 39v10q0 29 26 46q11 7 25 10q9 2 18 3l2 16q4 45 8 87q6 78 10 135q3 58 1 68q13 27 40 27h9q34 -5 41 -27q-3 -2 -6 -21q-3 -18 -7 -49q-6 -56 -13 -142q-4 -57 -8 -115q10 -7 21 -15q12 -11 23 -23q23 6 48 15
q20 8 40 19t37 26q27 24 42 58q15 35 10 84q-7 74 -35 125q-28 50 -66 78q-47 33 -102 33t-102 -32q-26 -17 -47 -44q-21 -26 -36 -61q-26 -60 -1 -100q25 -41 64 -22q3 -21 4 -47t-13 -40q-7 -8 -20 -10t-34 4q-42 20 -66 88q-9 25 -9 54q0 47 25 102q35 81 116 111
q55 21 113 21q27 0 54 -4q47 -8 90 -28q44 -21 78 -53q32 -30 54 -71q21 -42 26 -93q1 -10 1 -20q0 -35 -12 -63q-15 -37 -43 -65q-22 -23 -51 -40q-28 -17 -58 -28q-43 -17 -83 -25q11 -14 22 -30q33 -52 60 -117q28 -66 51 -133q15 -43 30 -85q14 -43 28 -80
q25 -70 51 -116q25 -46 55 -48q25 -1 48 26q24 27 21 53q-1 9 -6 17t-14 14q6 19 18 33q12 13 32 5q16 -18 17 -42v-7q1 -21 -7 -41q-13 -36 -45 -63q-30 -25 -66 -25h-3q-55 1 -95 32q-40 30 -70 79q-32 52 -55 117q-23 66 -42 134q-13 44 -24 87q-12 43 -24 82
q-19 57 -41 99q-7 -2 -15 -4q-8 -103 -14 -188q-8 -93 -13 -111q-13 -8 -29 -8t-34 8q-36 18 -40 56zM187 274l5 46q-37 -1 -38 -26q-1 -26 32 -32zM320 806q-4 -1 -8 -1q-3 0 -6 1q-7 1 -7 8q3 33 21 73t57 57q10 4 17 4h2q8 0 13 -4q12 -9 12 -28v-3q-1 -20 -10 -28
q-15 -6 -48 -29q-32 -23 -43 -50z" />
    <glyph glyph-name="racute" unicode="&#x155;" horiz-adv-x="352" 
d="M46 342q35 0 77 8q43 8 67 0q10 -4 15 -12t3 -23q-6 -36 -8 -74t0 -75q2 -67 13 -115t26 -50q20 -2 38 34q19 37 33 79q9 29 15 53q7 25 10 37q8 2 18 2q11 1 18 -2q-3 -16 -13 -57q-11 -40 -28 -84q-10 -23 -21 -44q-12 -21 -26 -37q-13 -15 -28 -23q-13 -8 -28 -8
q-2 0 -4 1q-45 3 -82 28q-38 25 -43 59q-4 27 -4 56t2 58q4 52 11 92q6 41 -1 47l-36 6q-23 5 -31 5q-3 -10 -10 -45q-7 -36 -13 -60q-7 -1 -17 0q-9 0 -19 1q5 24 14 62q8 37 9 48q-22 11 -35 30t-13 36v2q0 30 11 48q12 20 24 22q4 1 8 1q7 0 13 -2q8 -4 15 -12
q15 -17 18 -47q3 -31 2 -45zM106 430q-4 -1 -8 -1q-3 0 -6 1q-7 1 -7 8q3 33 21 73t57 57q10 4 17 4h2q8 0 13 -4q12 -9 12 -28v-3q-1 -20 -10 -28q-15 -6 -48 -29q-32 -23 -43 -50z" />
    <glyph glyph-name="Rcaron" unicode="&#x158;" horiz-adv-x="690" 
d="M135 4q12 6 26 86q11 66 22 148q-3 0 -6 1q-47 4 -52 39v10q0 29 26 46q11 7 25 10q9 2 18 3l2 16q4 45 8 87q6 78 10 135q3 58 1 68q13 27 40 27h9q34 -5 41 -27q-3 -2 -6 -21q-3 -18 -7 -49q-6 -56 -13 -142q-4 -57 -8 -115q10 -7 21 -15q12 -11 23 -23q23 6 48 15
q20 8 40 19t37 26q27 24 42 58q15 35 10 84q-7 74 -35 125q-28 50 -66 78q-47 33 -102 33t-102 -32q-26 -17 -47 -44q-21 -26 -36 -61q-26 -60 -1 -100q25 -41 64 -22q3 -21 4 -47t-13 -40q-7 -8 -20 -10t-34 4q-42 20 -66 88q-9 25 -9 54q0 47 25 102q35 81 116 111
q55 21 113 21q27 0 54 -4q47 -8 90 -28q44 -21 78 -53q32 -30 54 -71q21 -42 26 -93q1 -10 1 -20q0 -35 -12 -63q-15 -37 -43 -65q-22 -23 -51 -40q-28 -17 -58 -28q-43 -17 -83 -25q11 -14 22 -30q33 -52 60 -117q28 -66 51 -133q15 -43 30 -85q14 -43 28 -80
q25 -70 51 -116q25 -46 55 -48q25 -1 48 26q24 27 21 53q-1 9 -6 17t-14 14q6 19 18 33q12 13 32 5q16 -18 17 -42v-7q1 -21 -7 -41q-13 -36 -45 -63q-30 -25 -66 -25h-3q-55 1 -95 32q-40 30 -70 79q-32 52 -55 117q-23 66 -42 134q-13 44 -24 87q-12 43 -24 82
q-19 57 -41 99q-7 -2 -15 -4q-8 -103 -14 -188q-8 -93 -13 -111q-13 -8 -29 -8t-34 8q-36 18 -40 56zM187 274l5 46q-37 -1 -38 -26q-1 -26 32 -32zM225 882q0 16 18 26q16 9 30 9q3 0 6 -1q11 -20 19 -40t23 -38q11 24 35 73q23 5 40 -8q13 -10 13 -21q0 -3 -2 -7
q-29 -24 -87 -71q-24 22 -44 40q-21 19 -51 38z" />
    <glyph glyph-name="rcaron" unicode="&#x159;" horiz-adv-x="352" 
d="M46 342q35 0 77 8q43 8 67 0q10 -4 15 -12t3 -23q-6 -36 -8 -74t0 -75q2 -67 13 -115t26 -50q20 -2 38 34q19 37 33 79q9 29 15 53q7 25 10 37q8 2 18 2q11 1 18 -2q-3 -16 -13 -57q-11 -40 -28 -84q-10 -23 -21 -44q-12 -21 -26 -37q-13 -15 -28 -23q-13 -8 -28 -8
q-2 0 -4 1q-45 3 -82 28q-38 25 -43 59q-4 27 -4 56t2 58q4 52 11 92q6 41 -1 47l-36 6q-23 5 -31 5q-3 -10 -10 -45q-7 -36 -13 -60q-7 -1 -17 0q-9 0 -19 1q5 24 14 62q8 37 9 48q-22 11 -35 30t-13 36v2q0 30 11 48q12 20 24 22q4 1 8 1q7 0 13 -2q8 -4 15 -12
q15 -17 18 -47q3 -31 2 -45zM13 522q0 16 18 26q16 9 30 9q3 0 6 -1q11 -20 19 -40t23 -38q11 24 35 73q23 5 40 -8q13 -10 13 -21q0 -3 -2 -7q-29 -24 -87 -71q-24 22 -44 40q-21 19 -51 38z" />
    <glyph glyph-name="Sacute" unicode="&#x15a;" horiz-adv-x="697" 
d="M561 437q-37 -29 -79 -8q-41 20 -44 58q25 6 42 18t28 28q10 17 14 36t1 39q-6 36 -32 67q-26 30 -70 38q-74 14 -130 -30t-56 -141q0 -30 14 -55q13 -24 36 -45q41 -41 102 -76q62 -35 114 -80q43 -37 71 -86q25 -43 25 -102q0 -7 -1 -15q-2 -52 -19 -91
q-18 -39 -45 -66q-51 -51 -127 -65q-40 -7 -79 -7q-36 0 -70 6q-54 9 -96 44q-43 34 -68 80q-32 57 -32 120q0 13 1 25q7 77 80 118q43 9 58 -32t0 -82q-45 17 -56 -30q-12 -47 9 -103q7 -18 18 -36q10 -17 24 -31q15 -15 32 -25q18 -10 39 -14q54 -11 104 10q50 20 83 65
q17 24 28 54q10 30 12 66q2 47 -25 82q-28 36 -69 67q-27 21 -57 41q-30 21 -59 43q-53 41 -93 94q-39 53 -36 131q2 72 43 120t100 69q31 11 66 13q10 1 20 1q24 0 48 -4q74 -13 116 -64q42 -50 48 -113q3 -33 -5 -67t-28 -65zM360 797q-4 -1 -8 -1q-3 0 -6 1q-7 1 -7 8
q3 33 21 73t57 57q10 4 17 4h2q8 0 13 -4q12 -9 12 -28v-3q-1 -20 -10 -28q-15 -6 -48 -29q-32 -23 -43 -50z" />
    <glyph glyph-name="sacute" unicode="&#x15b;" horiz-adv-x="349" 
d="M43 322q18 -9 39 -24q20 -14 41 -32q38 -32 69 -74q31 -43 37 -87q0 -6 1 -12q35 21 62 49q32 31 39 64q11 3 19 4q9 0 18 -3q-4 -25 -20 -49q-15 -24 -37 -45q-36 -34 -79 -59q-1 -17 -3 -32q-6 -35 -20 -58q-26 -44 -70 -53q-18 -4 -34 -4q-23 0 -41 8q-33 13 -33 41
t24 53q13 14 33 25q12 7 27 12q1 6 2 11q3 20 -1 43t-11 46q-14 42 -35 77q-22 36 -38 47q-3 -10 -6 -31q-2 -21 -9 -45q-8 -2 -18 -1q-9 0 -18 1q6 26 13 55t8 40q-43 33 -48 70q-2 9 -2 17q0 23 12 35q7 10 17 15q8 4 17 4h3q36 -3 42 -35q5 -32 0 -73zM73 -23
q-12 -27 2 -33q17 -7 27 32q4 15 7 30q-28 -10 -36 -29zM24 490q-4 -1 -8 -1q-3 0 -6 1q-7 1 -7 8q3 33 21 73t57 57q10 4 17 4h2q8 0 13 -4q12 -9 12 -28v-3q-1 -20 -10 -28q-15 -6 -48 -29q-32 -23 -43 -50z" />
    <glyph glyph-name="Scircumflex" unicode="&#x15c;" horiz-adv-x="697" 
d="M561 437q-37 -29 -79 -8q-41 20 -44 58q25 6 42 18t28 28q10 17 14 36t1 39q-6 36 -32 67q-26 30 -70 38q-74 14 -130 -30t-56 -141q0 -30 14 -55q13 -24 36 -45q41 -41 102 -76q62 -35 114 -80q43 -37 71 -86q25 -43 25 -102q0 -7 -1 -15q-2 -52 -19 -91
q-18 -39 -45 -66q-51 -51 -127 -65q-40 -7 -79 -7q-36 0 -70 6q-54 9 -96 44q-43 34 -68 80q-32 57 -32 120q0 13 1 25q7 77 80 118q43 9 58 -32t0 -82q-45 17 -56 -30q-12 -47 9 -103q7 -18 18 -36q10 -17 24 -31q15 -15 32 -25q18 -10 39 -14q54 -11 104 10q50 20 83 65
q17 24 28 54q10 30 12 66q2 47 -25 82q-28 36 -69 67q-27 21 -57 41q-30 21 -59 43q-53 41 -93 94q-39 53 -36 131q2 72 43 120t100 69q31 11 66 13q10 1 20 1q24 0 48 -4q74 -13 116 -64q42 -50 48 -113q3 -33 -5 -67t-28 -65zM392 921l87 -72q2 -3 2 -7q0 -11 -13 -21
q-17 -12 -40 -8q-12 24 -35 74q-15 -19 -23 -39t-19 -40h-6q-14 0 -30 8q-18 10 -18 26q30 19 51 38q20 18 44 41z" />
    <glyph glyph-name="scircumflex" unicode="&#x15d;" horiz-adv-x="349" 
d="M43 322q18 -9 39 -24q20 -14 41 -32q38 -32 69 -74q31 -43 37 -87q0 -6 1 -12q35 21 62 49q32 31 39 64q11 3 19 4q9 0 18 -3q-4 -25 -20 -49q-15 -24 -37 -45q-36 -34 -79 -59q-1 -17 -3 -32q-6 -35 -20 -58q-26 -44 -70 -53q-18 -4 -34 -4q-23 0 -41 8q-33 13 -33 41
t24 53q13 14 33 25q12 7 27 12q1 6 2 11q3 20 -1 43t-11 46q-14 42 -35 77q-22 36 -38 47q-3 -10 -6 -31q-2 -21 -9 -45q-8 -2 -18 -1q-9 0 -18 1q6 26 13 55t8 40q-43 33 -48 70q-2 9 -2 17q0 23 12 35q7 10 17 15q8 4 17 4h3q36 -3 42 -35q5 -32 0 -73zM73 -23
q-12 -27 2 -33q17 -7 27 32q4 15 7 30q-28 -10 -36 -29zM33 589l87 -72q2 -3 2 -7q0 -11 -13 -21q-17 -12 -40 -8q-12 24 -35 74q-15 -19 -23 -39t-19 -40h-6q-14 0 -30 8q-18 10 -18 26q30 19 51 38q20 18 44 41z" />
    <glyph glyph-name="Scaron" unicode="&#x160;" horiz-adv-x="697" 
d="M561 437q-37 -29 -79 -8q-41 20 -44 58q25 6 42 18t28 28q10 17 14 36t1 39q-6 36 -32 67q-26 30 -70 38q-74 14 -130 -30t-56 -141q0 -30 14 -55q13 -24 36 -45q41 -41 102 -76q62 -35 114 -80q43 -37 71 -86q25 -43 25 -102q0 -7 -1 -15q-2 -52 -19 -91
q-18 -39 -45 -66q-51 -51 -127 -65q-40 -7 -79 -7q-36 0 -70 6q-54 9 -96 44q-43 34 -68 80q-32 57 -32 120q0 13 1 25q7 77 80 118q43 9 58 -32t0 -82q-45 17 -56 -30q-12 -47 9 -103q7 -18 18 -36q10 -17 24 -31q15 -15 32 -25q18 -10 39 -14q54 -11 104 10q50 20 83 65
q17 24 28 54q10 30 12 66q2 47 -25 82q-28 36 -69 67q-27 21 -57 41q-30 21 -59 43q-53 41 -93 94q-39 53 -36 131q2 72 43 120t100 69q31 11 66 13q10 1 20 1q24 0 48 -4q74 -13 116 -64q42 -50 48 -113q3 -33 -5 -67t-28 -65zM293 871q0 16 18 26q16 9 30 9q3 0 6 -1
q11 -20 19 -40t23 -38q11 24 35 73q23 5 40 -8q13 -10 13 -21q0 -3 -2 -7q-29 -24 -87 -71q-24 22 -44 40q-21 19 -51 38z" />
    <glyph glyph-name="scaron" unicode="&#x161;" horiz-adv-x="349" 
d="M43 322q18 -9 39 -24q20 -14 41 -32q38 -32 69 -74q31 -43 37 -87q0 -6 1 -12q35 21 62 49q32 31 39 64q11 3 19 4q9 0 18 -3q-4 -25 -20 -49q-15 -24 -37 -45q-36 -34 -79 -59q-1 -17 -3 -32q-6 -35 -20 -58q-26 -44 -70 -53q-18 -4 -34 -4q-23 0 -41 8q-33 13 -33 41
t24 53q13 14 33 25q12 7 27 12q1 6 2 11q3 20 -1 43t-11 46q-14 42 -35 77q-22 36 -38 47q-3 -10 -6 -31q-2 -21 -9 -45q-8 -2 -18 -1q-9 0 -18 1q6 26 13 55t8 40q-43 33 -48 70q-2 9 -2 17q0 23 12 35q7 10 17 15q8 4 17 4h3q36 -3 42 -35q5 -32 0 -73zM73 -23
q-12 -27 2 -33q17 -7 27 32q4 15 7 30q-28 -10 -36 -29zM-42 522q0 16 18 26q16 9 30 9q3 0 6 -1q11 -20 19 -40t23 -38q11 24 35 73q23 5 40 -8q13 -10 13 -21q0 -3 -2 -7q-29 -24 -87 -71q-24 22 -44 40q-21 19 -51 38z" />
    </font>
</defs>
</svg>
